<?xml version="1.0" encoding="UTF-8" standalone="no"?>
<!DOCTYPE svg PUBLIC "-//W3C//DTD SVG 1.1//EN"
 "http://www.w3.org/Graphics/SVG/1.1/DTD/svg11.dtd">
<!-- Generated by graphviz version 2.43.0 (0)
 -->
<!-- Title: why_this_repo_exists Pages: 1 -->
<svg width="1008pt" height="481pt"
 viewBox="0.00 0.00 1008.00 481.00" xmlns="http://www.w3.org/2000/svg" xmlns:xlink="http://www.w3.org/1999/xlink">
<g id="graph0" class="graph" transform="scale(1 1) rotate(0) translate(4 477)">
<title>why_this_repo_exists</title>
<polygon fill="#0d1117" stroke="transparent" points="-4,4 -4,-477 1004,-477 1004,4 -4,4"/>
<text text-anchor="middle" x="500" y="-453" font-family="Helvetica,sans-Serif" font-size="20.00" fill="#e6edf3">Scope: documentation, not a patch — and its own repo, not a subfolder</text>
<g id="clust1" class="cluster">
<title>cluster_core</title>
<path fill="#0d1117" stroke="#58a6ff" stroke-dasharray="5,2" d="M311,-320C311,-320 643,-320 643,-320 649,-320 655,-326 655,-332 655,-332 655,-423 655,-423 655,-429 649,-435 643,-435 643,-435 311,-435 311,-435 305,-435 299,-429 299,-423 299,-423 299,-332 299,-332 299,-326 305,-320 311,-320"/>
<text text-anchor="middle" x="477" y="-415" font-family="Helvetica,sans-Serif" font-size="20.00" fill="#58a6ff">Hermes Agent (upstream product)</text>
</g>
<g id="clust2" class="cluster">
<title>cluster_this</title>
<path fill="#0d1117" stroke="#3fb950" d="M301,-157C301,-157 654,-157 654,-157 660,-157 666,-163 666,-169 666,-169 666,-260 666,-260 666,-266 660,-272 654,-272 654,-272 301,-272 301,-272 295,-272 289,-266 289,-260 289,-260 289,-169 289,-169 289,-163 295,-157 301,-157"/>
<text text-anchor="middle" x="477.5" y="-252" font-family="Helvetica,sans-Serif" font-size="20.00" fill="#3fb950">This repo: hermes&#45;goal&#45;loop&#45;deferral</text>
</g>
<g id="clust3" class="cluster">
<title>cluster_siblings</title>
<path fill="#0d1117" stroke="#bc8cff" stroke-dasharray="5,2" d="M20,-22C20,-22 750,-22 750,-22 756,-22 762,-28 762,-34 762,-34 762,-95 762,-95 762,-101 756,-107 750,-107 750,-107 20,-107 20,-107 14,-107 8,-101 8,-95 8,-95 8,-34 8,-34 8,-28 14,-22 20,-22"/>
<text text-anchor="middle" x="385" y="-87" font-family="Helvetica,sans-Serif" font-size="20.00" fill="#bc8cff">Sibling writeup repos (same author)</text>
</g>
<!-- core -->
<g id="node1" class="node">
<title>core</title>
<path fill="#13294d" stroke="#58a6ff" stroke-width="2" d="M559.5,-397C559.5,-397 394.5,-397 394.5,-397 388.5,-397 382.5,-391 382.5,-385 382.5,-385 382.5,-340 382.5,-340 382.5,-334 388.5,-328 394.5,-328 394.5,-328 559.5,-328 559.5,-328 565.5,-328 571.5,-334 571.5,-340 571.5,-340 571.5,-385 571.5,-385 571.5,-391 565.5,-397 559.5,-397"/>
<text text-anchor="middle" x="477" y="-373.8" font-family="Helvetica,sans-Serif" font-size="14.00" fill="#e6edf3">Vendored install:</text>
<text text-anchor="middle" x="477" y="-358.8" font-family="Helvetica,sans-Serif" font-size="14.00" fill="#e6edf3">/goal, post&#45;turn hooks,</text>
<text text-anchor="middle" x="477" y="-343.8" font-family="Helvetica,sans-Serif" font-size="14.00" fill="#e6edf3">judge client</text>
</g>
<!-- this -->
<g id="node2" class="node">
<title>this</title>
<path fill="#12351f" stroke="#3fb950" stroke-width="2" d="M565,-234C565,-234 389,-234 389,-234 383,-234 377,-228 377,-222 377,-222 377,-177 377,-177 377,-171 383,-165 389,-165 389,-165 565,-165 565,-165 571,-165 577,-171 577,-177 577,-177 577,-222 577,-222 577,-228 571,-234 565,-234"/>
<text text-anchor="middle" x="477" y="-210.8" font-family="Helvetica,sans-Serif" font-size="14.00" fill="#e6edf3">Diagnosis + evidence +</text>
<text text-anchor="middle" x="477" y="-195.8" font-family="Helvetica,sans-Serif" font-size="14.00" fill="#e6edf3">mitigation proposals</text>
<text text-anchor="middle" x="477" y="-180.8" font-family="Helvetica,sans-Serif" font-size="14.00" fill="#e6edf3">(read&#45;only findings)</text>
</g>
<!-- core&#45;&gt;this -->
<g id="edge1" class="edge">
<title>core&#45;&gt;this</title>
<path fill="none" stroke="#f0883e" stroke-width="1.6" stroke-dasharray="5,2" d="M477,-327.75C477,-303.17 477,-269.69 477,-243.24"/>
<polygon fill="#f0883e" stroke="#f0883e" stroke-width="1.6" points="480.15,-243.21 477,-234.21 473.85,-243.21 480.15,-243.21"/>
<text text-anchor="middle" x="540.5" y="-298.8" font-family="Helvetica,sans-Serif" font-size="14.00" fill="#adbac7">observed via logs,</text>
<text text-anchor="middle" x="540.5" y="-283.8" font-family="Helvetica,sans-Serif" font-size="14.00" fill="#adbac7">never modified</text>
</g>
<!-- sib1 -->
<g id="node3" class="node">
<title>sib1</title>
<path fill="#241a3d" stroke="#bc8cff" stroke-width="2" d="M233.5,-69C233.5,-69 28.5,-69 28.5,-69 22.5,-69 16.5,-63 16.5,-57 16.5,-57 16.5,-42 16.5,-42 16.5,-36 22.5,-30 28.5,-30 28.5,-30 233.5,-30 233.5,-30 239.5,-30 245.5,-36 245.5,-42 245.5,-42 245.5,-57 245.5,-57 245.5,-63 239.5,-69 233.5,-69"/>
<text text-anchor="middle" x="131" y="-45.8" font-family="Helvetica,sans-Serif" font-size="14.00" fill="#e6edf3">hermes&#45;sandbox&#45;pdf&#45;tooling</text>
</g>
<!-- this&#45;&gt;sib1 -->
<g id="edge2" class="edge">
<title>this&#45;&gt;sib1</title>
<path fill="none" stroke="#8b949e" stroke-width="1.6" stroke-dasharray="1,5" d="M376.99,-175.67C349.27,-167.96 319.52,-158.37 293,-147 242.45,-125.33 188.48,-90.54 157.35,-69.19"/>
<text text-anchor="middle" x="355" y="-135.8" font-family="Helvetica,sans-Serif" font-size="14.00" fill="#adbac7">same convention,</text>
<text text-anchor="middle" x="355" y="-120.8" font-family="Helvetica,sans-Serif" font-size="14.00" fill="#adbac7">separate topic</text>
</g>
<!-- sib2 -->
<g id="node4" class="node">
<title>sib2</title>
<path fill="#241a3d" stroke="#bc8cff" stroke-width="2" d="M468.5,-69C468.5,-69 275.5,-69 275.5,-69 269.5,-69 263.5,-63 263.5,-57 263.5,-57 263.5,-42 263.5,-42 263.5,-36 269.5,-30 275.5,-30 275.5,-30 468.5,-30 468.5,-30 474.5,-30 480.5,-36 480.5,-42 480.5,-42 480.5,-57 480.5,-57 480.5,-63 474.5,-69 468.5,-69"/>
<text text-anchor="middle" x="372" y="-45.8" font-family="Helvetica,sans-Serif" font-size="14.00" fill="#e6edf3">hermes&#45;agent&#45;blast&#45;radius</text>
</g>
<!-- this&#45;&gt;sib2 -->
<g id="edge3" class="edge">
<title>this&#45;&gt;sib2</title>
<path fill="none" stroke="#8b949e" stroke-width="1.6" stroke-dasharray="1,5" d="M453.17,-164.92C432.12,-135.24 402.18,-93.05 385.17,-69.06"/>
</g>
<!-- sib3 -->
<g id="node5" class="node">
<title>sib3</title>
<path fill="#241a3d" stroke="#bc8cff" stroke-width="2" d="M741.5,-69C741.5,-69 510.5,-69 510.5,-69 504.5,-69 498.5,-63 498.5,-57 498.5,-57 498.5,-42 498.5,-42 498.5,-36 504.5,-30 510.5,-30 510.5,-30 741.5,-30 741.5,-30 747.5,-30 753.5,-36 753.5,-42 753.5,-42 753.5,-57 753.5,-57 753.5,-63 747.5,-69 741.5,-69"/>
<text text-anchor="middle" x="626" y="-45.8" font-family="Helvetica,sans-Serif" font-size="14.00" fill="#e6edf3">hermes&#45;gpu&#45;docker&#45;architecture</text>
</g>
<!-- this&#45;&gt;sib3 -->
<g id="edge4" class="edge">
<title>this&#45;&gt;sib3</title>
<path fill="none" stroke="#8b949e" stroke-width="1.6" stroke-dasharray="1,5" d="M510.81,-164.92C540.69,-135.24 583.17,-93.05 607.31,-69.06"/>
</g>
<!-- note -->
<g id="node6" class="node">
<title>note</title>
<polygon fill="#1f2937" stroke="#d29922" stroke-width="2" points="994,-99 772,-99 772,0 1000,0 1000,-93 994,-99"/>
<polyline fill="none" stroke="#d29922" stroke-width="2" points="994,-99 994,-93 "/>
<polyline fill="none" stroke="#d29922" stroke-width="2" points="1000,-93 994,-93 "/>
<text text-anchor="middle" x="886" y="-75.8" font-family="Helvetica,sans-Serif" font-size="14.00" fill="#e6edf3">Each topic gets its own repo</text>
<text text-anchor="middle" x="886" y="-60.8" font-family="Helvetica,sans-Serif" font-size="14.00" fill="#e6edf3">when it&#39;s self&#45;contained;</text>
<text text-anchor="middle" x="886" y="-45.8" font-family="Helvetica,sans-Serif" font-size="14.00" fill="#e6edf3">a subfolder is used instead</text>
<text text-anchor="middle" x="886" y="-30.8" font-family="Helvetica,sans-Serif" font-size="14.00" fill="#e6edf3">when a topic extends an</text>
<text text-anchor="middle" x="886" y="-15.8" font-family="Helvetica,sans-Serif" font-size="14.00" fill="#e6edf3">existing repo&#39;s subject</text>
</g>
<!-- this&#45;&gt;note -->
</g>
</svg>
