<?xml version="1.0" encoding="UTF-8" standalone="no"?>
<!DOCTYPE svg PUBLIC "-//W3C//DTD SVG 1.1//EN"
 "http://www.w3.org/Graphics/SVG/1.1/DTD/svg11.dtd">
<!-- Generated by graphviz version 2.43.0 (0)
 -->
<!-- Title: meta_loop_integrations Pages: 1 -->
<svg width="811pt" height="627pt"
 viewBox="0.00 0.00 811.00 627.00" xmlns="http://www.w3.org/2000/svg" xmlns:xlink="http://www.w3.org/1999/xlink">
<g id="graph0" class="graph" transform="scale(1 1) rotate(0) translate(4 623)">
<title>meta_loop_integrations</title>
<polygon fill="#0d1117" stroke="transparent" points="-4,4 -4,-623 807,-623 807,4 -4,4"/>
<text text-anchor="middle" x="401.5" y="-599" font-family="Helvetica,sans-Serif" font-size="20.00" fill="#e6edf3">/goal among Hermes&#39; other standing&#45;loop constructs</text>
<g id="clust1" class="cluster">
<title>cluster_goal</title>
<path fill="#0d1117" stroke="#3fb950" d="M563,-288C563,-288 775,-288 775,-288 781,-288 787,-294 787,-300 787,-300 787,-391 787,-391 787,-397 781,-403 775,-403 775,-403 563,-403 563,-403 557,-403 551,-397 551,-391 551,-391 551,-300 551,-300 551,-294 557,-288 563,-288"/>
<text text-anchor="middle" x="669" y="-383" font-family="Helvetica,sans-Serif" font-size="20.00" fill="#3fb950">/goal — single session</text>
</g>
<g id="clust2" class="cluster">
<title>cluster_loop</title>
<path fill="#0d1117" stroke="#58a6ff" d="M20,-288C20,-288 289,-288 289,-288 295,-288 301,-294 301,-300 301,-300 301,-391 301,-391 301,-397 295,-403 289,-403 289,-403 20,-403 20,-403 14,-403 8,-397 8,-391 8,-391 8,-300 8,-300 8,-294 14,-288 20,-288"/>
<text text-anchor="middle" x="154.5" y="-383" font-family="Helvetica,sans-Serif" font-size="20.00" fill="#58a6ff">/loop — scheduled wakeups</text>
</g>
<g id="clust3" class="cluster">
<title>cluster_kanban</title>
<path fill="#0d1117" stroke="#bc8cff" d="M544,-451C544,-451 783,-451 783,-451 789,-451 795,-457 795,-463 795,-463 795,-569 795,-569 795,-575 789,-581 783,-581 783,-581 544,-581 544,-581 538,-581 532,-575 532,-569 532,-569 532,-463 532,-463 532,-457 538,-451 544,-451"/>
<text text-anchor="middle" x="663.5" y="-561" font-family="Helvetica,sans-Serif" font-size="20.00" fill="#bc8cff">Kanban goal&#45;mode cards</text>
</g>
<g id="clust4" class="cluster">
<title>cluster_heartbeat</title>
<path fill="#0d1117" stroke="#d29922" d="M321,-288C321,-288 531,-288 531,-288 537,-288 543,-294 543,-300 543,-300 543,-391 543,-391 543,-397 537,-403 531,-403 531,-403 321,-403 321,-403 315,-403 309,-397 309,-391 309,-391 309,-300 309,-300 309,-294 315,-288 321,-288"/>
<text text-anchor="middle" x="426" y="-383" font-family="Helvetica,sans-Serif" font-size="20.00" fill="#d29922">Heartbeat</text>
</g>
<!-- goal -->
<g id="node1" class="node">
<title>goal</title>
<path fill="#12351f" stroke="#3fb950" stroke-width="2" d="M713,-365C713,-365 571,-365 571,-365 565,-365 559,-359 559,-353 559,-353 559,-308 559,-308 559,-302 565,-296 571,-296 571,-296 713,-296 713,-296 719,-296 725,-302 725,-308 725,-308 725,-353 725,-353 725,-359 719,-365 713,-365"/>
<text text-anchor="middle" x="642" y="-341.8" font-family="Helvetica,sans-Serif" font-size="14.00" fill="#e6edf3">Standing objective,</text>
<text text-anchor="middle" x="642" y="-326.8" font-family="Helvetica,sans-Serif" font-size="14.00" fill="#e6edf3">judged every turn,</text>
<text text-anchor="middle" x="642" y="-311.8" font-family="Helvetica,sans-Serif" font-size="14.00" fill="#e6edf3">this repo&#39;s subject</text>
</g>
<!-- shared -->
<g id="node5" class="node">
<title>shared</title>
<path fill="#161b22" stroke="#f0883e" stroke-width="2" d="M414.4,-255.93C414.4,-255.93 176.6,-193.07 176.6,-193.07 170.8,-191.53 170.8,-188.47 176.6,-186.93 176.6,-186.93 414.4,-124.07 414.4,-124.07 420.2,-122.53 431.8,-122.53 437.6,-124.07 437.6,-124.07 675.4,-186.93 675.4,-186.93 681.2,-188.47 681.2,-191.53 675.4,-193.07 675.4,-193.07 437.6,-255.93 437.6,-255.93 431.8,-257.47 420.2,-257.47 414.4,-255.93"/>
<text text-anchor="middle" x="426" y="-201.3" font-family="Helvetica,sans-Serif" font-size="14.00" fill="#e6edf3">Shared post&#45;turn plumbing:</text>
<text text-anchor="middle" x="426" y="-186.3" font-family="Helvetica,sans-Serif" font-size="14.00" fill="#e6edf3">session resolution, adapter FIFO,</text>
<text text-anchor="middle" x="426" y="-171.3" font-family="Helvetica,sans-Serif" font-size="14.00" fill="#e6edf3">status&#45;notice delivery</text>
</g>
<!-- goal&#45;&gt;shared -->
<g id="edge1" class="edge">
<title>goal&#45;&gt;shared</title>
<path fill="none" stroke="#3fb950" stroke-width="1.6" d="M582.11,-291.1C559.6,-276.66 533.57,-259.97 509.3,-244.41"/>
<polygon fill="#3fb950" stroke="#3fb950" stroke-width="1.6" points="580.44,-293.77 589.71,-295.97 583.84,-288.46 580.44,-293.77"/>
<polygon fill="#3fb950" stroke="#3fb950" stroke-width="1.6" points="510.77,-241.61 501.49,-239.4 507.37,-246.91 510.77,-241.61"/>
</g>
<!-- loop -->
<g id="node2" class="node">
<title>loop</title>
<path fill="#13294d" stroke="#58a6ff" stroke-width="2" d="M281,-365C281,-365 59,-365 59,-365 53,-365 47,-359 47,-353 47,-353 47,-308 47,-308 47,-302 53,-296 59,-296 59,-296 281,-296 281,-296 287,-296 293,-302 293,-308 293,-308 293,-353 293,-353 293,-359 287,-365 281,-365"/>
<text text-anchor="middle" x="170" y="-341.8" font-family="Helvetica,sans-Serif" font-size="14.00" fill="#e6edf3">Fires a prompt on an</text>
<text text-anchor="middle" x="170" y="-326.8" font-family="Helvetica,sans-Serif" font-size="14.00" fill="#e6edf3">interval, own completion hook,</text>
<text text-anchor="middle" x="170" y="-311.8" font-family="Helvetica,sans-Serif" font-size="14.00" fill="#e6edf3">separate from goal judging</text>
</g>
<!-- loop&#45;&gt;shared -->
<g id="edge2" class="edge">
<title>loop&#45;&gt;shared</title>
<path fill="none" stroke="#58a6ff" stroke-width="1.6" d="M240.21,-291.52C268.92,-275.98 302.54,-257.79 333.24,-241.19"/>
<polygon fill="#58a6ff" stroke="#58a6ff" stroke-width="1.6" points="238.39,-288.92 231.97,-295.97 241.39,-294.46 238.39,-288.92"/>
<polygon fill="#58a6ff" stroke="#58a6ff" stroke-width="1.6" points="334.97,-243.83 341.39,-236.78 331.97,-238.29 334.97,-243.83"/>
</g>
<!-- kanban -->
<g id="node3" class="node">
<title>kanban</title>
<path fill="#241a3d" stroke="#bc8cff" stroke-width="2" d="M724.5,-543C724.5,-543 559.5,-543 559.5,-543 553.5,-543 547.5,-537 547.5,-531 547.5,-531 547.5,-471 547.5,-471 547.5,-465 553.5,-459 559.5,-459 559.5,-459 724.5,-459 724.5,-459 730.5,-459 736.5,-465 736.5,-471 736.5,-471 736.5,-531 736.5,-531 736.5,-537 730.5,-543 724.5,-543"/>
<text text-anchor="middle" x="642" y="-519.8" font-family="Helvetica,sans-Serif" font-size="14.00" fill="#e6edf3">Board of many tasks;</text>
<text text-anchor="middle" x="642" y="-504.8" font-family="Helvetica,sans-Serif" font-size="14.00" fill="#e6edf3">a &#45;&#45;goal card runs the</text>
<text text-anchor="middle" x="642" y="-489.8" font-family="Helvetica,sans-Serif" font-size="14.00" fill="#e6edf3">same engine inside its</text>
<text text-anchor="middle" x="642" y="-474.8" font-family="Helvetica,sans-Serif" font-size="14.00" fill="#e6edf3">own worker session</text>
</g>
<!-- kanban&#45;&gt;goal -->
<g id="edge3" class="edge">
<title>kanban&#45;&gt;goal</title>
<path fill="none" stroke="#bc8cff" stroke-width="1.6" d="M642,-458.78C642,-433.18 642,-400.34 642,-374.43"/>
<polygon fill="#bc8cff" stroke="#bc8cff" stroke-width="1.6" points="645.15,-374.22 642,-365.22 638.85,-374.22 645.15,-374.22"/>
<text text-anchor="middle" x="683" y="-429.8" font-family="Helvetica,sans-Serif" font-size="14.00" fill="#adbac7">borrows the</text>
<text text-anchor="middle" x="683" y="-414.8" font-family="Helvetica,sans-Serif" font-size="14.00" fill="#adbac7">goal engine</text>
</g>
<!-- heartbeat -->
<g id="node4" class="node">
<title>heartbeat</title>
<path fill="#1f2937" stroke="#d29922" stroke-width="2" d="M523,-365C523,-365 329,-365 329,-365 323,-365 317,-359 317,-353 317,-353 317,-308 317,-308 317,-302 323,-296 329,-296 329,-296 523,-296 523,-296 529,-296 535,-302 535,-308 535,-308 535,-353 535,-353 535,-359 529,-365 523,-365"/>
<text text-anchor="middle" x="426" y="-341.8" font-family="Helvetica,sans-Serif" font-size="14.00" fill="#e6edf3">Idle&#45;session poller,</text>
<text text-anchor="middle" x="426" y="-326.8" font-family="Helvetica,sans-Serif" font-size="14.00" fill="#e6edf3">wakes a session on a</text>
<text text-anchor="middle" x="426" y="-311.8" font-family="Helvetica,sans-Serif" font-size="14.00" fill="#e6edf3">timer independent of /goal</text>
</g>
<!-- heartbeat&#45;&gt;shared -->
<g id="edge4" class="edge">
<title>heartbeat&#45;&gt;shared</title>
<path fill="none" stroke="#d29922" stroke-width="1.6" d="M426,-286.78C426,-280.9 426,-274.73 426,-268.47"/>
<polygon fill="#d29922" stroke="#d29922" stroke-width="1.6" points="422.85,-286.97 426,-295.97 429.15,-286.97 422.85,-286.97"/>
<polygon fill="#d29922" stroke="#d29922" stroke-width="1.6" points="429.15,-268.25 426,-259.25 422.85,-268.25 429.15,-268.25"/>
</g>
<!-- note -->
<g id="node6" class="node">
<title>note</title>
<polygon fill="#3b0d0d" stroke="#f85149" stroke-width="2" points="547,-84 299,-84 299,0 553,0 553,-78 547,-84"/>
<polyline fill="none" stroke="#f85149" stroke-width="2" points="547,-84 547,-78 "/>
<polyline fill="none" stroke="#f85149" stroke-width="2" points="553,-78 547,-78 "/>
<text text-anchor="middle" x="426" y="-60.8" font-family="Helvetica,sans-Serif" font-size="14.00" fill="#f85149">The deferral paths in this repo</text>
<text text-anchor="middle" x="426" y="-45.8" font-family="Helvetica,sans-Serif" font-size="14.00" fill="#f85149">are specific to /goal&#39;s post&#45;turn</text>
<text text-anchor="middle" x="426" y="-30.8" font-family="Helvetica,sans-Serif" font-size="14.00" fill="#f85149">hook — /loop&#39;s completion hook</text>
<text text-anchor="middle" x="426" y="-15.8" font-family="Helvetica,sans-Serif" font-size="14.00" fill="#f85149">has its own, separate logic</text>
</g>
<!-- shared&#45;&gt;note -->
<g id="edge5" class="edge">
<title>shared&#45;&gt;note</title>
<path fill="none" stroke="#f85149" stroke-width="1.6" stroke-dasharray="5,2" d="M426,-120.7C426,-111.45 426,-102.09 426,-93.24"/>
<polygon fill="#f85149" stroke="#f85149" stroke-width="1.6" points="429.15,-93.21 426,-84.21 422.85,-93.21 429.15,-93.21"/>
</g>
</g>
</svg>
