<?xml version="1.0" encoding="UTF-8" standalone="no"?>
<!DOCTYPE svg PUBLIC "-//W3C//DTD SVG 1.1//EN"
 "http://www.w3.org/Graphics/SVG/1.1/DTD/svg11.dtd">
<!-- Generated by graphviz version 2.43.0 (0)
 -->
<!-- Title: background_review_subsystem_deep_dive Pages: 1 -->
<svg width="700pt" height="1061pt"
 viewBox="0.00 0.00 700.18 1061.00" xmlns="http://www.w3.org/2000/svg" xmlns:xlink="http://www.w3.org/1999/xlink">
<g id="graph0" class="graph" transform="scale(1 1) rotate(0) translate(4 1057)">
<title>background_review_subsystem_deep_dive</title>
<polygon fill="#0d1117" stroke="transparent" points="-4,4 -4,-1057 696.18,-1057 696.18,4 -4,4"/>
<text text-anchor="middle" x="346.09" y="-1033" font-family="Helvetica,sans-Serif" font-size="20.00" fill="#e6edf3">Corrected mechanism: the NUDGE gets cancelled, not the goal turn</text>
<!-- t1 -->
<g id="node1" class="node">
<title>t1</title>
<path fill="#13294d" stroke="#58a6ff" stroke-width="2" d="M586,-1023C586,-1023 404,-1023 404,-1023 398,-1023 392,-1017 392,-1011 392,-1011 392,-966 392,-966 392,-960 398,-954 404,-954 404,-954 586,-954 586,-954 592,-954 598,-960 598,-966 598,-966 598,-1011 598,-1011 598,-1017 592,-1023 586,-1023"/>
<text text-anchor="middle" x="495" y="-999.8" font-family="Helvetica,sans-Serif" font-size="14.00" fill="#e6edf3">1. Goal&#45;continuation turn</text>
<text text-anchor="middle" x="495" y="-984.8" font-family="Helvetica,sans-Serif" font-size="14.00" fill="#e6edf3">completes cleanly</text>
<text text-anchor="middle" x="495" y="-969.8" font-family="Helvetica,sans-Serif" font-size="14.00" fill="#e6edf3">(finish_reason=stop)</text>
</g>
<!-- fork -->
<g id="node2" class="node">
<title>fork</title>
<path fill="#1f2937" stroke="#d29922" stroke-width="2" d="M605.5,-918C605.5,-918 384.5,-918 384.5,-918 378.5,-918 372.5,-912 372.5,-906 372.5,-906 372.5,-846 372.5,-846 372.5,-840 378.5,-834 384.5,-834 384.5,-834 605.5,-834 605.5,-834 611.5,-834 617.5,-840 617.5,-846 617.5,-846 617.5,-906 617.5,-906 617.5,-912 611.5,-918 605.5,-918"/>
<text text-anchor="middle" x="495" y="-894.8" font-family="Helvetica,sans-Serif" font-size="14.00" fill="#e6edf3">2. run_conversation() returns;</text>
<text text-anchor="middle" x="495" y="-879.8" font-family="Helvetica,sans-Serif" font-size="14.00" fill="#e6edf3">Hermes may spawn a daemon</text>
<text text-anchor="middle" x="495" y="-864.8" font-family="Helvetica,sans-Serif" font-size="14.00" fill="#e6edf3">thread that FORKS the agent</text>
<text text-anchor="middle" x="495" y="-849.8" font-family="Helvetica,sans-Serif" font-size="14.00" fill="#e6edf3">to run the skill/memory review</text>
</g>
<!-- t1&#45;&gt;fork -->
<g id="edge1" class="edge">
<title>t1&#45;&gt;fork</title>
<path fill="none" stroke="#8b949e" stroke-width="1.6" d="M495,-953.75C495,-945.46 495,-936.4 495,-927.51"/>
<polygon fill="#8b949e" stroke="#8b949e" stroke-width="1.6" points="498.15,-927.34 495,-918.34 491.85,-927.34 498.15,-927.34"/>
</g>
<!-- inherit -->
<g id="node3" class="node">
<title>inherit</title>
<path fill="#1f2937" stroke="#d29922" stroke-width="2" d="M601,-798C601,-798 389,-798 389,-798 383,-798 377,-792 377,-786 377,-786 377,-726 377,-726 377,-720 383,-714 389,-714 389,-714 601,-714 601,-714 607,-714 613,-720 613,-726 613,-726 613,-786 613,-786 613,-792 607,-798 601,-798"/>
<text text-anchor="middle" x="495" y="-774.8" font-family="Helvetica,sans-Serif" font-size="14.00" fill="#e6edf3">3. The fork inherits the</text>
<text text-anchor="middle" x="495" y="-759.8" font-family="Helvetica,sans-Serif" font-size="14.00" fill="#e6edf3">parent&#39;s live runtime —</text>
<text text-anchor="middle" x="495" y="-744.8" font-family="Helvetica,sans-Serif" font-size="14.00" fill="#e6edf3">same model, same cached</text>
<text text-anchor="middle" x="495" y="-729.8" font-family="Helvetica,sans-Serif" font-size="14.00" fill="#e6edf3">system prompt (warm cache)</text>
</g>
<!-- fork&#45;&gt;inherit -->
<g id="edge2" class="edge">
<title>fork&#45;&gt;inherit</title>
<path fill="none" stroke="#8b949e" stroke-width="1.6" d="M495,-833.73C495,-825.15 495,-816.01 495,-807.15"/>
<polygon fill="#8b949e" stroke="#8b949e" stroke-width="1.6" points="498.15,-807.05 495,-798.05 491.85,-807.05 498.15,-807.05"/>
</g>
<!-- running -->
<g id="node4" class="node">
<title>running</title>
<path fill="#1f2937" stroke="#d29922" stroke-width="2" d="M581.5,-678C581.5,-678 408.5,-678 408.5,-678 402.5,-678 396.5,-672 396.5,-666 396.5,-666 396.5,-621 396.5,-621 396.5,-615 402.5,-609 408.5,-609 408.5,-609 581.5,-609 581.5,-609 587.5,-609 593.5,-615 593.5,-621 593.5,-621 593.5,-666 593.5,-666 593.5,-672 587.5,-678 581.5,-678"/>
<text text-anchor="middle" x="495" y="-654.8" font-family="Helvetica,sans-Serif" font-size="14.00" fill="#e6edf3">4. Fork&#39;s review turn is</text>
<text text-anchor="middle" x="495" y="-639.8" font-family="Helvetica,sans-Serif" font-size="14.00" fill="#e6edf3">now generating against</text>
<text text-anchor="middle" x="495" y="-624.8" font-family="Helvetica,sans-Serif" font-size="14.00" fill="#e6edf3">the live model</text>
</g>
<!-- inherit&#45;&gt;running -->
<g id="edge3" class="edge">
<title>inherit&#45;&gt;running</title>
<path fill="none" stroke="#8b949e" stroke-width="1.6" d="M495,-713.85C495,-705.2 495,-696.06 495,-687.34"/>
<polygon fill="#8b949e" stroke="#8b949e" stroke-width="1.6" points="498.15,-687.1 495,-678.1 491.85,-687.1 498.15,-687.1"/>
</g>
<!-- newturn -->
<g id="node5" class="node">
<title>newturn</title>
<path fill="#13294d" stroke="#58a6ff" stroke-width="2" d="M594.5,-573C594.5,-573 395.5,-573 395.5,-573 389.5,-573 383.5,-567 383.5,-561 383.5,-561 383.5,-501 383.5,-501 383.5,-495 389.5,-489 395.5,-489 395.5,-489 594.5,-489 594.5,-489 600.5,-489 606.5,-495 606.5,-501 606.5,-501 606.5,-561 606.5,-561 606.5,-567 600.5,-573 594.5,-573"/>
<text text-anchor="middle" x="495" y="-549.8" font-family="Helvetica,sans-Serif" font-size="14.00" fill="#e6edf3">5. The NEXT live turn starts</text>
<text text-anchor="middle" x="495" y="-534.8" font-family="Helvetica,sans-Serif" font-size="14.00" fill="#e6edf3">(e.g. the goal continuation</text>
<text text-anchor="middle" x="495" y="-519.8" font-family="Helvetica,sans-Serif" font-size="14.00" fill="#e6edf3">prompt), calling</text>
<text text-anchor="middle" x="495" y="-504.8" font-family="Helvetica,sans-Serif" font-size="14.00" fill="#e6edf3">run_conversation() again</text>
</g>
<!-- running&#45;&gt;newturn -->
<g id="edge4" class="edge">
<title>running&#45;&gt;newturn</title>
<path fill="none" stroke="#8b949e" stroke-width="1.6" stroke-dasharray="5,2" d="M495,-608.75C495,-600.46 495,-591.4 495,-582.51"/>
<polygon fill="#8b949e" stroke="#8b949e" stroke-width="1.6" points="498.15,-582.34 495,-573.34 491.85,-582.34 498.15,-582.34"/>
</g>
<!-- cancelcall -->
<g id="node6" class="node">
<title>cancelcall</title>
<path fill="#3b0d0d" stroke="#f85149" stroke-width="3" d="M309.27,-450.48C309.27,-450.48 11.73,-386.52 11.73,-386.52 5.87,-385.26 5.87,-382.74 11.73,-381.48 11.73,-381.48 309.27,-317.52 309.27,-317.52 315.13,-316.26 326.87,-316.26 332.73,-317.52 332.73,-317.52 630.27,-381.48 630.27,-381.48 636.13,-382.74 636.13,-385.26 630.27,-386.52 630.27,-386.52 332.73,-450.48 332.73,-450.48 326.87,-451.74 315.13,-451.74 309.27,-450.48"/>
<text text-anchor="middle" x="321" y="-395.3" font-family="Helvetica,sans-Serif" font-size="14.00" fill="#f85149">6. run_conversation()&#39;s very</text>
<text text-anchor="middle" x="321" y="-380.3" font-family="Helvetica,sans-Serif" font-size="14.00" fill="#f85149">FIRST action, unconditionally:</text>
<text text-anchor="middle" x="321" y="-365.3" font-family="Helvetica,sans-Serif" font-size="14.00" fill="#f85149">cancel_background_review_for_live_turn()</text>
</g>
<!-- newturn&#45;&gt;cancelcall -->
<g id="edge5" class="edge">
<title>newturn&#45;&gt;cancelcall</title>
<path fill="none" stroke="#8b949e" stroke-width="1.6" d="M445.6,-488.84C429.28,-475.24 410.78,-459.81 393.11,-445.09"/>
<polygon fill="#8b949e" stroke="#8b949e" stroke-width="1.6" points="395.06,-442.62 386.13,-439.28 391.03,-447.46 395.06,-442.62"/>
</g>
<!-- proceed -->
<g id="node9" class="node">
<title>proceed</title>
<path fill="#12351f" stroke="#3fb950" stroke-width="2" d="M662.5,-69C662.5,-69 419.5,-69 419.5,-69 413.5,-69 407.5,-63 407.5,-57 407.5,-57 407.5,-12 407.5,-12 407.5,-6 413.5,0 419.5,0 419.5,0 662.5,0 662.5,0 668.5,0 674.5,-6 674.5,-12 674.5,-12 674.5,-57 674.5,-57 674.5,-63 668.5,-69 662.5,-69"/>
<text text-anchor="middle" x="541" y="-45.8" font-family="Helvetica,sans-Serif" font-size="14.00" fill="#e6edf3">9. Foreground priority: after a</text>
<text text-anchor="middle" x="541" y="-30.8" font-family="Helvetica,sans-Serif" font-size="14.00" fill="#e6edf3">bounded 2s wait for ack, the</text>
<text text-anchor="middle" x="541" y="-15.8" font-family="Helvetica,sans-Serif" font-size="14.00" fill="#e6edf3">new live turn proceeds regardless</text>
</g>
<!-- newturn&#45;&gt;proceed -->
<!-- interrupt -->
<g id="node7" class="node">
<title>interrupt</title>
<path fill="#161b22" stroke="#f0883e" stroke-width="2" d="M527.5,-279C527.5,-279 294.5,-279 294.5,-279 288.5,-279 282.5,-273 282.5,-267 282.5,-267 282.5,-222 282.5,-222 282.5,-216 288.5,-210 294.5,-210 294.5,-210 527.5,-210 527.5,-210 533.5,-210 539.5,-216 539.5,-222 539.5,-222 539.5,-267 539.5,-267 539.5,-273 533.5,-279 527.5,-279"/>
<text text-anchor="middle" x="411" y="-255.8" font-family="Helvetica,sans-Serif" font-size="14.00" fill="#e6edf3">7. Requests a hard interrupt on</text>
<text text-anchor="middle" x="411" y="-240.8" font-family="Helvetica,sans-Serif" font-size="14.00" fill="#e6edf3">the review fork, tagged</text>
<text text-anchor="middle" x="411" y="-225.8" font-family="Helvetica,sans-Serif" font-size="14.00" fill="#e6edf3">&quot;superseded by a new live turn&quot;</text>
</g>
<!-- cancelcall&#45;&gt;interrupt -->
<g id="edge6" class="edge">
<title>cancelcall&#45;&gt;interrupt</title>
<path fill="none" stroke="#8b949e" stroke-width="1.6" d="M360.21,-323.09C368.22,-310.86 376.47,-298.25 383.94,-286.84"/>
<polygon fill="#8b949e" stroke="#8b949e" stroke-width="1.6" points="386.68,-288.41 388.97,-279.16 381.4,-284.96 386.68,-288.41"/>
</g>
<!-- logline -->
<g id="node8" class="node">
<title>logline</title>
<path fill="#161b22" stroke="#f0883e" stroke-width="2" d="M584.5,-174C584.5,-174 329.5,-174 329.5,-174 323.5,-174 317.5,-168 317.5,-162 317.5,-162 317.5,-117 317.5,-117 317.5,-111 323.5,-105 329.5,-105 329.5,-105 584.5,-105 584.5,-105 590.5,-105 596.5,-111 596.5,-117 596.5,-117 596.5,-162 596.5,-162 596.5,-168 590.5,-174 584.5,-174"/>
<text text-anchor="middle" x="457" y="-150.8" font-family="Helvetica,sans-Serif" font-size="14.00" fill="#e6edf3">8. The REVIEW&#39;s own turn ends:</text>
<text text-anchor="middle" x="457" y="-135.8" font-family="Helvetica,sans-Serif" font-size="14.00" fill="#e6edf3">reason=interrupted_during_api_call</text>
<text text-anchor="middle" x="457" y="-120.8" font-family="Helvetica,sans-Serif" font-size="14.00" fill="#e6edf3">(background_review_superseded)</text>
</g>
<!-- interrupt&#45;&gt;logline -->
<g id="edge7" class="edge">
<title>interrupt&#45;&gt;logline</title>
<path fill="none" stroke="#8b949e" stroke-width="1.6" d="M426.06,-209.77C429.91,-201.15 434.1,-191.76 438.12,-182.77"/>
<polygon fill="#8b949e" stroke="#8b949e" stroke-width="1.6" points="441.11,-183.8 441.9,-174.3 435.36,-181.24 441.11,-183.8"/>
</g>
<!-- logline&#45;&gt;proceed -->
<g id="edge8" class="edge">
<title>logline&#45;&gt;proceed</title>
<path fill="none" stroke="#8b949e" stroke-width="1.6" d="M484.5,-104.77C491.9,-95.7 499.98,-85.8 507.66,-76.38"/>
<polygon fill="#8b949e" stroke="#8b949e" stroke-width="1.6" points="510.19,-78.27 513.43,-69.3 505.3,-74.29 510.19,-78.27"/>
</g>
</g>
</svg>
