<?xml version="1.0" encoding="UTF-8" standalone="no"?>
<!DOCTYPE svg PUBLIC "-//W3C//DTD SVG 1.1//EN"
 "http://www.w3.org/Graphics/SVG/1.1/DTD/svg11.dtd">
<!-- Generated by graphviz version 2.43.0 (0)
 -->
<!-- Title: gateway_interrupted_turn_gap Pages: 1 -->
<svg width="868pt" height="807pt"
 viewBox="0.00 0.00 868.00 807.00" xmlns="http://www.w3.org/2000/svg" xmlns:xlink="http://www.w3.org/1999/xlink">
<g id="graph0" class="graph" transform="scale(1 1) rotate(0) translate(4 803)">
<title>gateway_interrupted_turn_gap</title>
<polygon fill="#0d1117" stroke="transparent" points="-4,4 -4,-803 864,-803 864,4 -4,4"/>
<text text-anchor="middle" x="430" y="-779" font-family="Helvetica,sans-Serif" font-size="20.00" fill="#e6edf3">Confirmed gap: gateway judges partial output from interrupted turns; CLI never does</text>
<g id="clust1" class="cluster">
<title>cluster_cli</title>
<path fill="#0d1117" stroke="#3fb950" d="M92,-206.5C92,-206.5 292,-206.5 292,-206.5 298,-206.5 304,-212.5 304,-218.5 304,-218.5 304,-524 304,-524 304,-530 298,-536 292,-536 292,-536 92,-536 92,-536 86,-536 80,-530 80,-524 80,-524 80,-218.5 80,-218.5 80,-212.5 86,-206.5 92,-206.5"/>
<text text-anchor="middle" x="192" y="-516" font-family="Helvetica,sans-Serif" font-size="20.00" fill="#3fb950">CLI path</text>
</g>
<g id="clust2" class="cluster">
<title>cluster_gw</title>
<path fill="#0d1117" stroke="#f85149" d="M324,-172C324,-172 768,-172 768,-172 774,-172 780,-178 780,-184 780,-184 780,-749 780,-749 780,-755 774,-761 768,-761 768,-761 324,-761 324,-761 318,-761 312,-755 312,-749 312,-749 312,-184 312,-184 312,-178 318,-172 324,-172"/>
<text text-anchor="middle" x="546" y="-741" font-family="Helvetica,sans-Serif" font-size="20.00" fill="#f85149">Gateway path</text>
</g>
<!-- c1 -->
<g id="node1" class="node">
<title>c1</title>
<path fill="#12351f" stroke="#3fb950" stroke-width="2" d="M252.5,-498C252.5,-498 131.5,-498 131.5,-498 125.5,-498 119.5,-492 119.5,-486 119.5,-486 119.5,-471 119.5,-471 119.5,-465 125.5,-459 131.5,-459 131.5,-459 252.5,-459 252.5,-459 258.5,-459 264.5,-465 264.5,-471 264.5,-471 264.5,-486 264.5,-486 264.5,-492 258.5,-498 252.5,-498"/>
<text text-anchor="middle" x="192" y="-474.8" font-family="Helvetica,sans-Serif" font-size="14.00" fill="#e6edf3">Turn interrupted</text>
</g>
<!-- c2 -->
<g id="node2" class="node">
<title>c2</title>
<path fill="#12351f" stroke="#3fb950" stroke-width="2" d="M282,-408C282,-408 102,-408 102,-408 96,-408 90,-402 90,-396 90,-396 90,-366 90,-366 90,-360 96,-354 102,-354 102,-354 282,-354 282,-354 288,-354 294,-360 294,-366 294,-366 294,-396 294,-396 294,-402 288,-408 282,-408"/>
<text text-anchor="middle" x="192" y="-384.8" font-family="Helvetica,sans-Serif" font-size="14.00" fill="#e6edf3">_last_turn_interrupted</text>
<text text-anchor="middle" x="192" y="-369.8" font-family="Helvetica,sans-Serif" font-size="14.00" fill="#e6edf3">checked FIRST, explicitly</text>
</g>
<!-- c1&#45;&gt;c2 -->
<g id="edge1" class="edge">
<title>c1&#45;&gt;c2</title>
<path fill="none" stroke="#8b949e" stroke-width="1.6" d="M192,-458.63C192,-446.88 192,-431.4 192,-417.43"/>
<polygon fill="#8b949e" stroke="#8b949e" stroke-width="1.6" points="195.15,-417.06 192,-408.06 188.85,-417.06 195.15,-417.06"/>
</g>
<!-- c3 -->
<g id="node3" class="node">
<title>c3</title>
<path fill="#12351f" stroke="#3fb950" stroke-width="2" d="M283.5,-283.5C283.5,-283.5 100.5,-283.5 100.5,-283.5 94.5,-283.5 88.5,-277.5 88.5,-271.5 88.5,-271.5 88.5,-226.5 88.5,-226.5 88.5,-220.5 94.5,-214.5 100.5,-214.5 100.5,-214.5 283.5,-214.5 283.5,-214.5 289.5,-214.5 295.5,-220.5 295.5,-226.5 295.5,-226.5 295.5,-271.5 295.5,-271.5 295.5,-277.5 289.5,-283.5 283.5,-283.5"/>
<text text-anchor="middle" x="192" y="-260.3" font-family="Helvetica,sans-Serif" font-size="14.00" fill="#e6edf3">Auto&#45;pause.</text>
<text text-anchor="middle" x="192" y="-245.3" font-family="Helvetica,sans-Serif" font-size="14.00" fill="#e6edf3">Judge never called,</text>
<text text-anchor="middle" x="192" y="-230.3" font-family="Helvetica,sans-Serif" font-size="14.00" fill="#e6edf3">regardless of partial text.</text>
</g>
<!-- c2&#45;&gt;c3 -->
<g id="edge2" class="edge">
<title>c2&#45;&gt;c3</title>
<path fill="none" stroke="#8b949e" stroke-width="1.6" d="M192,-353.69C192,-336.27 192,-313.02 192,-292.95"/>
<polygon fill="#8b949e" stroke="#8b949e" stroke-width="1.6" points="195.15,-292.69 192,-283.69 188.85,-292.69 195.15,-292.69"/>
</g>
<!-- note -->
<g id="node9" class="node">
<title>note</title>
<polygon fill="#1f2937" stroke="#d29922" stroke-width="2" points="523.5,-144 208.5,-144 208.5,0 529.5,0 529.5,-138 523.5,-144"/>
<polyline fill="none" stroke="#d29922" stroke-width="2" points="523.5,-144 523.5,-138 "/>
<polyline fill="none" stroke="#d29922" stroke-width="2" points="529.5,-138 523.5,-138 "/>
<text text-anchor="middle" x="369" y="-120.8" font-family="Helvetica,sans-Serif" font-size="14.00" fill="#e6edf3">Confirmed by reading:</text>
<text text-anchor="middle" x="369" y="-105.8" font-family="Helvetica,sans-Serif" font-size="14.00" fill="#e6edf3">gateway/run.py (interrupted+api_calls&gt;0</text>
<text text-anchor="middle" x="369" y="-90.8" font-family="Helvetica,sans-Serif" font-size="14.00" fill="#e6edf3">still returns partial `response`)</text>
<text text-anchor="middle" x="369" y="-75.8" font-family="Helvetica,sans-Serif" font-size="14.00" fill="#e6edf3">+ gateway/run_goals.py</text>
<text text-anchor="middle" x="369" y="-60.8" font-family="Helvetica,sans-Serif" font-size="14.00" fill="#e6edf3">_final_text_for_post_turn_hooks()</text>
<text text-anchor="middle" x="369" y="-45.8" font-family="Helvetica,sans-Serif" font-size="14.00" fill="#e6edf3">+ gateway/run_inbound.py</text>
<text text-anchor="middle" x="369" y="-30.8" font-family="Helvetica,sans-Serif" font-size="14.00" fill="#e6edf3">(_run_post_turn_hooks called</text>
<text text-anchor="middle" x="369" y="-15.8" font-family="Helvetica,sans-Serif" font-size="14.00" fill="#e6edf3">unconditionally after every turn)</text>
</g>
<!-- c3&#45;&gt;note -->
<!-- g1 -->
<g id="node4" class="node">
<title>g1</title>
<path fill="#3b0d0d" stroke="#f85149" stroke-width="2" d="M609,-723C609,-723 483,-723 483,-723 477,-723 471,-717 471,-711 471,-711 471,-666 471,-666 471,-660 477,-654 483,-654 483,-654 609,-654 609,-654 615,-654 621,-660 621,-666 621,-666 621,-711 621,-711 621,-717 615,-723 609,-723"/>
<text text-anchor="middle" x="546" y="-699.8" font-family="Helvetica,sans-Serif" font-size="14.00" fill="#e6edf3">Turn interrupted,</text>
<text text-anchor="middle" x="546" y="-684.8" font-family="Helvetica,sans-Serif" font-size="14.00" fill="#e6edf3">api_calls &gt; 0</text>
<text text-anchor="middle" x="546" y="-669.8" font-family="Helvetica,sans-Serif" font-size="14.00" fill="#e6edf3">(did some work)</text>
</g>
<!-- g2 -->
<g id="node5" class="node">
<title>g2</title>
<path fill="#3b0d0d" stroke="#f85149" stroke-width="2" d="M665,-618C665,-618 427,-618 427,-618 421,-618 415,-612 415,-606 415,-606 415,-561 415,-561 415,-555 421,-549 427,-549 427,-549 665,-549 665,-549 671,-549 677,-555 677,-561 677,-561 677,-606 677,-606 677,-612 671,-618 665,-618"/>
<text text-anchor="middle" x="546" y="-594.8" font-family="Helvetica,sans-Serif" font-size="14.00" fill="#e6edf3">agent_result[&quot;interrupted&quot;]=True</text>
<text text-anchor="middle" x="546" y="-579.8" font-family="Helvetica,sans-Serif" font-size="14.00" fill="#e6edf3">but final_response may be</text>
<text text-anchor="middle" x="546" y="-564.8" font-family="Helvetica,sans-Serif" font-size="14.00" fill="#e6edf3">non&#45;empty partial text</text>
</g>
<!-- g1&#45;&gt;g2 -->
<g id="edge3" class="edge">
<title>g1&#45;&gt;g2</title>
<path fill="none" stroke="#8b949e" stroke-width="1.6" d="M546,-653.77C546,-645.33 546,-636.15 546,-627.33"/>
<polygon fill="#8b949e" stroke="#8b949e" stroke-width="1.6" points="549.15,-627.3 546,-618.3 542.85,-627.3 549.15,-627.3"/>
</g>
<!-- g3 -->
<g id="node6" class="node">
<title>g3</title>
<path fill="#3b0d0d" stroke="#f85149" stroke-width="2" d="M664,-513C664,-513 428,-513 428,-513 422,-513 416,-507 416,-501 416,-501 416,-456 416,-456 416,-450 422,-444 428,-444 428,-444 664,-444 664,-444 670,-444 676,-450 676,-456 676,-456 676,-501 676,-501 676,-507 670,-513 664,-513"/>
<text text-anchor="middle" x="546" y="-489.8" font-family="Helvetica,sans-Serif" font-size="14.00" fill="#e6edf3">_final_text_for_post_turn_hooks()</text>
<text text-anchor="middle" x="546" y="-474.8" font-family="Helvetica,sans-Serif" font-size="14.00" fill="#e6edf3">reads final_response directly —</text>
<text text-anchor="middle" x="546" y="-459.8" font-family="Helvetica,sans-Serif" font-size="14.00" fill="#e6edf3">no check of the interrupted flag</text>
</g>
<!-- g2&#45;&gt;g3 -->
<g id="edge4" class="edge">
<title>g2&#45;&gt;g3</title>
<path fill="none" stroke="#8b949e" stroke-width="1.6" d="M546,-548.77C546,-540.33 546,-531.15 546,-522.33"/>
<polygon fill="#8b949e" stroke="#8b949e" stroke-width="1.6" points="549.15,-522.3 546,-513.3 542.85,-522.3 549.15,-522.3"/>
</g>
<!-- g4 -->
<g id="node7" class="node">
<title>g4</title>
<path fill="#3b0d0d" stroke="#f85149" stroke-width="2" d="M656,-408C656,-408 436,-408 436,-408 430,-408 424,-402 424,-396 424,-396 424,-366 424,-366 424,-360 430,-354 436,-354 436,-354 656,-354 656,-354 662,-354 668,-360 668,-366 668,-366 668,-396 668,-396 668,-402 662,-408 656,-408"/>
<text text-anchor="middle" x="546" y="-384.8" font-family="Helvetica,sans-Serif" font-size="14.00" fill="#e6edf3">final_text.strip() is non&#45;empty</text>
<text text-anchor="middle" x="546" y="-369.8" font-family="Helvetica,sans-Serif" font-size="14.00" fill="#e6edf3">→ goal&#45;continuation hook runs</text>
</g>
<!-- g3&#45;&gt;g4 -->
<g id="edge5" class="edge">
<title>g3&#45;&gt;g4</title>
<path fill="none" stroke="#8b949e" stroke-width="1.6" d="M546,-443.83C546,-435.23 546,-425.97 546,-417.29"/>
<polygon fill="#8b949e" stroke="#8b949e" stroke-width="1.6" points="549.15,-417.17 546,-408.17 542.85,-417.17 549.15,-417.17"/>
</g>
<!-- g5 -->
<g id="node8" class="node">
<title>g5</title>
<path fill="#3b0d0d" stroke="#f85149" stroke-width="3" d="M534.52,-314.5C534.52,-314.5 331.48,-252.5 331.48,-252.5 325.74,-250.75 325.74,-247.25 331.48,-245.5 331.48,-245.5 534.52,-183.5 534.52,-183.5 540.26,-181.75 551.74,-181.75 557.48,-183.5 557.48,-183.5 760.52,-245.5 760.52,-245.5 766.26,-247.25 766.26,-250.75 760.52,-252.5 760.52,-252.5 557.48,-314.5 557.48,-314.5 551.74,-316.25 540.26,-316.25 534.52,-314.5"/>
<text text-anchor="middle" x="546" y="-260.3" font-family="Helvetica,sans-Serif" font-size="14.00" fill="#e6edf3">Judge is called on</text>
<text text-anchor="middle" x="546" y="-245.3" font-family="Helvetica,sans-Serif" font-size="14.00" fill="#e6edf3">PARTIAL, interrupted output</text>
<text text-anchor="middle" x="546" y="-230.3" font-family="Helvetica,sans-Serif" font-size="14.00" fill="#e6edf3">as if it were a finished turn</text>
</g>
<!-- g4&#45;&gt;g5 -->
<g id="edge6" class="edge">
<title>g4&#45;&gt;g5</title>
<path fill="none" stroke="#8b949e" stroke-width="1.6" d="M546,-353.69C546,-345.82 546,-336.76 546,-327.34"/>
<polygon fill="#8b949e" stroke="#8b949e" stroke-width="1.6" points="549.15,-327.22 546,-318.22 542.85,-327.22 549.15,-327.22"/>
</g>
<!-- g5&#45;&gt;note -->
</g>
</svg>
