<?xml version="1.0" encoding="UTF-8" standalone="no"?>
<!DOCTYPE svg PUBLIC "-//W3C//DTD SVG 1.1//EN"
 "http://www.w3.org/Graphics/SVG/1.1/DTD/svg11.dtd">
<!-- Generated by graphviz version 2.43.0 (0)
 -->
<!-- Title: deferral_rate_baseline_methodology Pages: 1 -->
<svg width="1097pt" height="342pt"
 viewBox="0.00 0.00 1097.00 342.00" xmlns="http://www.w3.org/2000/svg" xmlns:xlink="http://www.w3.org/1999/xlink">
<g id="graph0" class="graph" transform="scale(1 1) rotate(0) translate(4 338)">
<title>deferral_rate_baseline_methodology</title>
<polygon fill="#0d1117" stroke="transparent" points="-4,4 -4,-338 1093,-338 1093,4 -4,4"/>
<text text-anchor="middle" x="544.5" y="-314" font-family="Helvetica,sans-Serif" font-size="20.00" fill="#e6edf3">A reusable deferral&#45;rate methodology (not just for the VRAM&#45;tag comparison)</text>
<!-- raw -->
<g id="node1" class="node">
<title>raw</title>
<path fill="#13294d" stroke="#58a6ff" stroke-width="2" d="M163.5,-241.5C163.5,-241.5 31.5,-241.5 31.5,-241.5 25.5,-241.5 19.5,-235.5 19.5,-229.5 19.5,-229.5 19.5,-154.5 19.5,-154.5 19.5,-148.5 25.5,-142.5 31.5,-142.5 31.5,-142.5 163.5,-142.5 163.5,-142.5 169.5,-142.5 175.5,-148.5 175.5,-154.5 175.5,-154.5 175.5,-229.5 175.5,-229.5 175.5,-235.5 169.5,-241.5 163.5,-241.5"/>
<text text-anchor="middle" x="97.5" y="-218.3" font-family="Helvetica,sans-Serif" font-size="14.00" fill="#e6edf3">Raw counts:</text>
<text text-anchor="middle" x="97.5" y="-203.3" font-family="Helvetica,sans-Serif" font-size="14.00" fill="#e6edf3">interrupted turns,</text>
<text text-anchor="middle" x="97.5" y="-188.3" font-family="Helvetica,sans-Serif" font-size="14.00" fill="#e6edf3">reasoning&#45;stalls,</text>
<text text-anchor="middle" x="97.5" y="-173.3" font-family="Helvetica,sans-Serif" font-size="14.00" fill="#e6edf3">nudge collisions</text>
<text text-anchor="middle" x="97.5" y="-158.3" font-family="Helvetica,sans-Serif" font-size="14.00" fill="#e6edf3">(grep agent.log)</text>
</g>
<!-- rate -->
<g id="node3" class="node">
<title>rate</title>
<path fill="#1f2937" stroke="#d29922" stroke-width="2" d="M383.33,-215.5C383.33,-215.5 241.67,-142.5 241.67,-142.5 236.33,-139.75 236.33,-134.25 241.67,-131.5 241.67,-131.5 383.33,-58.5 383.33,-58.5 388.67,-55.75 399.33,-55.75 404.67,-58.5 404.67,-58.5 546.33,-131.5 546.33,-131.5 551.67,-134.25 551.67,-139.75 546.33,-142.5 546.33,-142.5 404.67,-215.5 404.67,-215.5 399.33,-218.25 388.67,-218.25 383.33,-215.5"/>
<text text-anchor="middle" x="394" y="-155.8" font-family="Helvetica,sans-Serif" font-size="14.00" fill="#e6edf3">Rate = raw count /</text>
<text text-anchor="middle" x="394" y="-140.8" font-family="Helvetica,sans-Serif" font-size="14.00" fill="#e6edf3">output volume</text>
<text text-anchor="middle" x="394" y="-125.8" font-family="Helvetica,sans-Serif" font-size="14.00" fill="#e6edf3">(per 1000 tokens,</text>
<text text-anchor="middle" x="394" y="-110.8" font-family="Helvetica,sans-Serif" font-size="14.00" fill="#e6edf3">or per 100 turns)</text>
</g>
<!-- raw&#45;&gt;rate -->
<g id="edge1" class="edge">
<title>raw&#45;&gt;rate</title>
<path fill="none" stroke="#8b949e" stroke-width="1.6" d="M175.88,-177.55C203.18,-172.45 234.65,-166.57 265.01,-160.9"/>
<polygon fill="#8b949e" stroke="#8b949e" stroke-width="1.6" points="265.69,-163.98 273.96,-159.23 264.53,-157.79 265.69,-163.98"/>
</g>
<!-- vol -->
<g id="node2" class="node">
<title>vol</title>
<path fill="#0d2e2e" stroke="#39c5cf" stroke-width="2" d="M183,-124C183,-124 12,-124 12,-124 6,-124 0,-118 0,-112 0,-112 0,-52 0,-52 0,-46 6,-40 12,-40 12,-40 183,-40 183,-40 189,-40 195,-46 195,-52 195,-52 195,-112 195,-112 195,-118 189,-124 183,-124"/>
<text text-anchor="middle" x="97.5" y="-100.8" font-family="Helvetica,sans-Serif" font-size="14.00" fill="#e6edf3">Output volume for</text>
<text text-anchor="middle" x="97.5" y="-85.8" font-family="Helvetica,sans-Serif" font-size="14.00" fill="#e6edf3">the same window:</text>
<text text-anchor="middle" x="97.5" y="-70.8" font-family="Helvetica,sans-Serif" font-size="14.00" fill="#e6edf3">total completion tokens</text>
<text text-anchor="middle" x="97.5" y="-55.8" font-family="Helvetica,sans-Serif" font-size="14.00" fill="#e6edf3">or total turns</text>
</g>
<!-- vol&#45;&gt;rate -->
<g id="edge2" class="edge">
<title>vol&#45;&gt;rate</title>
<path fill="none" stroke="#8b949e" stroke-width="1.6" d="M195.34,-100.09C217.64,-104.25 241.69,-108.74 265.08,-113.11"/>
<polygon fill="#8b949e" stroke="#8b949e" stroke-width="1.6" points="264.58,-116.22 274.01,-114.78 265.74,-110.03 264.58,-116.22"/>
</g>
<!-- compare -->
<g id="node4" class="node">
<title>compare</title>
<path fill="#12351f" stroke="#3fb950" stroke-width="2" d="M790,-186.5C790,-186.5 605,-186.5 605,-186.5 599,-186.5 593,-180.5 593,-174.5 593,-174.5 593,-99.5 593,-99.5 593,-93.5 599,-87.5 605,-87.5 605,-87.5 790,-87.5 790,-87.5 796,-87.5 802,-93.5 802,-99.5 802,-99.5 802,-174.5 802,-174.5 802,-180.5 796,-186.5 790,-186.5"/>
<text text-anchor="middle" x="697.5" y="-163.3" font-family="Helvetica,sans-Serif" font-size="14.00" fill="#e6edf3">Now comparable across:</text>
<text text-anchor="middle" x="697.5" y="-148.3" font-family="Helvetica,sans-Serif" font-size="14.00" fill="#e6edf3">any two models, any two</text>
<text text-anchor="middle" x="697.5" y="-133.3" font-family="Helvetica,sans-Serif" font-size="14.00" fill="#e6edf3">config changes, any two</text>
<text text-anchor="middle" x="697.5" y="-118.3" font-family="Helvetica,sans-Serif" font-size="14.00" fill="#e6edf3">time windows — not just</text>
<text text-anchor="middle" x="697.5" y="-103.3" font-family="Helvetica,sans-Serif" font-size="14.00" fill="#e6edf3">VRAM&#45;tuned vs. plain tag</text>
</g>
<!-- rate&#45;&gt;compare -->
<g id="edge3" class="edge">
<title>rate&#45;&gt;compare</title>
<path fill="none" stroke="#8b949e" stroke-width="1.6" d="M557.22,-137C566.22,-137 575.17,-137 583.93,-137"/>
<polygon fill="#8b949e" stroke="#8b949e" stroke-width="1.6" points="583.99,-140.15 592.99,-137 583.99,-133.85 583.99,-140.15"/>
</g>
<!-- pitfall -->
<g id="node5" class="node">
<title>pitfall</title>
<polygon fill="#161b22" stroke="#f0883e" stroke-width="2" points="1083,-304 838,-304 838,-190 1089,-190 1089,-298 1083,-304"/>
<polyline fill="none" stroke="#f0883e" stroke-width="2" points="1083,-304 1083,-298 "/>
<polyline fill="none" stroke="#f0883e" stroke-width="2" points="1089,-298 1083,-298 "/>
<text text-anchor="middle" x="963.5" y="-280.8" font-family="Helvetica,sans-Serif" font-size="14.00" fill="#e6edf3">Pitfall this avoids:</text>
<text text-anchor="middle" x="963.5" y="-265.8" font-family="Helvetica,sans-Serif" font-size="14.00" fill="#e6edf3">a longer&#45;running arm</text>
<text text-anchor="middle" x="963.5" y="-250.8" font-family="Helvetica,sans-Serif" font-size="14.00" fill="#e6edf3">accumulates more RAW events</text>
<text text-anchor="middle" x="963.5" y="-235.8" font-family="Helvetica,sans-Serif" font-size="14.00" fill="#e6edf3">regardless of underlying risk —</text>
<text text-anchor="middle" x="963.5" y="-220.8" font-family="Helvetica,sans-Serif" font-size="14.00" fill="#e6edf3">the original round&#45;0 model</text>
<text text-anchor="middle" x="963.5" y="-205.8" font-family="Helvetica,sans-Serif" font-size="14.00" fill="#e6edf3">comparison used raw counts</text>
</g>
<!-- compare&#45;&gt;pitfall -->
<g id="edge4" class="edge">
<title>compare&#45;&gt;pitfall</title>
<path fill="none" stroke="#8b949e" stroke-width="1.6" stroke-dasharray="5,2" d="M802.08,-180.16C811.04,-183.89 820.18,-187.7 829.33,-191.51"/>
<polygon fill="#8b949e" stroke="#8b949e" stroke-width="1.6" points="828.21,-194.46 837.73,-195.01 830.64,-188.64 828.21,-194.46"/>
</g>
<!-- reuse1 -->
<g id="node6" class="node">
<title>reuse1</title>
<path fill="#241a3d" stroke="#bc8cff" stroke-width="2" d="M1075.5,-171.5C1075.5,-171.5 851.5,-171.5 851.5,-171.5 845.5,-171.5 839.5,-165.5 839.5,-159.5 839.5,-159.5 839.5,-114.5 839.5,-114.5 839.5,-108.5 845.5,-102.5 851.5,-102.5 851.5,-102.5 1075.5,-102.5 1075.5,-102.5 1081.5,-102.5 1087.5,-108.5 1087.5,-114.5 1087.5,-114.5 1087.5,-159.5 1087.5,-159.5 1087.5,-165.5 1081.5,-171.5 1075.5,-171.5"/>
<text text-anchor="middle" x="963.5" y="-148.3" font-family="Helvetica,sans-Serif" font-size="14.00" fill="#e6edf3">Reused by:</text>
<text text-anchor="middle" x="963.5" y="-133.3" font-family="Helvetica,sans-Serif" font-size="14.00" fill="#e6edf3">vram_tag_comparison_protocol</text>
<text text-anchor="middle" x="963.5" y="-118.3" font-family="Helvetica,sans-Serif" font-size="14.00" fill="#e6edf3">(round 1)</text>
</g>
<!-- compare&#45;&gt;reuse1 -->
<g id="edge5" class="edge">
<title>compare&#45;&gt;reuse1</title>
<path fill="none" stroke="#8b949e" stroke-width="1.6" d="M802.08,-137C811.39,-137 820.89,-137 830.39,-137"/>
<polygon fill="#8b949e" stroke="#8b949e" stroke-width="1.6" points="830.5,-140.15 839.5,-137 830.5,-133.85 830.5,-140.15"/>
</g>
<!-- reuse2 -->
<g id="node7" class="node">
<title>reuse2</title>
<path fill="#241a3d" stroke="#bc8cff" stroke-width="2" d="M1051,-84C1051,-84 876,-84 876,-84 870,-84 864,-78 864,-72 864,-72 864,-12 864,-12 864,-6 870,0 876,0 876,0 1051,0 1051,0 1057,0 1063,-6 1063,-12 1063,-12 1063,-72 1063,-72 1063,-78 1057,-84 1051,-84"/>
<text text-anchor="middle" x="963.5" y="-60.8" font-family="Helvetica,sans-Serif" font-size="14.00" fill="#e6edf3">Reusable for:</text>
<text text-anchor="middle" x="963.5" y="-45.8" font-family="Helvetica,sans-Serif" font-size="14.00" fill="#e6edf3">any future</text>
<text text-anchor="middle" x="963.5" y="-30.8" font-family="Helvetica,sans-Serif" font-size="14.00" fill="#e6edf3">nudge&#45;scheduler&#45;fix</text>
<text text-anchor="middle" x="963.5" y="-15.8" font-family="Helvetica,sans-Serif" font-size="14.00" fill="#e6edf3">before/after comparison</text>
</g>
<!-- compare&#45;&gt;reuse2 -->
<g id="edge6" class="edge">
<title>compare&#45;&gt;reuse2</title>
<path fill="none" stroke="#8b949e" stroke-width="1.6" d="M802.08,-99.73C819.59,-93.43 837.79,-86.88 855.38,-80.55"/>
<polygon fill="#8b949e" stroke="#8b949e" stroke-width="1.6" points="856.56,-83.47 863.96,-77.46 854.43,-77.54 856.56,-83.47"/>
</g>
</g>
</svg>
