<?xml version="1.0" encoding="UTF-8" standalone="no"?>
<!DOCTYPE svg PUBLIC "-//W3C//DTD SVG 1.1//EN"
 "http://www.w3.org/Graphics/SVG/1.1/DTD/svg11.dtd">
<!-- Generated by graphviz version 2.43.0 (0)
 -->
<!-- Title: corrected_mechanism Pages: 1 -->
<svg width="747pt" height="792pt"
 viewBox="0.00 0.00 747.00 791.62" xmlns="http://www.w3.org/2000/svg" xmlns:xlink="http://www.w3.org/1999/xlink">
<g id="graph0" class="graph" transform="scale(1 1) rotate(0) translate(4 787.62)">
<title>corrected_mechanism</title>
<polygon fill="#0d1117" stroke="transparent" points="-4,4 -4,-787.62 743,-787.62 743,4 -4,4"/>
<text text-anchor="middle" x="369.5" y="-763.62" font-family="Helvetica,sans-Serif" font-size="20.00" fill="#e6edf3">Building on rollout 21&#39;s correction, then finding a genuinely separate bug</text>
<g id="clust1" class="cluster">
<title>cluster_rollout21</title>
<polygon fill="#0d1117" stroke="#bc8cff" stroke-dasharray="5,2" points="137,-483.62 137,-745.62 583,-745.62 583,-483.62 137,-483.62"/>
<text text-anchor="middle" x="360" y="-725.62" font-family="Helvetica,sans-Serif" font-size="20.00" fill="#bc8cff">Already established (rollout 21,</text>
<text text-anchor="middle" x="360" y="-703.62" font-family="Helvetica,sans-Serif" font-size="20.00" fill="#bc8cff">background_review_subsystem_deep_dive)</text>
</g>
<g id="clust2" class="cluster">
<title>cluster_this_session</title>
<polygon fill="#0d1117" stroke="#39c5cf" stroke-dasharray="5,2" points="59,-150.62 59,-435.62 680,-435.62 680,-150.62 59,-150.62"/>
<text text-anchor="middle" x="369.5" y="-415.62" font-family="Helvetica,sans-Serif" font-size="20.00" fill="#39c5cf">This session&#39;s follow&#45;up</text>
</g>
<!-- r21_a -->
<g id="node1" class="node">
<title>r21_a</title>
<path fill="#161b22" stroke="#bc8cff" stroke-width="2" d="M507.5,-685.62C507.5,-685.62 212.5,-685.62 212.5,-685.62 206.5,-685.62 200.5,-679.62 200.5,-673.62 200.5,-673.62 200.5,-611.62 200.5,-611.62 200.5,-605.62 206.5,-599.62 212.5,-599.62 212.5,-599.62 507.5,-599.62 507.5,-599.62 513.5,-599.62 519.5,-605.62 519.5,-611.62 519.5,-611.62 519.5,-673.62 519.5,-673.62 519.5,-679.62 513.5,-685.62 507.5,-685.62"/>
<text text-anchor="middle" x="360" y="-661.42" font-family="Helvetica,sans-Serif" font-size="14.00" fill="#e6edf3">The review fork is CANCELLED by</text>
<text text-anchor="middle" x="360" y="-646.42" font-family="Helvetica,sans-Serif" font-size="14.00" fill="#e6edf3">the next live turn, not the reverse</text>
<text text-anchor="middle" x="360" y="-631.42" font-family="Helvetica,sans-Serif" font-size="14.00" fill="#e6edf3">(cancel_background_review_for_live_turn</text>
<text text-anchor="middle" x="360" y="-616.42" font-family="Helvetica,sans-Serif" font-size="14.00" fill="#e6edf3">runs first thing in every live turn)</text>
</g>
<!-- r21_b -->
<g id="node2" class="node">
<title>r21_b</title>
<path fill="#1f2937" stroke="#d29922" stroke-width="2" d="M499.5,-562.62C499.5,-562.62 220.5,-562.62 220.5,-562.62 214.5,-562.62 208.5,-556.62 208.5,-550.62 208.5,-550.62 208.5,-503.62 208.5,-503.62 208.5,-497.62 214.5,-491.62 220.5,-491.62 220.5,-491.62 499.5,-491.62 499.5,-491.62 505.5,-491.62 511.5,-497.62 511.5,-503.62 511.5,-503.62 511.5,-550.62 511.5,-550.62 511.5,-556.62 505.5,-562.62 499.5,-562.62"/>
<text text-anchor="middle" x="360" y="-538.42" font-family="Helvetica,sans-Serif" font-size="14.00" fill="#e6edf3">Flagged as NOT traced:</text>
<text text-anchor="middle" x="360" y="-523.42" font-family="Helvetica,sans-Serif" font-size="14.00" fill="#e6edf3">agent/review_idle_queue.py</text>
<text text-anchor="middle" x="360" y="-508.42" font-family="Helvetica,sans-Serif" font-size="14.00" fill="#e6edf3">(the defer/managed&#45;local gating logic)</text>
</g>
<!-- r21_a&#45;&gt;r21_b -->
<g id="edge1" class="edge">
<title>r21_a&#45;&gt;r21_b</title>
<path fill="none" stroke="#8b949e" stroke-width="1.6" d="M360,-599.36C360,-590.38 360,-580.88 360,-571.84"/>
<polygon fill="#8b949e" stroke="#8b949e" stroke-width="1.6" points="363.15,-571.64 360,-562.64 356.85,-571.64 363.15,-571.64"/>
</g>
<!-- gap_closed -->
<g id="node3" class="node">
<title>gap_closed</title>
<path fill="#0d2e2e" stroke="#39c5cf" stroke-width="2" d="M659.5,-390.12C659.5,-390.12 382.5,-390.12 382.5,-390.12 376.5,-390.12 370.5,-384.12 370.5,-378.12 370.5,-378.12 370.5,-301.12 370.5,-301.12 370.5,-295.12 376.5,-289.12 382.5,-289.12 382.5,-289.12 659.5,-289.12 659.5,-289.12 665.5,-289.12 671.5,-295.12 671.5,-301.12 671.5,-301.12 671.5,-378.12 671.5,-378.12 671.5,-384.12 665.5,-390.12 659.5,-390.12"/>
<text text-anchor="middle" x="521" y="-365.92" font-family="Helvetica,sans-Serif" font-size="14.00" fill="#e6edf3">Closed rollout 21&#39;s flagged gap:</text>
<text text-anchor="middle" x="521" y="-350.92" font-family="Helvetica,sans-Serif" font-size="14.00" fill="#e6edf3">review_targets_managed_local() only</text>
<text text-anchor="middle" x="521" y="-335.92" font-family="Helvetica,sans-Serif" font-size="14.00" fill="#e6edf3">recognizes Hermes&#39;s OWN supervised</text>
<text text-anchor="middle" x="521" y="-320.92" font-family="Helvetica,sans-Serif" font-size="14.00" fill="#e6edf3">llama&#45;server — reads False for a</text>
<text text-anchor="middle" x="521" y="-305.92" font-family="Helvetica,sans-Serif" font-size="14.00" fill="#e6edf3">plain Ollama daemon</text>
</g>
<!-- r21_b&#45;&gt;gap_closed -->
<g id="edge2" class="edge">
<title>r21_b&#45;&gt;gap_closed</title>
<path fill="none" stroke="#39c5cf" stroke-width="1.6" d="M397.66,-491.49C403.6,-485.66 409.57,-479.56 415,-473.62 436.94,-449.63 459.62,-421.67 478.34,-397.6"/>
<polygon fill="#39c5cf" stroke="#39c5cf" stroke-width="1.6" points="481,-399.31 484.02,-390.26 476.02,-395.45 481,-399.31"/>
<text text-anchor="middle" x="514" y="-454.92" font-family="Helvetica,sans-Serif" font-size="14.00" fill="#adbac7"> &#160;read the flagged file</text>
</g>
<!-- separate_bug -->
<g id="node4" class="node">
<title>separate_bug</title>
<path fill="#161b22" stroke="#f0883e" stroke-width="3" d="M340.5,-397.62C340.5,-397.62 79.5,-397.62 79.5,-397.62 73.5,-397.62 67.5,-391.62 67.5,-385.62 67.5,-385.62 67.5,-293.62 67.5,-293.62 67.5,-287.62 73.5,-281.62 79.5,-281.62 79.5,-281.62 340.5,-281.62 340.5,-281.62 346.5,-281.62 352.5,-287.62 352.5,-293.62 352.5,-293.62 352.5,-385.62 352.5,-385.62 352.5,-391.62 346.5,-397.62 340.5,-397.62"/>
<text text-anchor="middle" x="210" y="-373.42" font-family="Helvetica,sans-Serif" font-size="14.00" fill="#e6edf3">Found a SEPARATE bug, orthogonal</text>
<text text-anchor="middle" x="210" y="-358.42" font-family="Helvetica,sans-Serif" font-size="14.00" fill="#e6edf3">to the nudge/review mechanism:</text>
<text text-anchor="middle" x="210" y="-343.42" font-family="Helvetica,sans-Serif" font-size="14.00" fill="#e6edf3">self._last_turn_interrupted collapses</text>
<text text-anchor="middle" x="210" y="-328.42" font-family="Helvetica,sans-Serif" font-size="14.00" fill="#e6edf3">genuine Ctrl+C and SYSTEM&#45;issued</text>
<text text-anchor="middle" x="210" y="-313.42" font-family="Helvetica,sans-Serif" font-size="14.00" fill="#e6edf3">aborts (watchdog / lease / timeout)</text>
<text text-anchor="middle" x="210" y="-298.42" font-family="Helvetica,sans-Serif" font-size="14.00" fill="#e6edf3">into one boolean</text>
</g>
<!-- r21_b&#45;&gt;separate_bug -->
<g id="edge3" class="edge">
<title>r21_b&#45;&gt;separate_bug</title>
<path fill="none" stroke="#f0883e" stroke-width="1.6" stroke-dasharray="5,2" d="M291.08,-491.46C283.78,-486.1 276.89,-480.15 271,-473.62 253.65,-454.39 240.44,-429.37 230.83,-406.23"/>
<polygon fill="#f0883e" stroke="#f0883e" stroke-width="1.6" points="233.73,-404.99 227.45,-397.81 227.88,-407.33 233.73,-404.99"/>
<text text-anchor="middle" x="343" y="-462.42" font-family="Helvetica,sans-Serif" font-size="14.00" fill="#adbac7"> &#160;while investigating</text>
<text text-anchor="middle" x="343" y="-447.42" font-family="Helvetica,sans-Serif" font-size="14.00" fill="#adbac7"> &#160;the same symptom</text>
</g>
<!-- verdict -->
<g id="node6" class="node">
<title>verdict</title>
<ellipse fill="#12351f" stroke="#3fb950" stroke-width="3" cx="402" cy="-60.81" rx="227.88" ry="60.62"/>
<text text-anchor="middle" x="402" y="-79.61" font-family="Helvetica,sans-Serif" font-size="14.00" fill="#e6edf3">Two independent fixes, not one:</text>
<text text-anchor="middle" x="402" y="-64.61" font-family="Helvetica,sans-Serif" font-size="14.00" fill="#e6edf3">(1) classify+retry the interrupt itself</text>
<text text-anchor="middle" x="402" y="-49.61" font-family="Helvetica,sans-Serif" font-size="14.00" fill="#e6edf3">(2) close review_idle_queue&#39;s Ollama gap</text>
<text text-anchor="middle" x="402" y="-34.61" font-family="Helvetica,sans-Serif" font-size="14.00" fill="#e6edf3">so the watchdog trips less often</text>
</g>
<!-- gap_closed&#45;&gt;verdict -->
<g id="edge5" class="edge">
<title>gap_closed&#45;&gt;verdict</title>
<path fill="none" stroke="#3fb950" stroke-width="1.6" d="M502.49,-289.09C487.92,-250.91 466.7,-196.99 446,-150.62 442.93,-143.73 439.61,-136.6 436.23,-129.51"/>
<polygon fill="#3fb950" stroke="#3fb950" stroke-width="1.6" points="438.99,-127.96 432.25,-121.21 433.31,-130.69 438.99,-127.96"/>
</g>
<!-- data_existed -->
<g id="node5" class="node">
<title>data_existed</title>
<path fill="#161b22" stroke="#f85149" stroke-width="2" d="M425,-244.62C425,-244.62 179,-244.62 179,-244.62 173,-244.62 167,-238.62 167,-232.62 167,-232.62 167,-170.62 167,-170.62 167,-164.62 173,-158.62 179,-158.62 179,-158.62 425,-158.62 425,-158.62 431,-158.62 437,-164.62 437,-170.62 437,-170.62 437,-232.62 437,-232.62 437,-238.62 431,-244.62 425,-244.62"/>
<text text-anchor="middle" x="302" y="-220.42" font-family="Helvetica,sans-Serif" font-size="14.00" fill="#e6edf3">turn.result[&#39;turn_exit_reason&#39;]</text>
<text text-anchor="middle" x="302" y="-205.42" font-family="Helvetica,sans-Serif" font-size="14.00" fill="#e6edf3">already carried the distinguishing</text>
<text text-anchor="middle" x="302" y="-190.42" font-family="Helvetica,sans-Serif" font-size="14.00" fill="#e6edf3">issuer slug — just never read by</text>
<text text-anchor="middle" x="302" y="-175.42" font-family="Helvetica,sans-Serif" font-size="14.00" fill="#e6edf3">the goal&#45;continuation hook</text>
</g>
<!-- separate_bug&#45;&gt;data_existed -->
<g id="edge4" class="edge">
<title>separate_bug&#45;&gt;data_existed</title>
<path fill="none" stroke="#8b949e" stroke-width="1.6" d="M248.75,-281.34C255.19,-271.81 261.84,-262 268.15,-252.67"/>
<polygon fill="#8b949e" stroke="#8b949e" stroke-width="1.6" points="270.93,-254.18 273.36,-244.96 265.71,-250.65 270.93,-254.18"/>
</g>
<!-- data_existed&#45;&gt;verdict -->
<g id="edge6" class="edge">
<title>data_existed&#45;&gt;verdict</title>
<path fill="none" stroke="#3fb950" stroke-width="1.6" d="M332.27,-158.6C339.21,-148.97 346.76,-138.5 354.23,-128.12"/>
<polygon fill="#3fb950" stroke="#3fb950" stroke-width="1.6" points="356.95,-129.74 359.65,-120.59 351.84,-126.05 356.95,-129.74"/>
</g>
</g>
</svg>
