<?xml version="1.0" encoding="UTF-8" standalone="no"?>
<!DOCTYPE svg PUBLIC "-//W3C//DTD SVG 1.1//EN"
 "http://www.w3.org/Graphics/SVG/1.1/DTD/svg11.dtd">
<!-- Generated by graphviz version 14.1.2 (0)
 -->
<!-- Title: turn_exit_reason_classification Pages: 1 -->
<svg width="992pt" height="536pt"
 viewBox="0.00 0.00 992.00 536.00" xmlns="http://www.w3.org/2000/svg" xmlns:xlink="http://www.w3.org/1999/xlink">
<g id="graph0" class="graph" transform="scale(1 1) rotate(0) translate(4 532.02)">
<title>turn_exit_reason_classification</title>
<polygon fill="#0d1117" stroke="none" points="-4,4 -4,-532.02 988,-532.02 988,4 -4,4"/>
<text xml:space="preserve" text-anchor="middle" x="492" y="-505.02" font-family="Helvetica,sans-Serif" font-size="20.00" fill="#e6edf3">classify_interrupt_reason(turn_exit_reason) &#45;&gt; (is_system_issued, issuer)</text>
<!-- input -->
<g id="node1" class="node">
<title>input</title>
<ellipse fill="#13294d" stroke="#58a6ff" stroke-width="2" cx="429" cy="-441.1" rx="186.15" ry="54.92"/>
<text xml:space="preserve" text-anchor="middle" x="429" y="-453.68" font-family="Helvetica,sans-Serif" font-size="14.00" fill="#e6edf3">turn_exit_reason string</text>
<text xml:space="preserve" text-anchor="middle" x="429" y="-436.43" font-family="Helvetica,sans-Serif" font-size="14.00" fill="#e6edf3">(from self._last_turn_result,</text>
<text xml:space="preserve" text-anchor="middle" x="429" y="-419.18" font-family="Helvetica,sans-Serif" font-size="14.00" fill="#e6edf3">already frozen before hooks run)</text>
</g>
<!-- re -->
<g id="node2" class="node">
<title>re</title>
<path fill="#1f2937" stroke="#d29922" stroke-width="2" d="M417.06,-347.98C417.06,-347.98 11.94,-307.21 11.94,-307.21 5.97,-306.61 5.97,-305.41 11.94,-304.81 11.94,-304.81 417.06,-264.04 417.06,-264.04 423.03,-263.44 434.97,-263.44 440.94,-264.04 440.94,-264.04 846.06,-304.81 846.06,-304.81 852.03,-305.41 852.03,-306.61 846.06,-307.21 846.06,-307.21 440.94,-347.98 440.94,-347.98 434.97,-348.58 423.03,-348.58 417.06,-347.98"/>
<text xml:space="preserve" text-anchor="middle" x="429" y="-301.34" font-family="Helvetica,sans-Serif" font-size="14.00" fill="#e6edf3">regex: ^interrupted_(by_system|during_api_call)\((.+)\)$</text>
</g>
<!-- input&#45;&gt;re -->
<g id="edge1" class="edge">
<title>input&#45;&gt;re</title>
<path fill="none" stroke="#8b949e" stroke-width="1.6" d="M429,-385.2C429,-377.31 429,-369.19 429,-361.32"/>
<polygon fill="#8b949e" stroke="#8b949e" stroke-width="1.6" points="432.15,-361.42 429,-352.42 425.85,-361.42 432.15,-361.42"/>
</g>
<!-- matched -->
<g id="node3" class="node">
<title>matched</title>
<path fill="#161b22" stroke="#f0883e" stroke-width="2" d="M320.88,-192.34C320.88,-192.34 47.12,-192.34 47.12,-192.34 41.12,-192.34 35.12,-186.34 35.12,-180.34 35.12,-180.34 35.12,-161.17 35.12,-161.17 35.12,-155.17 41.12,-149.17 47.12,-149.17 47.12,-149.17 320.88,-149.17 320.88,-149.17 326.88,-149.17 332.88,-155.17 332.88,-161.17 332.88,-161.17 332.88,-180.34 332.88,-180.34 332.88,-186.34 326.88,-192.34 320.88,-192.34"/>
<text xml:space="preserve" text-anchor="middle" x="184" y="-166.08" font-family="Helvetica,sans-Serif" font-size="14.00" fill="#e6edf3">Matched — has a parenthetical issuer</text>
</g>
<!-- re&#45;&gt;matched -->
<g id="edge2" class="edge">
<title>re&#45;&gt;matched</title>
<path fill="none" stroke="#f0883e" stroke-width="1.6" d="M362.05,-268.6C321.21,-246.39 269.93,-218.49 232.9,-198.35"/>
<polygon fill="#f0883e" stroke="#f0883e" stroke-width="1.6" points="234.87,-195.84 225.46,-194.3 231.86,-201.37 234.87,-195.84"/>
<text xml:space="preserve" text-anchor="middle" x="325.85" y="-231.54" font-family="Helvetica,sans-Serif" font-size="14.00" fill="#adbac7">yes</text>
</g>
<!-- unmatched -->
<g id="node5" class="node">
<title>unmatched</title>
<path fill="#1f2937" stroke="#3fb950" stroke-width="2" d="M468.38,-192.34C468.38,-192.34 389.62,-192.34 389.62,-192.34 383.62,-192.34 377.62,-186.34 377.62,-180.34 377.62,-180.34 377.62,-161.17 377.62,-161.17 377.62,-155.17 383.62,-149.17 389.62,-149.17 389.62,-149.17 468.38,-149.17 468.38,-149.17 474.38,-149.17 480.38,-155.17 480.38,-161.17 480.38,-161.17 480.38,-180.34 480.38,-180.34 480.38,-186.34 474.38,-192.34 468.38,-192.34"/>
<text xml:space="preserve" text-anchor="middle" x="429" y="-166.08" font-family="Helvetica,sans-Serif" font-size="14.00" fill="#e6edf3">No match</text>
</g>
<!-- re&#45;&gt;unmatched -->
<g id="edge4" class="edge">
<title>re&#45;&gt;unmatched</title>
<path fill="none" stroke="#3fb950" stroke-width="1.6" d="M429,-262.11C429,-243.44 429,-221.92 429,-204.56"/>
<polygon fill="#3fb950" stroke="#3fb950" stroke-width="1.6" points="432.15,-204.71 429,-195.71 425.85,-204.71 432.15,-204.71"/>
<text xml:space="preserve" text-anchor="middle" x="437.62" y="-231.54" font-family="Helvetica,sans-Serif" font-size="14.00" fill="#adbac7">no</text>
</g>
<!-- why -->
<g id="node8" class="node">
<title>why</title>
<polygon fill="#161b22" stroke="#39c5cf" stroke-width="2" points="978,-209.59 498,-209.59 498,-131.92 984,-131.92 984,-203.59 978,-209.59"/>
<polyline fill="none" stroke="#39c5cf" stroke-width="2" points="978,-209.59 978,-203.59"/>
<polyline fill="none" stroke="#39c5cf" stroke-width="2" points="984,-203.59 978,-203.59"/>
<text xml:space="preserve" text-anchor="middle" x="741" y="-183.33" font-family="Helvetica,sans-Serif" font-size="14.00" fill="#39c5cf">Why string&#45;based, not agent.interrupt_control.interrupt_issuer()?</text>
<text xml:space="preserve" text-anchor="middle" x="741" y="-166.08" font-family="Helvetica,sans-Serif" font-size="14.00" fill="#39c5cf">By hook time, agent.clear_interrupt() already ran —</text>
<text xml:space="preserve" text-anchor="middle" x="741" y="-148.83" font-family="Helvetica,sans-Serif" font-size="14.00" fill="#39c5cf">turn_exit_reason is the only surviving record.</text>
</g>
<!-- re&#45;&gt;why -->
<g id="edge7" class="edge">
<title>re&#45;&gt;why</title>
<path fill="none" stroke="#39c5cf" stroke-width="1.6" stroke-dasharray="1,5" d="M510.57,-270.17C553.45,-251.86 606.13,-229.36 650.29,-210.5"/>
</g>
<!-- system -->
<g id="node4" class="node">
<title>system</title>
<path fill="#161b22" stroke="#f85149" stroke-width="3" d="M264,-86.3C264,-86.3 48,-86.3 48,-86.3 42,-86.3 36,-80.3 36,-74.3 36,-74.3 36,-20.62 36,-20.62 36,-14.62 42,-8.62 48,-8.62 48,-8.62 264,-8.62 264,-8.62 270,-8.62 276,-14.62 276,-20.62 276,-20.62 276,-74.3 276,-74.3 276,-80.3 270,-86.3 264,-86.3"/>
<text xml:space="preserve" text-anchor="middle" x="156" y="-60.04" font-family="Helvetica,sans-Serif" font-size="14.00" fill="#e6edf3">(True, issuer)</text>
<text xml:space="preserve" text-anchor="middle" x="156" y="-42.79" font-family="Helvetica,sans-Serif" font-size="14.00" fill="#e6edf3">e.g. &#39;turn_liveness_watchdog&#39;</text>
<text xml:space="preserve" text-anchor="middle" x="156" y="-25.54" font-family="Helvetica,sans-Serif" font-size="14.00" fill="#e6edf3">&#39;session_lease_lost&#39;</text>
</g>
<!-- matched&#45;&gt;system -->
<g id="edge3" class="edge">
<title>matched&#45;&gt;system</title>
<path fill="none" stroke="#8b949e" stroke-width="1.6" d="M179.06,-148.35C175.86,-134.49 171.56,-115.85 167.53,-98.42"/>
<polygon fill="#8b949e" stroke="#8b949e" stroke-width="1.6" points="170.72,-98.2 165.62,-90.14 164.58,-99.62 170.72,-98.2"/>
</g>
<!-- examples -->
<g id="node6" class="node">
<title>examples</title>
<polygon fill="#161b22" stroke="#30363d" stroke-width="2" points="558,-94.92 294,-94.92 294,0 564,0 564,-88.92 558,-94.92"/>
<polyline fill="none" stroke="#30363d" stroke-width="2" points="558,-94.92 558,-88.92"/>
<polyline fill="none" stroke="#30363d" stroke-width="2" points="564,-88.92 558,-88.92"/>
<text xml:space="preserve" text-anchor="middle" x="429" y="-68.66" font-family="Helvetica,sans-Serif" font-size="14.00" fill="#adbac7">&#39;interrupted_by_user&#39;</text>
<text xml:space="preserve" text-anchor="middle" x="429" y="-51.41" font-family="Helvetica,sans-Serif" font-size="14.00" fill="#adbac7">plain &#39;interrupted_during_api_call&#39;</text>
<text xml:space="preserve" text-anchor="middle" x="429" y="-34.16" font-family="Helvetica,sans-Serif" font-size="14.00" fill="#adbac7">&#39;&#39; (empty)</text>
<text xml:space="preserve" text-anchor="middle" x="429" y="-16.91" font-family="Helvetica,sans-Serif" font-size="14.00" fill="#adbac7">unrecognized shape</text>
</g>
<!-- unmatched&#45;&gt;examples -->
<g id="edge5" class="edge">
<title>unmatched&#45;&gt;examples</title>
<path fill="none" stroke="#8b949e" stroke-width="1.6" stroke-dasharray="5,2" d="M429,-148.35C429,-136.75 429,-121.8 429,-107.01"/>
<polygon fill="#8b949e" stroke="#8b949e" stroke-width="1.6" points="432.15,-107.22 429,-98.22 425.85,-107.22 432.15,-107.22"/>
</g>
<!-- user -->
<g id="node7" class="node">
<title>user</title>
<path fill="#12351f" stroke="#3fb950" stroke-width="3" d="M780,-86.3C780,-86.3 594,-86.3 594,-86.3 588,-86.3 582,-80.3 582,-74.3 582,-74.3 582,-20.62 582,-20.62 582,-14.62 588,-8.62 594,-8.62 594,-8.62 780,-8.62 780,-8.62 786,-8.62 792,-14.62 792,-20.62 792,-20.62 792,-74.3 792,-74.3 792,-80.3 786,-86.3 780,-86.3"/>
<text xml:space="preserve" text-anchor="middle" x="687" y="-60.04" font-family="Helvetica,sans-Serif" font-size="14.00" fill="#e6edf3">(False, None)</text>
<text xml:space="preserve" text-anchor="middle" x="687" y="-42.79" font-family="Helvetica,sans-Serif" font-size="14.00" fill="#e6edf3">safe default — keeps the</text>
<text xml:space="preserve" text-anchor="middle" x="687" y="-25.54" font-family="Helvetica,sans-Serif" font-size="14.00" fill="#e6edf3">existing auto&#45;pause path</text>
</g>
<!-- unmatched&#45;&gt;user -->
<g id="edge6" class="edge">
<title>unmatched&#45;&gt;user</title>
<path fill="none" stroke="#8b949e" stroke-width="1.6" d="M460.81,-148.34C469.76,-142.69 479.61,-136.82 489,-131.92 498.49,-126.97 539.28,-109.68 581.39,-92.11"/>
<polygon fill="#8b949e" stroke="#8b949e" stroke-width="1.6" points="582.48,-95.07 589.58,-88.7 580.06,-89.25 582.48,-95.07"/>
</g>
</g>
</svg>
