<?xml version="1.0" encoding="UTF-8" standalone="no"?>
<!DOCTYPE svg PUBLIC "-//W3C//DTD SVG 1.1//EN"
 "http://www.w3.org/Graphics/SVG/1.1/DTD/svg11.dtd">
<!-- Generated by graphviz version 14.1.2 (0)
 -->
<!-- Title: system_abort_retry_state_machine Pages: 1 -->
<svg width="2444pt" height="297pt"
 viewBox="0.00 0.00 2444.00 297.00" xmlns="http://www.w3.org/2000/svg" xmlns:xlink="http://www.w3.org/1999/xlink">
<g id="graph0" class="graph" transform="scale(1 1) rotate(0) translate(4 292.97)">
<title>system_abort_retry_state_machine</title>
<polygon fill="#0d1117" stroke="none" points="-4,4 -4,-292.97 2440.32,-292.97 2440.32,4 -4,4"/>
<text xml:space="preserve" text-anchor="middle" x="1218.16" y="-265.97" font-family="Helvetica,sans-Serif" font-size="20.00" fill="#e6edf3">GoalManager.note_system_abort: retry, don&#39;t judge garbage, cap and fall back</text>
<!-- active -->
<g id="node1" class="node">
<title>active</title>
<ellipse fill="#12351f" stroke="#3fb950" stroke-width="2" cx="181.37" cy="-150.72" rx="181.37" ry="42.72"/>
<text xml:space="preserve" text-anchor="middle" x="181.37" y="-154.67" font-family="Helvetica,sans-Serif" font-size="14.00" fill="#e6edf3">active</text>
<text xml:space="preserve" text-anchor="middle" x="181.37" y="-137.42" font-family="Helvetica,sans-Serif" font-size="14.00" fill="#e6edf3">consecutive_system_aborts = 0</text>
</g>
<!-- abort1 -->
<g id="node2" class="node">
<title>abort1</title>
<path fill="#161b22" stroke="#f0883e" stroke-width="2" d="M620.62,-129.93C620.62,-129.93 414.37,-129.93 414.37,-129.93 408.37,-129.93 402.37,-123.93 402.37,-117.93 402.37,-117.93 402.37,-81.51 402.37,-81.51 402.37,-75.51 408.37,-69.51 414.37,-69.51 414.37,-69.51 620.62,-69.51 620.62,-69.51 626.62,-69.51 632.62,-75.51 632.62,-81.51 632.62,-81.51 632.62,-117.93 632.62,-117.93 632.62,-123.93 626.62,-129.93 620.62,-129.93"/>
<text xml:space="preserve" text-anchor="middle" x="517.5" y="-103.67" font-family="Helvetica,sans-Serif" font-size="14.00" fill="#e6edf3">system&#45;issued abort #1</text>
<text xml:space="preserve" text-anchor="middle" x="517.5" y="-86.42" font-family="Helvetica,sans-Serif" font-size="14.00" fill="#e6edf3">(watchdog / lease / timeout)</text>
</g>
<!-- active&#45;&gt;abort1 -->
<g id="edge1" class="edge">
<title>active&#45;&gt;abort1</title>
<path fill="none" stroke="#8b949e" stroke-width="1.6" d="M335.26,-127.39C353.75,-124.56 372.49,-121.7 390.54,-118.95"/>
<polygon fill="#8b949e" stroke="#8b949e" stroke-width="1.6" points="390.86,-122.09 399.29,-117.61 389.91,-115.86 390.86,-122.09"/>
</g>
<!-- userint -->
<g id="node10" class="node">
<title>userint</title>
<path fill="#161b22" stroke="#bc8cff" stroke-width="2" d="M623.25,-209.93C623.25,-209.93 411.75,-209.93 411.75,-209.93 405.75,-209.93 399.75,-203.93 399.75,-197.93 399.75,-197.93 399.75,-161.51 399.75,-161.51 399.75,-155.51 405.75,-149.51 411.75,-149.51 411.75,-149.51 623.25,-149.51 623.25,-149.51 629.25,-149.51 635.25,-155.51 635.25,-161.51 635.25,-161.51 635.25,-197.93 635.25,-197.93 635.25,-203.93 629.25,-209.93 623.25,-209.93"/>
<text xml:space="preserve" text-anchor="middle" x="517.5" y="-183.67" font-family="Helvetica,sans-Serif" font-size="14.00" fill="#e6edf3">genuine user Ctrl+C</text>
<text xml:space="preserve" text-anchor="middle" x="517.5" y="-166.42" font-family="Helvetica,sans-Serif" font-size="14.00" fill="#e6edf3">(interrupt_issuer() == None)</text>
</g>
<!-- active&#45;&gt;userint -->
<g id="edge11" class="edge">
<title>active&#45;&gt;userint</title>
<path fill="none" stroke="#bc8cff" stroke-width="1.6" stroke-dasharray="5,2" d="M352.86,-165.52C364.56,-166.54 376.25,-167.55 387.68,-168.54"/>
<polygon fill="#bc8cff" stroke="#bc8cff" stroke-width="1.6" points="387.36,-171.68 396.6,-169.32 387.91,-165.4 387.36,-171.68"/>
</g>
<!-- retry1 -->
<g id="node3" class="node">
<title>retry1</title>
<path fill="#0d2e2e" stroke="#39c5cf" stroke-width="2" d="M922,-133.56C922,-133.56 684.25,-133.56 684.25,-133.56 678.25,-133.56 672.25,-127.56 672.25,-121.56 672.25,-121.56 672.25,-67.89 672.25,-67.89 672.25,-61.89 678.25,-55.89 684.25,-55.89 684.25,-55.89 922,-55.89 922,-55.89 928,-55.89 934,-61.89 934,-67.89 934,-67.89 934,-121.56 934,-121.56 934,-127.56 928,-133.56 922,-133.56"/>
<text xml:space="preserve" text-anchor="middle" x="803.12" y="-107.3" font-family="Helvetica,sans-Serif" font-size="14.00" fill="#e6edf3">retry SAME in&#45;flight prompt</text>
<text xml:space="preserve" text-anchor="middle" x="803.12" y="-90.05" font-family="Helvetica,sans-Serif" font-size="14.00" fill="#e6edf3">consecutive_system_aborts = 1</text>
<text xml:space="preserve" text-anchor="middle" x="803.12" y="-72.8" font-family="Helvetica,sans-Serif" font-size="14.00" fill="#e6edf3">&quot;↻ retrying the same step (1/3)&quot;</text>
</g>
<!-- abort1&#45;&gt;retry1 -->
<g id="edge2" class="edge">
<title>abort1&#45;&gt;retry1</title>
<path fill="none" stroke="#8b949e" stroke-width="1.6" d="M633.45,-97.7C642.3,-97.54 651.3,-97.38 660.3,-97.22"/>
<polygon fill="#8b949e" stroke="#8b949e" stroke-width="1.6" points="660.32,-100.37 669.26,-97.07 660.21,-94.07 660.32,-100.37"/>
</g>
<!-- abort2 -->
<g id="node4" class="node">
<title>abort2</title>
<path fill="#161b22" stroke="#f0883e" stroke-width="2" d="M1260.25,-183.31C1260.25,-183.31 1081,-183.31 1081,-183.31 1075,-183.31 1069,-177.31 1069,-171.31 1069,-171.31 1069,-152.14 1069,-152.14 1069,-146.14 1075,-140.14 1081,-140.14 1081,-140.14 1260.25,-140.14 1260.25,-140.14 1266.25,-140.14 1272.25,-146.14 1272.25,-152.14 1272.25,-152.14 1272.25,-171.31 1272.25,-171.31 1272.25,-177.31 1266.25,-183.31 1260.25,-183.31"/>
<text xml:space="preserve" text-anchor="middle" x="1170.62" y="-157.05" font-family="Helvetica,sans-Serif" font-size="14.00" fill="#e6edf3">system&#45;issued abort #2</text>
</g>
<!-- retry1&#45;&gt;abort2 -->
<g id="edge3" class="edge">
<title>retry1&#45;&gt;abort2</title>
<path fill="none" stroke="#8b949e" stroke-width="1.6" d="M934.6,-127.22C940.47,-128.45 946.29,-129.62 952,-130.72 986.07,-137.28 1023.38,-143.09 1057.34,-147.86"/>
<polygon fill="#8b949e" stroke="#8b949e" stroke-width="1.6" points="1056.5,-150.92 1065.84,-149.03 1057.36,-144.68 1056.5,-150.92"/>
</g>
<!-- success -->
<g id="node8" class="node">
<title>success</title>
<path fill="#1f2937" stroke="#3fb950" stroke-width="2" d="M1261.75,-119.93C1261.75,-119.93 1079.5,-119.93 1079.5,-119.93 1073.5,-119.93 1067.5,-113.93 1067.5,-107.93 1067.5,-107.93 1067.5,-71.51 1067.5,-71.51 1067.5,-65.51 1073.5,-59.51 1079.5,-59.51 1079.5,-59.51 1261.75,-59.51 1261.75,-59.51 1267.75,-59.51 1273.75,-65.51 1273.75,-71.51 1273.75,-71.51 1273.75,-107.93 1273.75,-107.93 1273.75,-113.93 1267.75,-119.93 1261.75,-119.93"/>
<text xml:space="preserve" text-anchor="middle" x="1170.62" y="-93.67" font-family="Helvetica,sans-Serif" font-size="14.00" fill="#e6edf3">a turn reaches the judge</text>
<text xml:space="preserve" text-anchor="middle" x="1170.62" y="-76.42" font-family="Helvetica,sans-Serif" font-size="14.00" fill="#e6edf3">with real output</text>
</g>
<!-- retry1&#45;&gt;success -->
<g id="edge7" class="edge">
<title>retry1&#45;&gt;success</title>
<path fill="none" stroke="#3fb950" stroke-width="1.6" stroke-dasharray="5,2" d="M934.78,-92.94C974.23,-92.4 1017.21,-91.81 1055.49,-91.28"/>
<polygon fill="#3fb950" stroke="#3fb950" stroke-width="1.6" points="1055.31,-94.44 1064.26,-91.16 1055.22,-88.14 1055.31,-94.44"/>
<text xml:space="preserve" text-anchor="middle" x="1000.75" y="-113.87" font-family="Helvetica,sans-Serif" font-size="14.00" fill="#3fb950"> &#160;(a clean turn</text>
<text xml:space="preserve" text-anchor="middle" x="1000.75" y="-96.62" font-family="Helvetica,sans-Serif" font-size="14.00" fill="#3fb950"> &#160;at any point)</text>
</g>
<!-- retry2 -->
<g id="node5" class="node">
<title>retry2</title>
<path fill="#0d2e2e" stroke="#39c5cf" stroke-width="2" d="M1587.16,-203.56C1587.16,-203.56 1354.66,-203.56 1354.66,-203.56 1348.66,-203.56 1342.66,-197.56 1342.66,-191.56 1342.66,-191.56 1342.66,-137.89 1342.66,-137.89 1342.66,-131.89 1348.66,-125.89 1354.66,-125.89 1354.66,-125.89 1587.16,-125.89 1587.16,-125.89 1593.16,-125.89 1599.16,-131.89 1599.16,-137.89 1599.16,-137.89 1599.16,-191.56 1599.16,-191.56 1599.16,-197.56 1593.16,-203.56 1587.16,-203.56"/>
<text xml:space="preserve" text-anchor="middle" x="1470.91" y="-177.3" font-family="Helvetica,sans-Serif" font-size="14.00" fill="#e6edf3">retry SAME prompt again</text>
<text xml:space="preserve" text-anchor="middle" x="1470.91" y="-160.05" font-family="Helvetica,sans-Serif" font-size="14.00" fill="#e6edf3">consecutive_system_aborts = 2</text>
<text xml:space="preserve" text-anchor="middle" x="1470.91" y="-142.8" font-family="Helvetica,sans-Serif" font-size="14.00" fill="#e6edf3">(2/3)</text>
</g>
<!-- abort2&#45;&gt;retry2 -->
<g id="edge4" class="edge">
<title>abort2&#45;&gt;retry2</title>
<path fill="none" stroke="#8b949e" stroke-width="1.6" d="M1273.02,-162.74C1291.52,-162.93 1311.11,-163.13 1330.48,-163.32"/>
<polygon fill="#8b949e" stroke="#8b949e" stroke-width="1.6" points="1330.4,-166.47 1339.43,-163.41 1330.46,-160.17 1330.4,-166.47"/>
</g>
<!-- abort3 -->
<g id="node6" class="node">
<title>abort3</title>
<path fill="#161b22" stroke="#f85149" stroke-width="3" d="M2068.57,-207.93C2068.57,-207.93 1680.07,-207.93 1680.07,-207.93 1674.07,-207.93 1668.07,-201.93 1668.07,-195.93 1668.07,-195.93 1668.07,-159.51 1668.07,-159.51 1668.07,-153.51 1674.07,-147.51 1680.07,-147.51 1680.07,-147.51 2068.57,-147.51 2068.57,-147.51 2074.57,-147.51 2080.57,-153.51 2080.57,-159.51 2080.57,-159.51 2080.57,-195.93 2080.57,-195.93 2080.57,-201.93 2074.57,-207.93 2068.57,-207.93"/>
<text xml:space="preserve" text-anchor="middle" x="1874.32" y="-181.67" font-family="Helvetica,sans-Serif" font-size="14.00" fill="#e6edf3">system&#45;issued abort #3</text>
<text xml:space="preserve" text-anchor="middle" x="1874.32" y="-164.42" font-family="Helvetica,sans-Serif" font-size="14.00" fill="#e6edf3">(cap: DEFAULT_MAX_CONSECUTIVE_SYSTEM_ABORTS)</text>
</g>
<!-- retry2&#45;&gt;abort3 -->
<g id="edge5" class="edge">
<title>retry2&#45;&gt;abort3</title>
<path fill="none" stroke="#8b949e" stroke-width="1.6" d="M1600.02,-168.87C1617.86,-169.45 1636.58,-170.06 1655.5,-170.67"/>
<polygon fill="#8b949e" stroke="#8b949e" stroke-width="1.6" points="1655.15,-173.81 1664.24,-170.95 1655.35,-167.51 1655.15,-173.81"/>
</g>
<!-- pause -->
<g id="node7" class="node">
<title>pause</title>
<path fill="#1f2937" stroke="#d29922" stroke-width="3" d="M2424.32,-256.18C2424.32,-256.18 2129.57,-256.18 2129.57,-256.18 2123.57,-256.18 2117.57,-250.18 2117.57,-244.18 2117.57,-244.18 2117.57,-173.26 2117.57,-173.26 2117.57,-167.26 2123.57,-161.26 2129.57,-161.26 2129.57,-161.26 2424.32,-161.26 2424.32,-161.26 2430.32,-161.26 2436.32,-167.26 2436.32,-173.26 2436.32,-173.26 2436.32,-244.18 2436.32,-244.18 2436.32,-250.18 2430.32,-256.18 2424.32,-256.18"/>
<text xml:space="preserve" text-anchor="middle" x="2276.94" y="-229.92" font-family="Helvetica,sans-Serif" font-size="14.00" fill="#e6edf3">fall back to the existing</text>
<text xml:space="preserve" text-anchor="middle" x="2276.94" y="-212.67" font-family="Helvetica,sans-Serif" font-size="14.00" fill="#e6edf3">recoverable auto&#45;pause</text>
<text xml:space="preserve" text-anchor="middle" x="2276.94" y="-195.42" font-family="Helvetica,sans-Serif" font-size="14.00" fill="#e6edf3">&quot;⏸ cancelled by &lt;issuer&gt; 3x in a row —</text>
<text xml:space="preserve" text-anchor="middle" x="2276.94" y="-178.17" font-family="Helvetica,sans-Serif" font-size="14.00" fill="#e6edf3">/goal resume to retry&quot;</text>
</g>
<!-- abort3&#45;&gt;pause -->
<g id="edge6" class="edge">
<title>abort3&#45;&gt;pause</title>
<path fill="none" stroke="#8b949e" stroke-width="1.6" d="M2081.79,-193.7C2089.57,-194.3 2097.35,-194.9 2105.06,-195.5"/>
<polygon fill="#8b949e" stroke="#8b949e" stroke-width="1.6" points="2104.68,-198.63 2113.9,-196.18 2105.17,-192.35 2104.68,-198.63"/>
</g>
<!-- pause&#45;&gt;active -->
<g id="edge10" class="edge">
<title>pause&#45;&gt;active</title>
<path fill="none" stroke="#d29922" stroke-width="1.6" stroke-dasharray="5,2" d="M2116.3,-226.76C2042.99,-233.58 1954.84,-239.72 1875.32,-239.72 516.5,-239.72 516.5,-239.72 516.5,-239.72 436.32,-239.72 348.85,-215.5 283.53,-192.32"/>
<polygon fill="#d29922" stroke="#d29922" stroke-width="1.6" points="284.64,-189.38 275.11,-189.29 282.51,-195.3 284.64,-189.38"/>
<text xml:space="preserve" text-anchor="middle" x="1170.62" y="-243.67" font-family="Helvetica,sans-Serif" font-size="14.00" fill="#adbac7">/goal resume</text>
</g>
<!-- reset -->
<g id="node9" class="node">
<title>reset</title>
<ellipse fill="#12351f" stroke="#3fb950" stroke-width="3" cx="1470.91" cy="-42.72" rx="160.16" ry="42.72"/>
<text xml:space="preserve" text-anchor="middle" x="1470.91" y="-46.67" font-family="Helvetica,sans-Serif" font-size="14.00" fill="#e6edf3">consecutive_system_aborts</text>
<text xml:space="preserve" text-anchor="middle" x="1470.91" y="-29.42" font-family="Helvetica,sans-Serif" font-size="14.00" fill="#e6edf3">resets to 0</text>
</g>
<!-- success&#45;&gt;reset -->
<g id="edge8" class="edge">
<title>success&#45;&gt;reset</title>
<path fill="none" stroke="#8b949e" stroke-width="1.6" d="M1274.69,-73.48C1289.26,-71.19 1304.47,-68.79 1319.71,-66.39"/>
<polygon fill="#8b949e" stroke="#8b949e" stroke-width="1.6" points="1320,-69.53 1328.4,-65.02 1319.02,-63.31 1320,-69.53"/>
</g>
<!-- reset&#45;&gt;active -->
<g id="edge9" class="edge">
<title>reset&#45;&gt;active</title>
<path fill="none" stroke="#8b949e" stroke-width="1.6" stroke-dasharray="5,2" d="M1314.39,-31.94C1268.44,-29.56 1218.03,-27.72 1171.62,-27.72 516.5,-27.72 516.5,-27.72 516.5,-27.72 423.75,-27.72 324.94,-69.98 259.04,-104.96"/>
<polygon fill="#8b949e" stroke="#8b949e" stroke-width="1.6" points="257.71,-102.09 251.28,-109.13 260.7,-107.64 257.71,-102.09"/>
</g>
<!-- userpause -->
<g id="node11" class="node">
<title>userpause</title>
<path fill="#1f2937" stroke="#bc8cff" stroke-width="2" d="M889.37,-211.93C889.37,-211.93 716.87,-211.93 716.87,-211.93 710.87,-211.93 704.87,-205.93 704.87,-199.93 704.87,-199.93 704.87,-163.51 704.87,-163.51 704.87,-157.51 710.87,-151.51 716.87,-151.51 716.87,-151.51 889.37,-151.51 889.37,-151.51 895.37,-151.51 901.37,-157.51 901.37,-163.51 901.37,-163.51 901.37,-199.93 901.37,-199.93 901.37,-205.93 895.37,-211.93 889.37,-211.93"/>
<text xml:space="preserve" text-anchor="middle" x="803.12" y="-185.67" font-family="Helvetica,sans-Serif" font-size="14.00" fill="#e6edf3">unchanged: immediate</text>
<text xml:space="preserve" text-anchor="middle" x="803.12" y="-168.42" font-family="Helvetica,sans-Serif" font-size="14.00" fill="#e6edf3">auto&#45;pause, no retry</text>
</g>
<!-- userint&#45;&gt;userpause -->
<g id="edge12" class="edge">
<title>userint&#45;&gt;userpause</title>
<path fill="none" stroke="#bc8cff" stroke-width="1.6" d="M635.9,-180.55C654.8,-180.68 674.29,-180.82 692.97,-180.95"/>
<polygon fill="#bc8cff" stroke="#bc8cff" stroke-width="1.6" points="692.74,-184.1 701.76,-181.02 692.78,-177.8 692.74,-184.1"/>
</g>
</g>
</svg>
