<?xml version="1.0" encoding="UTF-8" standalone="no"?>
<!DOCTYPE svg PUBLIC "-//W3C//DTD SVG 1.1//EN"
 "http://www.w3.org/Graphics/SVG/1.1/DTD/svg11.dtd">
<!-- Generated by graphviz version 14.1.2 (0)
 -->
<!-- Title: single_query_mode_gap Pages: 1 -->
<svg width="1209pt" height="903pt"
 viewBox="0.00 0.00 1209.00 903.00" xmlns="http://www.w3.org/2000/svg" xmlns:xlink="http://www.w3.org/1999/xlink">
<g id="graph0" class="graph" transform="scale(1 1) rotate(0) translate(4 899.24)">
<title>single_query_mode_gap</title>
<polygon fill="#0d1117" stroke="none" points="-4,4 -4,-899.24 1204.62,-899.24 1204.62,4 -4,4"/>
<text xml:space="preserve" text-anchor="middle" x="600.31" y="-872.24" font-family="Helvetica,sans-Serif" font-size="20.00" fill="#e6edf3">Why &#39;/goal ...&#39; via hermes chat &#45;q was a silent no&#45;op</text>
<g id="clust1" class="cluster">
<title>cluster_interactive</title>
<polygon fill="#0d1117" stroke="#3fb950" stroke-dasharray="5,2" points="8,-8 8,-831.24 310,-831.24 310,-8 8,-8"/>
<text xml:space="preserve" text-anchor="middle" x="159" y="-808.24" font-family="Helvetica,sans-Serif" font-size="20.00" fill="#3fb950">Interactive TUI / chat REPL</text>
</g>
<g id="clust2" class="cluster">
<title>cluster_automation</title>
<polygon fill="#0d1117" stroke="#f85149" stroke-dasharray="5,2" points="318,-218.72 318,-855.24 845,-855.24 845,-218.72 318,-218.72"/>
<text xml:space="preserve" text-anchor="middle" x="581.5" y="-832.24" font-family="Helvetica,sans-Serif" font-size="20.00" fill="#f85149">Single&#45;query automation mode</text>
<text xml:space="preserve" text-anchor="middle" x="581.5" y="-808.24" font-family="Helvetica,sans-Serif" font-size="20.00" fill="#f85149">(&#45;q / &#45;Q / &#45;&#45;format stream&#45;json / &#45;&#45;oneshot / non&#45;TTY)</text>
</g>
<!-- user_types -->
<g id="node1" class="node">
<title>user_types</title>
<path fill="#13294d" stroke="#58a6ff" stroke-width="2" d="M264.75,-791.24C264.75,-791.24 53.25,-791.24 53.25,-791.24 47.25,-791.24 41.25,-785.24 41.25,-779.24 41.25,-779.24 41.25,-760.07 41.25,-760.07 41.25,-754.07 47.25,-748.07 53.25,-748.07 53.25,-748.07 264.75,-748.07 264.75,-748.07 270.75,-748.07 276.75,-754.07 276.75,-760.07 276.75,-760.07 276.75,-779.24 276.75,-779.24 276.75,-785.24 270.75,-791.24 264.75,-791.24"/>
<text xml:space="preserve" text-anchor="middle" x="159" y="-764.98" font-family="Helvetica,sans-Serif" font-size="14.00" fill="#e6edf3">user types &#39;/goal fix the bug&#39;</text>
</g>
<!-- process_command -->
<g id="node2" class="node">
<title>process_command</title>
<path fill="#1f2937" stroke="#3fb950" stroke-width="2" d="M274.5,-712.07C274.5,-712.07 43.5,-712.07 43.5,-712.07 37.5,-712.07 31.5,-706.07 31.5,-700.07 31.5,-700.07 31.5,-646.4 31.5,-646.4 31.5,-640.4 37.5,-634.4 43.5,-634.4 43.5,-634.4 274.5,-634.4 274.5,-634.4 280.5,-634.4 286.5,-640.4 286.5,-646.4 286.5,-646.4 286.5,-700.07 286.5,-700.07 286.5,-706.07 280.5,-712.07 274.5,-712.07"/>
<text xml:space="preserve" text-anchor="middle" x="159" y="-685.81" font-family="Helvetica,sans-Serif" font-size="14.00" fill="#e6edf3">HermesCLI.process_command()</text>
<text xml:space="preserve" text-anchor="middle" x="159" y="-668.56" font-family="Helvetica,sans-Serif" font-size="14.00" fill="#e6edf3">cli.py:3241 — the ONE shared</text>
<text xml:space="preserve" text-anchor="middle" x="159" y="-651.31" font-family="Helvetica,sans-Serif" font-size="14.00" fill="#e6edf3">slash&#45;command router</text>
</g>
<!-- user_types&#45;&gt;process_command -->
<g id="edge1" class="edge">
<title>user_types&#45;&gt;process_command</title>
<path fill="none" stroke="#8b949e" stroke-width="1.6" d="M159,-747.23C159,-740.35 159,-732.42 159,-724.38"/>
<polygon fill="#8b949e" stroke="#8b949e" stroke-width="1.6" points="162.15,-724.45 159,-715.45 155.85,-724.45 162.15,-724.45"/>
</g>
<!-- handle_goal -->
<g id="node3" class="node">
<title>handle_goal</title>
<path fill="#1f2937" stroke="#3fb950" stroke-width="2" d="M267,-572.53C267,-572.53 51,-572.53 51,-572.53 45,-572.53 39,-566.53 39,-560.53 39,-560.53 39,-524.11 39,-524.11 39,-518.11 45,-512.11 51,-512.11 51,-512.11 267,-512.11 267,-512.11 273,-512.11 279,-518.11 279,-524.11 279,-524.11 279,-560.53 279,-560.53 279,-566.53 273,-572.53 267,-572.53"/>
<text xml:space="preserve" text-anchor="middle" x="159" y="-546.27" font-family="Helvetica,sans-Serif" font-size="14.00" fill="#e6edf3">_handle_goal_command()</text>
<text xml:space="preserve" text-anchor="middle" x="159" y="-529.02" font-family="Helvetica,sans-Serif" font-size="14.00" fill="#e6edf3">(found dynamically by name)</text>
</g>
<!-- process_command&#45;&gt;handle_goal -->
<g id="edge2" class="edge">
<title>process_command&#45;&gt;handle_goal</title>
<path fill="none" stroke="#8b949e" stroke-width="1.6" d="M159,-633.56C159,-618.04 159,-600.14 159,-584.39"/>
<polygon fill="#8b949e" stroke="#8b949e" stroke-width="1.6" points="162.15,-584.79 159,-575.79 155.85,-584.79 162.15,-584.79"/>
</g>
<!-- dispatch -->
<g id="node4" class="node">
<title>dispatch</title>
<path fill="#1f2937" stroke="#3fb950" stroke-width="2" d="M265.5,-450.23C265.5,-450.23 52.5,-450.23 52.5,-450.23 46.5,-450.23 40.5,-444.23 40.5,-438.23 40.5,-438.23 40.5,-384.56 40.5,-384.56 40.5,-378.56 46.5,-372.56 52.5,-372.56 52.5,-372.56 265.5,-372.56 265.5,-372.56 271.5,-372.56 277.5,-378.56 277.5,-384.56 277.5,-384.56 277.5,-438.23 277.5,-438.23 277.5,-444.23 271.5,-450.23 265.5,-450.23"/>
<text xml:space="preserve" text-anchor="middle" x="159" y="-423.97" font-family="Helvetica,sans-Serif" font-size="14.00" fill="#e6edf3">dispatch_goal_command()</text>
<text xml:space="preserve" text-anchor="middle" x="159" y="-406.72" font-family="Helvetica,sans-Serif" font-size="14.00" fill="#e6edf3">goal_command.py — parses,</text>
<text xml:space="preserve" text-anchor="middle" x="159" y="-389.47" font-family="Helvetica,sans-Serif" font-size="14.00" fill="#e6edf3">mutates GoalState</text>
</g>
<!-- handle_goal&#45;&gt;dispatch -->
<g id="edge3" class="edge">
<title>handle_goal&#45;&gt;dispatch</title>
<path fill="none" stroke="#8b949e" stroke-width="1.6" d="M159,-511.42C159,-496.79 159,-478.8 159,-462.18"/>
<polygon fill="#8b949e" stroke="#8b949e" stroke-width="1.6" points="162.15,-462.37 159,-453.37 155.85,-462.37 162.15,-462.37"/>
</g>
<!-- pending -->
<g id="node5" class="node">
<title>pending</title>
<path fill="#1f2937" stroke="#3fb950" stroke-width="2" d="M276.38,-303.23C276.38,-303.23 41.62,-303.23 41.62,-303.23 35.62,-303.23 29.62,-297.23 29.62,-291.23 29.62,-291.23 29.62,-272.06 29.62,-272.06 29.62,-266.06 35.62,-260.06 41.62,-260.06 41.62,-260.06 276.38,-260.06 276.38,-260.06 282.38,-260.06 288.38,-266.06 288.38,-272.06 288.38,-272.06 288.38,-291.23 288.38,-291.23 288.38,-297.23 282.38,-303.23 276.38,-303.23"/>
<text xml:space="preserve" text-anchor="middle" x="159" y="-276.97" font-family="Helvetica,sans-Serif" font-size="14.00" fill="#e6edf3">self._pending_input.put(prompt)</text>
</g>
<!-- dispatch&#45;&gt;pending -->
<g id="edge4" class="edge">
<title>dispatch&#45;&gt;pending</title>
<path fill="none" stroke="#8b949e" stroke-width="1.6" d="M159,-371.72C159,-353.7 159,-332.49 159,-315.29"/>
<polygon fill="#8b949e" stroke="#8b949e" stroke-width="1.6" points="162.15,-315.53 159,-306.53 155.85,-315.53 162.15,-315.53"/>
</g>
<!-- repl_loop -->
<g id="node6" class="node">
<title>repl_loop</title>
<path fill="#1f2937" stroke="#3fb950" stroke-width="2" d="M266.25,-190.72C266.25,-190.72 51.75,-190.72 51.75,-190.72 45.75,-190.72 39.75,-184.72 39.75,-178.72 39.75,-178.72 39.75,-125.05 39.75,-125.05 39.75,-119.05 45.75,-113.05 51.75,-113.05 51.75,-113.05 266.25,-113.05 266.25,-113.05 272.25,-113.05 278.25,-119.05 278.25,-125.05 278.25,-125.05 278.25,-178.72 278.25,-178.72 278.25,-184.72 272.25,-190.72 266.25,-190.72"/>
<text xml:space="preserve" text-anchor="middle" x="159" y="-164.46" font-family="Helvetica,sans-Serif" font-size="14.00" fill="#e6edf3">REPL&#39;s own polling loop</text>
<text xml:space="preserve" text-anchor="middle" x="159" y="-147.21" font-family="Helvetica,sans-Serif" font-size="14.00" fill="#e6edf3">(cli.py ~3529&#45;3556) drains it</text>
<text xml:space="preserve" text-anchor="middle" x="159" y="-129.96" font-family="Helvetica,sans-Serif" font-size="14.00" fill="#e6edf3">and runs the turn</text>
</g>
<!-- pending&#45;&gt;repl_loop -->
<g id="edge5" class="edge">
<title>pending&#45;&gt;repl_loop</title>
<path fill="none" stroke="#8b949e" stroke-width="1.6" d="M159,-259.26C159,-243.88 159,-222.49 159,-202.91"/>
<polygon fill="#8b949e" stroke="#8b949e" stroke-width="1.6" points="162.15,-203.08 159,-194.08 155.85,-203.08 162.15,-203.08"/>
</g>
<!-- judge_ok -->
<g id="node7" class="node">
<title>judge_ok</title>
<ellipse fill="#12351f" stroke="#3fb950" stroke-width="3" cx="159" cy="-46.53" rx="143.19" ry="30.53"/>
<text xml:space="preserve" text-anchor="middle" x="159" y="-41.85" font-family="Helvetica,sans-Serif" font-size="14.00" fill="#e6edf3">judge fires every turn ✓</text>
</g>
<!-- repl_loop&#45;&gt;judge_ok -->
<g id="edge6" class="edge">
<title>repl_loop&#45;&gt;judge_ok</title>
<path fill="none" stroke="#8b949e" stroke-width="1.6" d="M159,-112.1C159,-104.81 159,-97.15 159,-89.76"/>
<polygon fill="#8b949e" stroke="#8b949e" stroke-width="1.6" points="162.15,-89.88 159,-80.88 155.85,-89.88 162.15,-89.88"/>
</g>
<!-- query_text -->
<g id="node8" class="node">
<title>query_text</title>
<path fill="#161b22" stroke="#f0883e" stroke-width="2" d="M803.5,-791.24C803.5,-791.24 608.5,-791.24 608.5,-791.24 602.5,-791.24 596.5,-785.24 596.5,-779.24 596.5,-779.24 596.5,-760.07 596.5,-760.07 596.5,-754.07 602.5,-748.07 608.5,-748.07 608.5,-748.07 803.5,-748.07 803.5,-748.07 809.5,-748.07 815.5,-754.07 815.5,-760.07 815.5,-760.07 815.5,-779.24 815.5,-779.24 815.5,-785.24 809.5,-791.24 803.5,-791.24"/>
<text xml:space="preserve" text-anchor="middle" x="706" y="-764.98" font-family="Helvetica,sans-Serif" font-size="14.00" fill="#e6edf3">query = &#39;/goal fix the bug&#39;</text>
</g>
<!-- quiet_entry -->
<g id="node9" class="node">
<title>quiet_entry</title>
<path fill="#161b22" stroke="#f85149" stroke-width="2" d="M805.75,-712.07C805.75,-712.07 606.25,-712.07 606.25,-712.07 600.25,-712.07 594.25,-706.07 594.25,-700.07 594.25,-700.07 594.25,-646.4 594.25,-646.4 594.25,-640.4 600.25,-634.4 606.25,-634.4 606.25,-634.4 805.75,-634.4 805.75,-634.4 811.75,-634.4 817.75,-640.4 817.75,-646.4 817.75,-646.4 817.75,-700.07 817.75,-700.07 817.75,-706.07 811.75,-712.07 805.75,-712.07"/>
<text xml:space="preserve" text-anchor="middle" x="706" y="-685.81" font-family="Helvetica,sans-Serif" font-size="14.00" fill="#e6edf3">_run_quiet_single_query() /</text>
<text xml:space="preserve" text-anchor="middle" x="706" y="-668.56" font-family="Helvetica,sans-Serif" font-size="14.00" fill="#e6edf3">_run_single_query_mode()</text>
<text xml:space="preserve" text-anchor="middle" x="706" y="-651.31" font-family="Helvetica,sans-Serif" font-size="14.00" fill="#e6edf3">cli.py</text>
</g>
<!-- query_text&#45;&gt;quiet_entry -->
<g id="edge7" class="edge">
<title>query_text&#45;&gt;quiet_entry</title>
<path fill="none" stroke="#8b949e" stroke-width="1.6" d="M706,-747.23C706,-740.35 706,-732.42 706,-724.38"/>
<polygon fill="#8b949e" stroke="#8b949e" stroke-width="1.6" points="709.15,-724.45 706,-715.45 702.85,-724.45 709.15,-724.45"/>
</g>
<!-- raw_call -->
<g id="node10" class="node">
<title>raw_call</title>
<path fill="#161b22" stroke="#f85149" stroke-width="3" d="M814.12,-589.78C814.12,-589.78 559.88,-589.78 559.88,-589.78 553.88,-589.78 547.88,-583.78 547.88,-577.78 547.88,-577.78 547.88,-506.86 547.88,-506.86 547.88,-500.86 553.88,-494.86 559.88,-494.86 559.88,-494.86 814.12,-494.86 814.12,-494.86 820.12,-494.86 826.12,-500.86 826.12,-506.86 826.12,-506.86 826.12,-577.78 826.12,-577.78 826.12,-583.78 820.12,-589.78 814.12,-589.78"/>
<text xml:space="preserve" text-anchor="middle" x="687" y="-563.52" font-family="Helvetica,sans-Serif" font-size="14.00" fill="#e6edf3">cli.agent.run_conversation(</text>
<text xml:space="preserve" text-anchor="middle" x="687" y="-546.27" font-family="Helvetica,sans-Serif" font-size="14.00" fill="#e6edf3"> &#160;user_message=effective_query)</text>
<text xml:space="preserve" text-anchor="middle" x="687" y="-529.02" font-family="Helvetica,sans-Serif" font-size="14.00" fill="#e6edf3">— NO slash&#45;command interception</text>
<text xml:space="preserve" text-anchor="middle" x="687" y="-511.77" font-family="Helvetica,sans-Serif" font-size="14.00" fill="#e6edf3">at all</text>
</g>
<!-- quiet_entry&#45;&gt;raw_call -->
<g id="edge8" class="edge">
<title>quiet_entry&#45;&gt;raw_call</title>
<path fill="none" stroke="#8b949e" stroke-width="1.6" d="M700.3,-633.56C698.84,-623.65 697.24,-612.77 695.66,-602.1"/>
<polygon fill="#8b949e" stroke="#8b949e" stroke-width="1.6" points="698.82,-601.94 694.4,-593.5 692.59,-602.86 698.82,-601.94"/>
</g>
<!-- kanban_note -->
<g id="node13" class="node">
<title>kanban_note</title>
<polygon fill="#161b22" stroke="#d29922" stroke-width="2" points="1194.62,-598.4 853.38,-598.4 853.38,-486.23 1200.62,-486.23 1200.62,-592.4 1194.62,-598.4"/>
<polyline fill="none" stroke="#d29922" stroke-width="2" points="1194.62,-598.4 1194.62,-592.4"/>
<polyline fill="none" stroke="#d29922" stroke-width="2" points="1200.62,-592.4 1194.62,-592.4"/>
<text xml:space="preserve" text-anchor="middle" x="1027" y="-572.14" font-family="Helvetica,sans-Serif" font-size="14.00" fill="#d29922">The ONE existing single&#45;query goal</text>
<text xml:space="preserve" text-anchor="middle" x="1027" y="-554.89" font-family="Helvetica,sans-Serif" font-size="14.00" fill="#d29922">loop (_run_kanban_goal_loop_q) is</text>
<text xml:space="preserve" text-anchor="middle" x="1027" y="-537.64" font-family="Helvetica,sans-Serif" font-size="14.00" fill="#d29922">gated on HERMES_KANBAN_GOAL_MODE=1,</text>
<text xml:space="preserve" text-anchor="middle" x="1027" y="-520.39" font-family="Helvetica,sans-Serif" font-size="14.00" fill="#d29922">not on the query text — and bypasses</text>
<text xml:space="preserve" text-anchor="middle" x="1027" y="-503.14" font-family="Helvetica,sans-Serif" font-size="14.00" fill="#d29922">GoalManager/GoalState entirely.</text>
</g>
<!-- quiet_entry&#45;&gt;kanban_note -->
<g id="edge11" class="edge">
<title>quiet_entry&#45;&gt;kanban_note</title>
<path fill="none" stroke="#d29922" stroke-width="1.6" stroke-dasharray="1,5" d="M802.31,-633.56C825.85,-624.11 851.59,-613.77 876.97,-603.57"/>
<polygon fill="#d29922" stroke="#d29922" stroke-width="1.6" points="878.02,-606.55 885.19,-600.27 875.67,-600.7 878.02,-606.55"/>
</g>
<!-- literal -->
<g id="node11" class="node">
<title>literal</title>
<path fill="#161b22" stroke="#f85149" stroke-width="2" d="M794.38,-450.23C794.38,-450.23 547.62,-450.23 547.62,-450.23 541.62,-450.23 535.62,-444.23 535.62,-438.23 535.62,-438.23 535.62,-384.56 535.62,-384.56 535.62,-378.56 541.62,-372.56 547.62,-372.56 547.62,-372.56 794.38,-372.56 794.38,-372.56 800.38,-372.56 806.38,-378.56 806.38,-384.56 806.38,-384.56 806.38,-438.23 806.38,-438.23 806.38,-444.23 800.38,-450.23 794.38,-450.23"/>
<text xml:space="preserve" text-anchor="middle" x="671" y="-423.97" font-family="Helvetica,sans-Serif" font-size="14.00" fill="#e6edf3">model receives the literal text</text>
<text xml:space="preserve" text-anchor="middle" x="671" y="-406.72" font-family="Helvetica,sans-Serif" font-size="14.00" fill="#e6edf3">&#39;/goal fix the bug&#39; as a chat</text>
<text xml:space="preserve" text-anchor="middle" x="671" y="-389.47" font-family="Helvetica,sans-Serif" font-size="14.00" fill="#e6edf3">message and just... does the task</text>
</g>
<!-- raw_call&#45;&gt;literal -->
<g id="edge9" class="edge">
<title>raw_call&#45;&gt;literal</title>
<path fill="none" stroke="#8b949e" stroke-width="1.6" d="M681.09,-493.68C679.81,-483.36 678.45,-472.41 677.16,-462.01"/>
<polygon fill="#8b949e" stroke="#8b949e" stroke-width="1.6" points="680.32,-461.95 676.09,-453.4 674.07,-462.72 680.32,-461.95"/>
</g>
<!-- no_judge -->
<g id="node12" class="node">
<title>no_judge</title>
<ellipse fill="#1f2937" stroke="#f85149" stroke-width="3" cx="663" cy="-281.64" rx="173.95" ry="54.92"/>
<text xml:space="preserve" text-anchor="middle" x="663" y="-294.22" font-family="Helvetica,sans-Serif" font-size="14.00" fill="#e6edf3">zero goal_judge log lines.</text>
<text xml:space="preserve" text-anchor="middle" x="663" y="-276.97" font-family="Helvetica,sans-Serif" font-size="14.00" fill="#e6edf3">No error. Looks like success</text>
<text xml:space="preserve" text-anchor="middle" x="663" y="-259.72" font-family="Helvetica,sans-Serif" font-size="14.00" fill="#e6edf3">if the model finishes in 1 turn.</text>
</g>
<!-- literal&#45;&gt;no_judge -->
<g id="edge10" class="edge">
<title>literal&#45;&gt;no_judge</title>
<path fill="none" stroke="#8b949e" stroke-width="1.6" d="M668.58,-371.72C668.13,-364.52 667.64,-356.8 667.16,-349.04"/>
<polygon fill="#8b949e" stroke="#8b949e" stroke-width="1.6" points="670.3,-348.89 666.6,-340.1 664.02,-349.28 670.3,-348.89"/>
</g>
</g>
</svg>
