<?xml version="1.0" encoding="UTF-8" standalone="no"?>
<!DOCTYPE svg PUBLIC "-//W3C//DTD SVG 1.1//EN"
 "http://www.w3.org/Graphics/SVG/1.1/DTD/svg11.dtd">
<!-- Generated by graphviz version 2.43.0 (0)
 -->
<!-- Title: run_cli_goal_loop_architecture Pages: 1 -->
<svg width="1859pt" height="426pt"
 viewBox="0.00 0.00 1859.00 425.50" xmlns="http://www.w3.org/2000/svg" xmlns:xlink="http://www.w3.org/1999/xlink">
<g id="graph0" class="graph" transform="scale(1 1) rotate(0) translate(4 421.5)">
<title>run_cli_goal_loop_architecture</title>
<polygon fill="#0d1117" stroke="transparent" points="-4,4 -4,-421.5 1855,-421.5 1855,4 -4,4"/>
<text text-anchor="middle" x="925.5" y="-397.5" font-family="Helvetica,sans-Serif" font-size="20.00" fill="#e6edf3">Three loop drivers, one shared engine — run_cli_goal_loop picks the right one</text>
<g id="clust1" class="cluster">
<title>cluster_tui</title>
<polygon fill="#0d1117" stroke="#3fb950" stroke-dasharray="5,2" points="8,-122.5 8,-224.5 302,-224.5 302,-122.5 8,-122.5"/>
<text text-anchor="middle" x="155" y="-204.5" font-family="Helvetica,sans-Serif" font-size="20.00" fill="#3fb950">TUI hook (existing)</text>
</g>
<g id="clust2" class="cluster">
<title>cluster_gateway</title>
<polygon fill="#0d1117" stroke="#39c5cf" stroke-dasharray="5,2" points="310,-115 310,-232 606,-232 606,-115 310,-115"/>
<text text-anchor="middle" x="458" y="-212" font-family="Helvetica,sans-Serif" font-size="20.00" fill="#39c5cf">Gateway hook (existing)</text>
</g>
<g id="clust3" class="cluster">
<title>cluster_kanban</title>
<polygon fill="#0d1117" stroke="#d29922" stroke-dasharray="5,2" points="1328,-122.5 1328,-379.5 1843,-379.5 1843,-122.5 1328,-122.5"/>
<text text-anchor="middle" x="1585.5" y="-359.5" font-family="Helvetica,sans-Serif" font-size="20.00" fill="#d29922">Kanban loop (existing, DELIBERATELY NOT reused)</text>
</g>
<g id="clust4" class="cluster">
<title>cluster_new</title>
<polygon fill="#0d1117" stroke="#f0883e" stroke-dasharray="5,2" points="614,-8 614,-239.5 982,-239.5 982,-8 614,-8"/>
<text text-anchor="middle" x="798" y="-219.5" font-family="Helvetica,sans-Serif" font-size="20.00" fill="#f0883e">NEW: run_cli_goal_loop (this fix)</text>
</g>
<!-- engine -->
<g id="node1" class="node">
<title>engine</title>
<polygon fill="#0d3a6b" stroke="#58a6ff" stroke-width="3" points="784,-349.5 476,-349.5 472,-345.5 472,-247.5 780,-247.5 784,-251.5 784,-349.5"/>
<polyline fill="none" stroke="#58a6ff" stroke-width="3" points="780,-345.5 472,-345.5 "/>
<polyline fill="none" stroke="#58a6ff" stroke-width="3" points="780,-345.5 780,-247.5 "/>
<polyline fill="none" stroke="#58a6ff" stroke-width="3" points="780,-345.5 784,-349.5 "/>
<text text-anchor="middle" x="628" y="-325.3" font-family="Helvetica,sans-Serif" font-size="14.00" fill="#e6edf3">GoalManager.evaluate_after_turn() /</text>
<text text-anchor="middle" x="628" y="-310.3" font-family="Helvetica,sans-Serif" font-size="14.00" fill="#e6edf3">next_continuation_prompt()</text>
<text text-anchor="middle" x="628" y="-279.3" font-family="Helvetica,sans-Serif" font-size="14.00" fill="#e6edf3">gates + contract + wait&#45;barrier +</text>
<text text-anchor="middle" x="628" y="-264.3" font-family="Helvetica,sans-Serif" font-size="14.00" fill="#e6edf3">budget + pause — the ONE real engine</text>
</g>
<!-- tui -->
<g id="node2" class="node">
<title>tui</title>
<path fill="#1f2937" stroke="#3fb950" stroke-width="2" d="M282,-186.5C282,-186.5 28,-186.5 28,-186.5 22,-186.5 16,-180.5 16,-174.5 16,-174.5 16,-142.5 16,-142.5 16,-136.5 22,-130.5 28,-130.5 28,-130.5 282,-130.5 282,-130.5 288,-130.5 294,-136.5 294,-142.5 294,-142.5 294,-174.5 294,-174.5 294,-180.5 288,-186.5 282,-186.5"/>
<text text-anchor="middle" x="155" y="-162.3" font-family="Helvetica,sans-Serif" font-size="14.00" fill="#e6edf3">_maybe_continue_goal_after_turn()</text>
<text text-anchor="middle" x="155" y="-147.3" font-family="Helvetica,sans-Serif" font-size="14.00" fill="#e6edf3">one call per completed REPL turn</text>
</g>
<!-- engine&#45;&gt;tui -->
<g id="edge1" class="edge">
<title>engine&#45;&gt;tui</title>
<path fill="none" stroke="#3fb950" stroke-width="1.6" d="M462.82,-277.8C411.7,-269.04 355.76,-256.69 306,-239.5 267.58,-226.23 227.04,-204.25 197.65,-186.68"/>
<polygon fill="#3fb950" stroke="#3fb950" stroke-width="1.6" points="462.57,-280.95 471.97,-279.34 463.62,-274.74 462.57,-280.95"/>
</g>
<!-- gw -->
<g id="node3" class="node">
<title>gw</title>
<path fill="#0d2e2e" stroke="#39c5cf" stroke-width="2" d="M586,-194C586,-194 330,-194 330,-194 324,-194 318,-188 318,-182 318,-182 318,-135 318,-135 318,-129 324,-123 330,-123 330,-123 586,-123 586,-123 592,-123 598,-129 598,-135 598,-135 598,-182 598,-182 598,-188 592,-194 586,-194"/>
<text text-anchor="middle" x="458" y="-169.8" font-family="Helvetica,sans-Serif" font-size="14.00" fill="#e6edf3">_post_turn_goal_continuation()</text>
<text text-anchor="middle" x="458" y="-154.8" font-family="Helvetica,sans-Serif" font-size="14.00" fill="#e6edf3">async — enqueues onto a FIFO the</text>
<text text-anchor="middle" x="458" y="-139.8" font-family="Helvetica,sans-Serif" font-size="14.00" fill="#e6edf3">long&#45;lived event loop drains later</text>
</g>
<!-- engine&#45;&gt;gw -->
<g id="edge2" class="edge">
<title>engine&#45;&gt;gw</title>
<path fill="none" stroke="#39c5cf" stroke-width="1.6" d="M558.94,-241.44C539.22,-225.43 518.31,-208.46 500.67,-194.14"/>
<polygon fill="#39c5cf" stroke="#39c5cf" stroke-width="1.6" points="557.17,-244.06 566.15,-247.29 561.14,-239.17 557.17,-244.06"/>
</g>
<!-- new -->
<g id="node6" class="node">
<title>new</title>
<path fill="#161b22" stroke="#f0883e" stroke-width="3" d="M962,-201.5C962,-201.5 634,-201.5 634,-201.5 628,-201.5 622,-195.5 622,-189.5 622,-189.5 622,-127.5 622,-127.5 622,-121.5 628,-115.5 634,-115.5 634,-115.5 962,-115.5 962,-115.5 968,-115.5 974,-121.5 974,-127.5 974,-127.5 974,-189.5 974,-189.5 974,-195.5 968,-201.5 962,-201.5"/>
<text text-anchor="middle" x="798" y="-177.3" font-family="Helvetica,sans-Serif" font-size="14.00" fill="#e6edf3">synchronous while&#45;loop</text>
<text text-anchor="middle" x="798" y="-162.3" font-family="Helvetica,sans-Serif" font-size="14.00" fill="#e6edf3">(shape borrowed from Kanban&#39;s loop)</text>
<text text-anchor="middle" x="798" y="-147.3" font-family="Helvetica,sans-Serif" font-size="14.00" fill="#e6edf3">driving the REAL engine</text>
<text text-anchor="middle" x="798" y="-132.3" font-family="Helvetica,sans-Serif" font-size="14.00" fill="#e6edf3">(substance borrowed from the gateway hook)</text>
</g>
<!-- engine&#45;&gt;new -->
<g id="edge4" class="edge">
<title>engine&#45;&gt;new</title>
<path fill="none" stroke="#f0883e" stroke-width="3" d="M696.86,-241.6C713.36,-228.21 730.69,-214.14 746.26,-201.5"/>
<polygon fill="#f0883e" stroke="#f0883e" stroke-width="3" points="694.86,-239.17 689.85,-247.29 698.83,-244.06 694.86,-239.17"/>
</g>
<!-- note -->
<g id="node8" class="node">
<title>note</title>
<polygon fill="#161b22" stroke="#8b949e" stroke-width="2" points="1314.5,-209 991.5,-209 991.5,-108 1320.5,-108 1320.5,-203 1314.5,-209"/>
<polyline fill="none" stroke="#8b949e" stroke-width="2" points="1314.5,-209 1314.5,-203 "/>
<polyline fill="none" stroke="#8b949e" stroke-width="2" points="1320.5,-203 1314.5,-203 "/>
<text text-anchor="middle" x="1156" y="-184.8" font-family="Helvetica,sans-Serif" font-size="14.00" fill="#adbac7">Same engine, three shapes:</text>
<text text-anchor="middle" x="1156" y="-169.8" font-family="Helvetica,sans-Serif" font-size="14.00" fill="#adbac7">TUI = 1 call/turn (external loop drives it)</text>
<text text-anchor="middle" x="1156" y="-154.8" font-family="Helvetica,sans-Serif" font-size="14.00" fill="#adbac7">Gateway = async FIFO re&#45;entry</text>
<text text-anchor="middle" x="1156" y="-139.8" font-family="Helvetica,sans-Serif" font-size="14.00" fill="#adbac7">CLI (new) = self&#45;contained sync loop</text>
<text text-anchor="middle" x="1156" y="-124.8" font-family="Helvetica,sans-Serif" font-size="14.00" fill="#adbac7">(a one&#45;shot process must exit when done)</text>
</g>
<!-- engine&#45;&gt;note -->
<g id="edge6" class="edge">
<title>engine&#45;&gt;note</title>
<path fill="none" stroke="#8b949e" stroke-width="1.6" stroke-dasharray="1,5" d="M784.36,-281.8C847.86,-272.95 921.34,-259.52 986,-239.5 1011.55,-231.59 1038.18,-220.54 1062.56,-209.17"/>
</g>
<!-- kanban -->
<g id="node4" class="node">
<title>kanban</title>
<path fill="#1f2937" stroke="#d29922" stroke-width="2" d="M1707.5,-341.5C1707.5,-341.5 1462.5,-341.5 1462.5,-341.5 1456.5,-341.5 1450.5,-335.5 1450.5,-329.5 1450.5,-329.5 1450.5,-267.5 1450.5,-267.5 1450.5,-261.5 1456.5,-255.5 1462.5,-255.5 1462.5,-255.5 1707.5,-255.5 1707.5,-255.5 1713.5,-255.5 1719.5,-261.5 1719.5,-267.5 1719.5,-267.5 1719.5,-329.5 1719.5,-329.5 1719.5,-335.5 1713.5,-341.5 1707.5,-341.5"/>
<text text-anchor="middle" x="1585" y="-317.3" font-family="Helvetica,sans-Serif" font-size="14.00" fill="#e6edf3">run_kanban_goal_loop()</text>
<text text-anchor="middle" x="1585" y="-302.3" font-family="Helvetica,sans-Serif" font-size="14.00" fill="#e6edf3">bare judge_goal() call —</text>
<text text-anchor="middle" x="1585" y="-287.3" font-family="Helvetica,sans-Serif" font-size="14.00" fill="#e6edf3">bypasses GoalManager/GoalState</text>
<text text-anchor="middle" x="1585" y="-272.3" font-family="Helvetica,sans-Serif" font-size="14.00" fill="#e6edf3">entirely; board&#45;tool prompts</text>
</g>
<!-- kanban_bypass -->
<g id="node5" class="node">
<title>kanban_bypass</title>
<path fill="#161b22" stroke="#f85149" stroke-width="2" d="M1692.5,-186.5C1692.5,-186.5 1477.5,-186.5 1477.5,-186.5 1471.5,-186.5 1465.5,-180.5 1465.5,-174.5 1465.5,-174.5 1465.5,-142.5 1465.5,-142.5 1465.5,-136.5 1471.5,-130.5 1477.5,-130.5 1477.5,-130.5 1692.5,-130.5 1692.5,-130.5 1698.5,-130.5 1704.5,-136.5 1704.5,-142.5 1704.5,-142.5 1704.5,-174.5 1704.5,-174.5 1704.5,-180.5 1698.5,-186.5 1692.5,-186.5"/>
<text text-anchor="middle" x="1585" y="-162.3" font-family="Helvetica,sans-Serif" font-size="14.00" fill="#e6edf3">NO gates, NO pause/resume,</text>
<text text-anchor="middle" x="1585" y="-147.3" font-family="Helvetica,sans-Serif" font-size="14.00" fill="#e6edf3">NO wait&#45;barrier, NO contract</text>
</g>
<!-- kanban&#45;&gt;kanban_bypass -->
<g id="edge3" class="edge">
<title>kanban&#45;&gt;kanban_bypass</title>
<path fill="none" stroke="#f85149" stroke-width="1.6" d="M1585,-255.35C1585,-236.31 1585,-214.05 1585,-195.77"/>
<polygon fill="#f85149" stroke="#f85149" stroke-width="1.6" points="1588.15,-195.62 1585,-186.62 1581.85,-195.62 1588.15,-195.62"/>
</g>
<!-- new_use -->
<g id="node7" class="node">
<title>new_use</title>
<path fill="#161b22" stroke="#f0883e" stroke-width="2" d="M934,-72C934,-72 662,-72 662,-72 656,-72 650,-66 650,-60 650,-60 650,-28 650,-28 650,-22 656,-16 662,-16 662,-16 934,-16 934,-16 940,-16 946,-22 946,-28 946,-28 946,-60 946,-60 946,-66 940,-72 934,-72"/>
<text text-anchor="middle" x="798" y="-47.8" font-family="Helvetica,sans-Serif" font-size="14.00" fill="#e6edf3">used by cli._run_cli_goal_command_q</text>
<text text-anchor="middle" x="798" y="-32.8" font-family="Helvetica,sans-Serif" font-size="14.00" fill="#e6edf3">in &#45;q / &#45;Q single&#45;query mode</text>
</g>
<!-- new&#45;&gt;new_use -->
<g id="edge5" class="edge">
<title>new&#45;&gt;new_use</title>
<path fill="none" stroke="#8b949e" stroke-width="1.6" d="M798,-115.29C798,-104.1 798,-92.12 798,-81.28"/>
<polygon fill="#8b949e" stroke="#8b949e" stroke-width="1.6" points="801.15,-81.09 798,-72.09 794.85,-81.09 801.15,-81.09"/>
</g>
</g>
</svg>
