<?xml version="1.0" encoding="UTF-8" standalone="no"?>
<!DOCTYPE svg PUBLIC "-//W3C//DTD SVG 1.1//EN"
 "http://www.w3.org/Graphics/SVG/1.1/DTD/svg11.dtd">
<!-- Generated by graphviz version 14.1.2 (0)
 -->
<!-- Title: background_review_contention_fix Pages: 1 -->
<svg width="1991pt" height="350pt"
 viewBox="0.00 0.00 1991.00 350.00" xmlns="http://www.w3.org/2000/svg" xmlns:xlink="http://www.w3.org/1999/xlink">
<g id="graph0" class="graph" transform="scale(1 1) rotate(0) translate(4 346)">
<title>background_review_contention_fix</title>
<polygon fill="#0d1117" stroke="none" points="-4,4 -4,-346 1986.57,-346 1986.57,4 -4,4"/>
<text xml:space="preserve" text-anchor="middle" x="991.29" y="-319" font-family="Helvetica,sans-Serif" font-size="20.00" fill="#e6edf3">Why the old managed&#45;local check missed Ollama, and what closes the gap</text>
<g id="clust1" class="cluster">
<title>cluster_before</title>
<polygon fill="#0d1117" stroke="#f85149" stroke-dasharray="5,2" points="35.75,-8 35.75,-134 1974.57,-134 1974.57,-8 35.75,-8"/>
<text xml:space="preserve" text-anchor="middle" x="1005.16" y="-111" font-family="Helvetica,sans-Serif" font-size="20.00" fill="#f85149">Before</text>
</g>
<g id="clust2" class="cluster">
<title>cluster_after</title>
<polygon fill="#0d1117" stroke="#3fb950" stroke-dasharray="5,2" points="8,-142 8,-302 1679.07,-302 1679.07,-142 8,-142"/>
<text xml:space="preserve" text-anchor="middle" x="843.54" y="-279" font-family="Helvetica,sans-Serif" font-size="20.00" fill="#3fb950">After</text>
</g>
<!-- review_fires -->
<g id="node1" class="node">
<title>review_fires</title>
<path fill="#161b22" stroke="#f0883e" stroke-width="2" d="M305.5,-93.84C305.5,-93.84 55.75,-93.84 55.75,-93.84 49.75,-93.84 43.75,-87.84 43.75,-81.84 43.75,-81.84 43.75,-28.16 43.75,-28.16 43.75,-22.16 49.75,-16.16 55.75,-16.16 55.75,-16.16 305.5,-16.16 305.5,-16.16 311.5,-16.16 317.5,-22.16 317.5,-28.16 317.5,-28.16 317.5,-81.84 317.5,-81.84 317.5,-87.84 311.5,-93.84 305.5,-93.84"/>
<text xml:space="preserve" text-anchor="middle" x="180.62" y="-67.58" font-family="Helvetica,sans-Serif" font-size="14.00" fill="#e6edf3">review_targets_managed_local()</text>
<text xml:space="preserve" text-anchor="middle" x="180.62" y="-50.33" font-family="Helvetica,sans-Serif" font-size="14.00" fill="#e6edf3">only recognizes the llama&#45;server</text>
<text xml:space="preserve" text-anchor="middle" x="180.62" y="-33.08" font-family="Helvetica,sans-Serif" font-size="14.00" fill="#e6edf3">Hermes itself launches/supervises</text>
</g>
<!-- ollama -->
<g id="node2" class="node">
<title>ollama</title>
<path fill="#161b22" stroke="#f85149" stroke-width="2" d="M651.25,-93.84C651.25,-93.84 397,-93.84 397,-93.84 391,-93.84 385,-87.84 385,-81.84 385,-81.84 385,-28.16 385,-28.16 385,-22.16 391,-16.16 397,-16.16 397,-16.16 651.25,-16.16 651.25,-16.16 657.25,-16.16 663.25,-22.16 663.25,-28.16 663.25,-28.16 663.25,-81.84 663.25,-81.84 663.25,-87.84 657.25,-93.84 651.25,-93.84"/>
<text xml:space="preserve" text-anchor="middle" x="524.12" y="-67.58" font-family="Helvetica,sans-Serif" font-size="14.00" fill="#e6edf3">This box: a PLAIN Ollama daemon</text>
<text xml:space="preserve" text-anchor="middle" x="524.12" y="-50.33" font-family="Helvetica,sans-Serif" font-size="14.00" fill="#e6edf3">— not &#39;managed&#39; by Hermes&#39;s own</text>
<text xml:space="preserve" text-anchor="middle" x="524.12" y="-33.08" font-family="Helvetica,sans-Serif" font-size="14.00" fill="#e6edf3">supervisor state file</text>
</g>
<!-- review_fires&#45;&gt;ollama -->
<g id="edge1" class="edge">
<title>review_fires&#45;&gt;ollama</title>
<path fill="none" stroke="#8b949e" stroke-width="1.6" d="M318.07,-55C336.07,-55 354.6,-55 372.82,-55"/>
<polygon fill="#8b949e" stroke="#8b949e" stroke-width="1.6" points="372.69,-58.15 381.69,-55 372.69,-51.85 372.69,-58.15"/>
</g>
<!-- false_result -->
<g id="node3" class="node">
<title>false_result</title>
<path fill="#161b22" stroke="#f85149" stroke-width="2" d="M948.25,-85.21C948.25,-85.21 715,-85.21 715,-85.21 709,-85.21 703,-79.21 703,-73.21 703,-73.21 703,-36.79 703,-36.79 703,-30.79 709,-24.79 715,-24.79 715,-24.79 948.25,-24.79 948.25,-24.79 954.25,-24.79 960.25,-30.79 960.25,-36.79 960.25,-36.79 960.25,-73.21 960.25,-73.21 960.25,-79.21 954.25,-85.21 948.25,-85.21"/>
<text xml:space="preserve" text-anchor="middle" x="831.62" y="-58.95" font-family="Helvetica,sans-Serif" font-size="14.00" fill="#e6edf3">review_targets_managed_local()</text>
<text xml:space="preserve" text-anchor="middle" x="831.62" y="-41.7" font-family="Helvetica,sans-Serif" font-size="14.00" fill="#e6edf3">reads False</text>
</g>
<!-- ollama&#45;&gt;false_result -->
<g id="edge2" class="edge">
<title>ollama&#45;&gt;false_result</title>
<path fill="none" stroke="#8b949e" stroke-width="1.6" d="M664.02,-55C673,-55 682.04,-55 691.02,-55"/>
<polygon fill="#8b949e" stroke="#8b949e" stroke-width="1.6" points="690.93,-58.15 699.93,-55 690.93,-51.85 690.93,-58.15"/>
</g>
<!-- immediate -->
<g id="node4" class="node">
<title>immediate</title>
<path fill="#161b22" stroke="#f85149" stroke-width="3" d="M1261.75,-85.21C1261.75,-85.21 1014.25,-85.21 1014.25,-85.21 1008.25,-85.21 1002.25,-79.21 1002.25,-73.21 1002.25,-73.21 1002.25,-36.79 1002.25,-36.79 1002.25,-30.79 1008.25,-24.79 1014.25,-24.79 1014.25,-24.79 1261.75,-24.79 1261.75,-24.79 1267.75,-24.79 1273.75,-30.79 1273.75,-36.79 1273.75,-36.79 1273.75,-73.21 1273.75,-73.21 1273.75,-79.21 1267.75,-85.21 1261.75,-85.21"/>
<text xml:space="preserve" text-anchor="middle" x="1138" y="-58.95" font-family="Helvetica,sans-Serif" font-size="14.00" fill="#e6edf3">review fork spawns IMMEDIATELY,</text>
<text xml:space="preserve" text-anchor="middle" x="1138" y="-41.7" font-family="Helvetica,sans-Serif" font-size="14.00" fill="#e6edf3">every time — no deferral at all</text>
</g>
<!-- false_result&#45;&gt;immediate -->
<g id="edge3" class="edge">
<title>false_result&#45;&gt;immediate</title>
<path fill="none" stroke="#8b949e" stroke-width="1.6" d="M960.83,-55C970.4,-55 980.11,-55 989.78,-55"/>
<polygon fill="#8b949e" stroke="#8b949e" stroke-width="1.6" points="989.7,-58.15 998.7,-55 989.7,-51.85 989.7,-58.15"/>
</g>
<!-- contend -->
<g id="node5" class="node">
<title>contend</title>
<path fill="#161b22" stroke="#f85149" stroke-width="2" d="M1615.29,-93.84C1615.29,-93.84 1371.54,-93.84 1371.54,-93.84 1365.54,-93.84 1359.54,-87.84 1359.54,-81.84 1359.54,-81.84 1359.54,-28.16 1359.54,-28.16 1359.54,-22.16 1365.54,-16.16 1371.54,-16.16 1371.54,-16.16 1615.29,-16.16 1615.29,-16.16 1621.29,-16.16 1627.29,-22.16 1627.29,-28.16 1627.29,-28.16 1627.29,-81.84 1627.29,-81.84 1627.29,-87.84 1621.29,-93.84 1615.29,-93.84"/>
<text xml:space="preserve" text-anchor="middle" x="1493.41" y="-67.58" font-family="Helvetica,sans-Serif" font-size="14.00" fill="#e6edf3">review fork and the live goal&#45;loop</text>
<text xml:space="preserve" text-anchor="middle" x="1493.41" y="-50.33" font-family="Helvetica,sans-Serif" font-size="14.00" fill="#e6edf3">turn decode on the SAME GPU</text>
<text xml:space="preserve" text-anchor="middle" x="1493.41" y="-33.08" font-family="Helvetica,sans-Serif" font-size="14.00" fill="#e6edf3">at the same time</text>
</g>
<!-- immediate&#45;&gt;contend -->
<g id="edge4" class="edge">
<title>immediate&#45;&gt;contend</title>
<path fill="none" stroke="#8b949e" stroke-width="1.6" d="M1275.13,-55C1298.8,-55 1323.5,-55 1347.39,-55"/>
<polygon fill="#8b949e" stroke="#8b949e" stroke-width="1.6" points="1347.26,-58.15 1356.26,-55 1347.26,-51.85 1347.26,-58.15"/>
</g>
<!-- watchdog -->
<g id="node6" class="node">
<title>watchdog</title>
<path fill="#161b22" stroke="#f85149" stroke-width="3" d="M1954.57,-85.21C1954.57,-85.21 1719.07,-85.21 1719.07,-85.21 1713.07,-85.21 1707.07,-79.21 1707.07,-73.21 1707.07,-73.21 1707.07,-36.79 1707.07,-36.79 1707.07,-30.79 1713.07,-24.79 1719.07,-24.79 1719.07,-24.79 1954.57,-24.79 1954.57,-24.79 1960.57,-24.79 1966.57,-30.79 1966.57,-36.79 1966.57,-36.79 1966.57,-73.21 1966.57,-73.21 1966.57,-79.21 1960.57,-85.21 1954.57,-85.21"/>
<text xml:space="preserve" text-anchor="middle" x="1836.82" y="-58.95" font-family="Helvetica,sans-Serif" font-size="14.00" fill="#e6edf3">turn&#45;liveness watchdog trips</text>
<text xml:space="preserve" text-anchor="middle" x="1836.82" y="-41.7" font-family="Helvetica,sans-Serif" font-size="14.00" fill="#e6edf3">on the live turn &#45;&gt; system abort</text>
</g>
<!-- contend&#45;&gt;watchdog -->
<g id="edge5" class="edge">
<title>contend&#45;&gt;watchdog</title>
<path fill="none" stroke="#8b949e" stroke-width="1.6" d="M1627.88,-55C1649.79,-55 1672.57,-55 1694.67,-55"/>
<polygon fill="#8b949e" stroke="#8b949e" stroke-width="1.6" points="1694.39,-58.15 1703.39,-55 1694.39,-51.85 1694.39,-58.15"/>
</g>
<!-- shares -->
<g id="node7" class="node">
<title>shares</title>
<path fill="#0d2e2e" stroke="#39c5cf" stroke-width="2" d="M333.25,-253.46C333.25,-253.46 28,-253.46 28,-253.46 22,-253.46 16,-247.46 16,-241.46 16,-241.46 16,-170.54 16,-170.54 16,-164.54 22,-158.54 28,-158.54 28,-158.54 333.25,-158.54 333.25,-158.54 339.25,-158.54 345.25,-164.54 345.25,-170.54 345.25,-170.54 345.25,-241.46 345.25,-241.46 345.25,-247.46 339.25,-253.46 333.25,-253.46"/>
<text xml:space="preserve" text-anchor="middle" x="180.62" y="-227.2" font-family="Helvetica,sans-Serif" font-size="14.00" fill="#e6edf3">review_shares_endpoint_with_live_turn()</text>
<text xml:space="preserve" text-anchor="middle" x="180.62" y="-209.95" font-family="Helvetica,sans-Serif" font-size="14.00" fill="#e6edf3">compares the review&#39;s resolved</text>
<text xml:space="preserve" text-anchor="middle" x="180.62" y="-192.7" font-family="Helvetica,sans-Serif" font-size="14.00" fill="#e6edf3">base_url netloc to the live agent&#39;s own</text>
<text xml:space="preserve" text-anchor="middle" x="180.62" y="-175.45" font-family="Helvetica,sans-Serif" font-size="14.00" fill="#e6edf3">(_current_main_runtime) — local&#45;host only</text>
</g>
<!-- default_fallback -->
<g id="node8" class="node">
<title>default_fallback</title>
<path fill="#0d2e2e" stroke="#39c5cf" stroke-width="2" d="M655,-262.08C655,-262.08 393.25,-262.08 393.25,-262.08 387.25,-262.08 381.25,-256.08 381.25,-250.08 381.25,-250.08 381.25,-161.91 381.25,-161.91 381.25,-155.91 387.25,-149.91 393.25,-149.91 393.25,-149.91 655,-149.91 655,-149.91 661,-149.91 667,-155.91 667,-161.91 667,-161.91 667,-250.08 667,-250.08 667,-256.08 661,-262.08 655,-262.08"/>
<text xml:space="preserve" text-anchor="middle" x="524.12" y="-235.82" font-family="Helvetica,sans-Serif" font-size="14.00" fill="#e6edf3">by default, review runtime IS the</text>
<text xml:space="preserve" text-anchor="middle" x="524.12" y="-218.57" font-family="Helvetica,sans-Serif" font-size="14.00" fill="#e6edf3">parent&#39;s own runtime</text>
<text xml:space="preserve" text-anchor="middle" x="524.12" y="-201.32" font-family="Helvetica,sans-Serif" font-size="14.00" fill="#e6edf3">(_resolve_review_runtime&#39;s fallback)</text>
<text xml:space="preserve" text-anchor="middle" x="524.12" y="-184.07" font-family="Helvetica,sans-Serif" font-size="14.00" fill="#e6edf3">— so this reduces to &#39;is the</text>
<text xml:space="preserve" text-anchor="middle" x="524.12" y="-166.82" font-family="Helvetica,sans-Serif" font-size="14.00" fill="#e6edf3">live model itself local&#39;</text>
</g>
<!-- shares&#45;&gt;default_fallback -->
<g id="edge6" class="edge">
<title>shares&#45;&gt;default_fallback</title>
<path fill="none" stroke="#8b949e" stroke-width="1.6" d="M345.87,-206C353.62,-206 361.39,-206 369.11,-206"/>
<polygon fill="#8b949e" stroke="#8b949e" stroke-width="1.6" points="368.96,-209.15 377.96,-206 368.96,-202.85 368.96,-209.15"/>
</g>
<!-- goal_active -->
<g id="node9" class="node">
<title>goal_active</title>
<path fill="#1f2937" stroke="#3fb950" stroke-width="2" d="M941.88,-244.84C941.88,-244.84 721.38,-244.84 721.38,-244.84 715.38,-244.84 709.38,-238.84 709.38,-232.84 709.38,-232.84 709.38,-179.16 709.38,-179.16 709.38,-173.16 715.38,-167.16 721.38,-167.16 721.38,-167.16 941.88,-167.16 941.88,-167.16 947.88,-167.16 953.88,-173.16 953.88,-179.16 953.88,-179.16 953.88,-232.84 953.88,-232.84 953.88,-238.84 947.88,-244.84 941.88,-244.84"/>
<text xml:space="preserve" text-anchor="middle" x="831.62" y="-218.57" font-family="Helvetica,sans-Serif" font-size="14.00" fill="#e6edf3">_goal_or_loop_active(agent)</text>
<text xml:space="preserve" text-anchor="middle" x="831.62" y="-201.32" font-family="Helvetica,sans-Serif" font-size="14.00" fill="#e6edf3">checks load_goal()/load_loop()</text>
<text xml:space="preserve" text-anchor="middle" x="831.62" y="-184.07" font-family="Helvetica,sans-Serif" font-size="14.00" fill="#e6edf3">for this session_id</text>
</g>
<!-- default_fallback&#45;&gt;goal_active -->
<g id="edge7" class="edge">
<title>default_fallback&#45;&gt;goal_active</title>
<path fill="none" stroke="#8b949e" stroke-width="1.6" d="M667.59,-206C677.54,-206 687.54,-206 697.43,-206"/>
<polygon fill="#8b949e" stroke="#8b949e" stroke-width="1.6" points="697.12,-209.15 706.12,-206 697.12,-202.85 697.12,-209.15"/>
</g>
<!-- defer -->
<g id="node10" class="node">
<title>defer</title>
<path fill="#12351f" stroke="#3fb950" stroke-width="3" d="M1267.75,-244.84C1267.75,-244.84 1008.25,-244.84 1008.25,-244.84 1002.25,-244.84 996.25,-238.84 996.25,-232.84 996.25,-232.84 996.25,-179.16 996.25,-179.16 996.25,-173.16 1002.25,-167.16 1008.25,-167.16 1008.25,-167.16 1267.75,-167.16 1267.75,-167.16 1273.75,-167.16 1279.75,-173.16 1279.75,-179.16 1279.75,-179.16 1279.75,-232.84 1279.75,-232.84 1279.75,-238.84 1273.75,-244.84 1267.75,-244.84"/>
<text xml:space="preserve" text-anchor="middle" x="1138" y="-218.57" font-family="Helvetica,sans-Serif" font-size="14.00" fill="#e6edf3">_review_should_defer() returns True</text>
<text xml:space="preserve" text-anchor="middle" x="1138" y="-201.32" font-family="Helvetica,sans-Serif" font-size="14.00" fill="#e6edf3">— independent of defer_mode —</text>
<text xml:space="preserve" text-anchor="middle" x="1138" y="-184.07" font-family="Helvetica,sans-Serif" font-size="14.00" fill="#e6edf3">review spawn defers</text>
</g>
<!-- goal_active&#45;&gt;defer -->
<g id="edge8" class="edge">
<title>goal_active&#45;&gt;defer</title>
<path fill="none" stroke="#8b949e" stroke-width="1.6" d="M954.67,-206C964.18,-206 973.86,-206 983.54,-206"/>
<polygon fill="#8b949e" stroke="#8b949e" stroke-width="1.6" points="983.47,-209.15 992.47,-206 983.47,-202.85 983.47,-209.15"/>
</g>
<!-- no_contention -->
<g id="node11" class="node">
<title>no_contention</title>
<ellipse fill="#12351f" stroke="#3fb950" stroke-width="3" cx="1493.41" cy="-206" rx="177.66" ry="30.53"/>
<text xml:space="preserve" text-anchor="middle" x="1493.41" y="-201.32" font-family="Helvetica,sans-Serif" font-size="14.00" fill="#e6edf3">live turn decodes uncontended</text>
</g>
<!-- defer&#45;&gt;no_contention -->
<g id="edge9" class="edge">
<title>defer&#45;&gt;no_contention</title>
<path fill="none" stroke="#8b949e" stroke-width="1.6" d="M1281.22,-206C1288.48,-206 1295.82,-206 1303.19,-206"/>
<polygon fill="#8b949e" stroke="#8b949e" stroke-width="1.6" points="1302.97,-209.15 1311.97,-206 1302.97,-202.85 1302.97,-209.15"/>
</g>
</g>
</svg>
