<?xml version="1.0" encoding="UTF-8" standalone="no"?>
<!DOCTYPE svg PUBLIC "-//W3C//DTD SVG 1.1//EN"
 "http://www.w3.org/Graphics/SVG/1.1/DTD/svg11.dtd">
<!-- Generated by graphviz version 2.43.0 (0)
 -->
<!-- Title: background_review_contention_fix Pages: 1 -->
<svg width="1994pt" height="328pt"
 viewBox="0.00 0.00 1994.38 328.00" xmlns="http://www.w3.org/2000/svg" xmlns:xlink="http://www.w3.org/1999/xlink">
<g id="graph0" class="graph" transform="scale(1 1) rotate(0) translate(4 324)">
<title>background_review_contention_fix</title>
<polygon fill="#0d1117" stroke="transparent" points="-4,4 -4,-324 1990.38,-324 1990.38,4 -4,4"/>
<text text-anchor="middle" x="993.19" y="-300" font-family="Helvetica,sans-Serif" font-size="20.00" fill="#e6edf3">Why the old managed&#45;local check missed Ollama, and what closes the gap</text>
<g id="clust1" class="cluster">
<title>cluster_before</title>
<polygon fill="#0d1117" stroke="#f85149" stroke-dasharray="5,2" points="36,-8 36,-126 1978.38,-126 1978.38,-8 36,-8"/>
<text text-anchor="middle" x="1007.19" y="-106" font-family="Helvetica,sans-Serif" font-size="20.00" fill="#f85149">Before</text>
</g>
<g id="clust2" class="cluster">
<title>cluster_after</title>
<polygon fill="#0d1117" stroke="#3fb950" stroke-dasharray="5,2" points="8,-134 8,-282 1682.38,-282 1682.38,-134 8,-134"/>
<text text-anchor="middle" x="845.19" y="-262" font-family="Helvetica,sans-Serif" font-size="20.00" fill="#3fb950">After</text>
</g>
<!-- review_fires -->
<g id="node1" class="node">
<title>review_fires</title>
<path fill="#161b22" stroke="#f0883e" stroke-width="2" d="M306,-87.5C306,-87.5 56,-87.5 56,-87.5 50,-87.5 44,-81.5 44,-75.5 44,-75.5 44,-28.5 44,-28.5 44,-22.5 50,-16.5 56,-16.5 56,-16.5 306,-16.5 306,-16.5 312,-16.5 318,-22.5 318,-28.5 318,-28.5 318,-75.5 318,-75.5 318,-81.5 312,-87.5 306,-87.5"/>
<text text-anchor="middle" x="181" y="-63.3" font-family="Helvetica,sans-Serif" font-size="14.00" fill="#e6edf3">review_targets_managed_local()</text>
<text text-anchor="middle" x="181" y="-48.3" font-family="Helvetica,sans-Serif" font-size="14.00" fill="#e6edf3">only recognizes the llama&#45;server</text>
<text text-anchor="middle" x="181" y="-33.3" font-family="Helvetica,sans-Serif" font-size="14.00" fill="#e6edf3">Hermes itself launches/supervises</text>
</g>
<!-- ollama -->
<g id="node2" class="node">
<title>ollama</title>
<path fill="#161b22" stroke="#f85149" stroke-width="2" d="M652.5,-87.5C652.5,-87.5 397.5,-87.5 397.5,-87.5 391.5,-87.5 385.5,-81.5 385.5,-75.5 385.5,-75.5 385.5,-28.5 385.5,-28.5 385.5,-22.5 391.5,-16.5 397.5,-16.5 397.5,-16.5 652.5,-16.5 652.5,-16.5 658.5,-16.5 664.5,-22.5 664.5,-28.5 664.5,-28.5 664.5,-75.5 664.5,-75.5 664.5,-81.5 658.5,-87.5 652.5,-87.5"/>
<text text-anchor="middle" x="525" y="-63.3" font-family="Helvetica,sans-Serif" font-size="14.00" fill="#e6edf3">This box: a PLAIN Ollama daemon</text>
<text text-anchor="middle" x="525" y="-48.3" font-family="Helvetica,sans-Serif" font-size="14.00" fill="#e6edf3">— not &#39;managed&#39; by Hermes&#39;s own</text>
<text text-anchor="middle" x="525" y="-33.3" font-family="Helvetica,sans-Serif" font-size="14.00" fill="#e6edf3">supervisor state file</text>
</g>
<!-- review_fires&#45;&gt;ollama -->
<g id="edge1" class="edge">
<title>review_fires&#45;&gt;ollama</title>
<path fill="none" stroke="#8b949e" stroke-width="1.6" d="M318.15,-52C337.21,-52 356.86,-52 376.12,-52"/>
<polygon fill="#8b949e" stroke="#8b949e" stroke-width="1.6" points="376.24,-55.15 385.24,-52 376.24,-48.85 376.24,-55.15"/>
</g>
<!-- false_result -->
<g id="node3" class="node">
<title>false_result</title>
<path fill="#161b22" stroke="#f85149" stroke-width="2" d="M950,-80C950,-80 716,-80 716,-80 710,-80 704,-74 704,-68 704,-68 704,-36 704,-36 704,-30 710,-24 716,-24 716,-24 950,-24 950,-24 956,-24 962,-30 962,-36 962,-36 962,-68 962,-68 962,-74 956,-80 950,-80"/>
<text text-anchor="middle" x="833" y="-55.8" font-family="Helvetica,sans-Serif" font-size="14.00" fill="#e6edf3">review_targets_managed_local()</text>
<text text-anchor="middle" x="833" y="-40.8" font-family="Helvetica,sans-Serif" font-size="14.00" fill="#e6edf3">reads False</text>
</g>
<!-- ollama&#45;&gt;false_result -->
<g id="edge2" class="edge">
<title>ollama&#45;&gt;false_result</title>
<path fill="none" stroke="#8b949e" stroke-width="1.6" d="M664.67,-52C674.6,-52 684.61,-52 694.53,-52"/>
<polygon fill="#8b949e" stroke="#8b949e" stroke-width="1.6" points="694.61,-55.15 703.61,-52 694.61,-48.85 694.61,-55.15"/>
</g>
<!-- immediate -->
<g id="node4" class="node">
<title>immediate</title>
<path fill="#161b22" stroke="#f85149" stroke-width="3" d="M1264,-80C1264,-80 1016,-80 1016,-80 1010,-80 1004,-74 1004,-68 1004,-68 1004,-36 1004,-36 1004,-30 1010,-24 1016,-24 1016,-24 1264,-24 1264,-24 1270,-24 1276,-30 1276,-36 1276,-36 1276,-68 1276,-68 1276,-74 1270,-80 1264,-80"/>
<text text-anchor="middle" x="1140" y="-55.8" font-family="Helvetica,sans-Serif" font-size="14.00" fill="#e6edf3">review fork spawns IMMEDIATELY,</text>
<text text-anchor="middle" x="1140" y="-40.8" font-family="Helvetica,sans-Serif" font-size="14.00" fill="#e6edf3">every time — no deferral at all</text>
</g>
<!-- false_result&#45;&gt;immediate -->
<g id="edge3" class="edge">
<title>false_result&#45;&gt;immediate</title>
<path fill="none" stroke="#8b949e" stroke-width="1.6" d="M962.02,-52C972.85,-52 983.84,-52 994.78,-52"/>
<polygon fill="#8b949e" stroke="#8b949e" stroke-width="1.6" points="994.95,-55.15 1003.95,-52 994.95,-48.85 994.95,-55.15"/>
</g>
<!-- contend -->
<g id="node5" class="node">
<title>contend</title>
<path fill="#161b22" stroke="#f85149" stroke-width="2" d="M1618.19,-87.5C1618.19,-87.5 1374.19,-87.5 1374.19,-87.5 1368.19,-87.5 1362.19,-81.5 1362.19,-75.5 1362.19,-75.5 1362.19,-28.5 1362.19,-28.5 1362.19,-22.5 1368.19,-16.5 1374.19,-16.5 1374.19,-16.5 1618.19,-16.5 1618.19,-16.5 1624.19,-16.5 1630.19,-22.5 1630.19,-28.5 1630.19,-28.5 1630.19,-75.5 1630.19,-75.5 1630.19,-81.5 1624.19,-87.5 1618.19,-87.5"/>
<text text-anchor="middle" x="1496.19" y="-63.3" font-family="Helvetica,sans-Serif" font-size="14.00" fill="#e6edf3">review fork and the live goal&#45;loop</text>
<text text-anchor="middle" x="1496.19" y="-48.3" font-family="Helvetica,sans-Serif" font-size="14.00" fill="#e6edf3">turn decode on the SAME GPU</text>
<text text-anchor="middle" x="1496.19" y="-33.3" font-family="Helvetica,sans-Serif" font-size="14.00" fill="#e6edf3">at the same time</text>
</g>
<!-- immediate&#45;&gt;contend -->
<g id="edge4" class="edge">
<title>immediate&#45;&gt;contend</title>
<path fill="none" stroke="#8b949e" stroke-width="1.6" d="M1276.17,-52C1301.23,-52 1327.47,-52 1352.74,-52"/>
<polygon fill="#8b949e" stroke="#8b949e" stroke-width="1.6" points="1353,-55.15 1362,-52 1353,-48.85 1353,-55.15"/>
</g>
<!-- watchdog -->
<g id="node6" class="node">
<title>watchdog</title>
<path fill="#161b22" stroke="#f85149" stroke-width="3" d="M1958.38,-80C1958.38,-80 1722.38,-80 1722.38,-80 1716.38,-80 1710.38,-74 1710.38,-68 1710.38,-68 1710.38,-36 1710.38,-36 1710.38,-30 1716.38,-24 1722.38,-24 1722.38,-24 1958.38,-24 1958.38,-24 1964.38,-24 1970.38,-30 1970.38,-36 1970.38,-36 1970.38,-68 1970.38,-68 1970.38,-74 1964.38,-80 1958.38,-80"/>
<text text-anchor="middle" x="1840.38" y="-55.8" font-family="Helvetica,sans-Serif" font-size="14.00" fill="#e6edf3">turn&#45;liveness watchdog trips</text>
<text text-anchor="middle" x="1840.38" y="-40.8" font-family="Helvetica,sans-Serif" font-size="14.00" fill="#e6edf3">on the live turn &#45;&gt; system abort</text>
</g>
<!-- contend&#45;&gt;watchdog -->
<g id="edge5" class="edge">
<title>contend&#45;&gt;watchdog</title>
<path fill="none" stroke="#8b949e" stroke-width="1.6" d="M1630.47,-52C1653.58,-52 1677.66,-52 1700.91,-52"/>
<polygon fill="#8b949e" stroke="#8b949e" stroke-width="1.6" points="1701.12,-55.15 1710.12,-52 1701.12,-48.85 1701.12,-55.15"/>
</g>
<!-- shares -->
<g id="node7" class="node">
<title>shares</title>
<path fill="#0d2e2e" stroke="#39c5cf" stroke-width="2" d="M334,-236C334,-236 28,-236 28,-236 22,-236 16,-230 16,-224 16,-224 16,-162 16,-162 16,-156 22,-150 28,-150 28,-150 334,-150 334,-150 340,-150 346,-156 346,-162 346,-162 346,-224 346,-224 346,-230 340,-236 334,-236"/>
<text text-anchor="middle" x="181" y="-211.8" font-family="Helvetica,sans-Serif" font-size="14.00" fill="#e6edf3">review_shares_endpoint_with_live_turn()</text>
<text text-anchor="middle" x="181" y="-196.8" font-family="Helvetica,sans-Serif" font-size="14.00" fill="#e6edf3">compares the review&#39;s resolved</text>
<text text-anchor="middle" x="181" y="-181.8" font-family="Helvetica,sans-Serif" font-size="14.00" fill="#e6edf3">base_url netloc to the live agent&#39;s own</text>
<text text-anchor="middle" x="181" y="-166.8" font-family="Helvetica,sans-Serif" font-size="14.00" fill="#e6edf3">(_current_main_runtime) — local&#45;host only</text>
</g>
<!-- default_fallback -->
<g id="node8" class="node">
<title>default_fallback</title>
<path fill="#0d2e2e" stroke="#39c5cf" stroke-width="2" d="M656,-243.5C656,-243.5 394,-243.5 394,-243.5 388,-243.5 382,-237.5 382,-231.5 382,-231.5 382,-154.5 382,-154.5 382,-148.5 388,-142.5 394,-142.5 394,-142.5 656,-142.5 656,-142.5 662,-142.5 668,-148.5 668,-154.5 668,-154.5 668,-231.5 668,-231.5 668,-237.5 662,-243.5 656,-243.5"/>
<text text-anchor="middle" x="525" y="-219.3" font-family="Helvetica,sans-Serif" font-size="14.00" fill="#e6edf3">by default, review runtime IS the</text>
<text text-anchor="middle" x="525" y="-204.3" font-family="Helvetica,sans-Serif" font-size="14.00" fill="#e6edf3">parent&#39;s own runtime</text>
<text text-anchor="middle" x="525" y="-189.3" font-family="Helvetica,sans-Serif" font-size="14.00" fill="#e6edf3">(_resolve_review_runtime&#39;s fallback)</text>
<text text-anchor="middle" x="525" y="-174.3" font-family="Helvetica,sans-Serif" font-size="14.00" fill="#e6edf3">— so this reduces to &#39;is the</text>
<text text-anchor="middle" x="525" y="-159.3" font-family="Helvetica,sans-Serif" font-size="14.00" fill="#e6edf3">live model itself local&#39;</text>
</g>
<!-- shares&#45;&gt;default_fallback -->
<g id="edge6" class="edge">
<title>shares&#45;&gt;default_fallback</title>
<path fill="none" stroke="#8b949e" stroke-width="1.6" d="M346.24,-193C355.07,-193 363.93,-193 372.72,-193"/>
<polygon fill="#8b949e" stroke="#8b949e" stroke-width="1.6" points="372.85,-196.15 381.85,-193 372.85,-189.85 372.85,-196.15"/>
</g>
<!-- goal_active -->
<g id="node9" class="node">
<title>goal_active</title>
<path fill="#1f2937" stroke="#3fb950" stroke-width="2" d="M943.5,-228.5C943.5,-228.5 722.5,-228.5 722.5,-228.5 716.5,-228.5 710.5,-222.5 710.5,-216.5 710.5,-216.5 710.5,-169.5 710.5,-169.5 710.5,-163.5 716.5,-157.5 722.5,-157.5 722.5,-157.5 943.5,-157.5 943.5,-157.5 949.5,-157.5 955.5,-163.5 955.5,-169.5 955.5,-169.5 955.5,-216.5 955.5,-216.5 955.5,-222.5 949.5,-228.5 943.5,-228.5"/>
<text text-anchor="middle" x="833" y="-204.3" font-family="Helvetica,sans-Serif" font-size="14.00" fill="#e6edf3">_goal_or_loop_active(agent)</text>
<text text-anchor="middle" x="833" y="-189.3" font-family="Helvetica,sans-Serif" font-size="14.00" fill="#e6edf3">checks load_goal()/load_loop()</text>
<text text-anchor="middle" x="833" y="-174.3" font-family="Helvetica,sans-Serif" font-size="14.00" fill="#e6edf3">for this session_id</text>
</g>
<!-- default_fallback&#45;&gt;goal_active -->
<g id="edge7" class="edge">
<title>default_fallback&#45;&gt;goal_active</title>
<path fill="none" stroke="#8b949e" stroke-width="1.6" d="M668.25,-193C679.22,-193 690.27,-193 701.17,-193"/>
<polygon fill="#8b949e" stroke="#8b949e" stroke-width="1.6" points="701.28,-196.15 710.28,-193 701.28,-189.85 701.28,-196.15"/>
</g>
<!-- defer -->
<g id="node10" class="node">
<title>defer</title>
<path fill="#12351f" stroke="#3fb950" stroke-width="3" d="M1270,-228.5C1270,-228.5 1010,-228.5 1010,-228.5 1004,-228.5 998,-222.5 998,-216.5 998,-216.5 998,-169.5 998,-169.5 998,-163.5 1004,-157.5 1010,-157.5 1010,-157.5 1270,-157.5 1270,-157.5 1276,-157.5 1282,-163.5 1282,-169.5 1282,-169.5 1282,-216.5 1282,-216.5 1282,-222.5 1276,-228.5 1270,-228.5"/>
<text text-anchor="middle" x="1140" y="-204.3" font-family="Helvetica,sans-Serif" font-size="14.00" fill="#e6edf3">_review_should_defer() returns True</text>
<text text-anchor="middle" x="1140" y="-189.3" font-family="Helvetica,sans-Serif" font-size="14.00" fill="#e6edf3">— independent of defer_mode —</text>
<text text-anchor="middle" x="1140" y="-174.3" font-family="Helvetica,sans-Serif" font-size="14.00" fill="#e6edf3">review spawn defers</text>
</g>
<!-- goal_active&#45;&gt;defer -->
<g id="edge8" class="edge">
<title>goal_active&#45;&gt;defer</title>
<path fill="none" stroke="#8b949e" stroke-width="1.6" d="M955.86,-193C966.68,-193 977.72,-193 988.75,-193"/>
<polygon fill="#8b949e" stroke="#8b949e" stroke-width="1.6" points="989,-196.15 998,-193 989,-189.85 989,-196.15"/>
</g>
<!-- no_contention -->
<g id="node11" class="node">
<title>no_contention</title>
<ellipse fill="#12351f" stroke="#3fb950" stroke-width="3" cx="1496.19" cy="-193" rx="178.38" ry="28.98"/>
<text text-anchor="middle" x="1496.19" y="-189.3" font-family="Helvetica,sans-Serif" font-size="14.00" fill="#e6edf3">live turn decodes uncontended</text>
</g>
<!-- defer&#45;&gt;no_contention -->
<g id="edge9" class="edge">
<title>defer&#45;&gt;no_contention</title>
<path fill="none" stroke="#8b949e" stroke-width="1.6" d="M1282,-193C1290.74,-193 1299.59,-193 1308.48,-193"/>
<polygon fill="#8b949e" stroke="#8b949e" stroke-width="1.6" points="1308.75,-196.15 1317.75,-193 1308.75,-189.85 1308.75,-196.15"/>
</g>
</g>
</svg>
