<?xml version="1.0" encoding="UTF-8" standalone="no"?>
<!DOCTYPE svg PUBLIC "-//W3C//DTD SVG 1.1//EN"
 "http://www.w3.org/Graphics/SVG/1.1/DTD/svg11.dtd">
<!-- Generated by graphviz version 14.1.2 (0)
 -->
<!-- Title: before_after_timeline Pages: 1 -->
<svg width="1025pt" height="714pt"
 viewBox="0.00 0.00 1025.00 714.00" xmlns="http://www.w3.org/2000/svg" xmlns:xlink="http://www.w3.org/1999/xlink">
<g id="graph0" class="graph" transform="scale(1 1) rotate(0) translate(4 709.82)">
<title>before_after_timeline</title>
<polygon fill="#0d1117" stroke="none" points="-4,4 -4,-709.82 1020.5,-709.82 1020.5,4 -4,4"/>
<text xml:space="preserve" text-anchor="middle" x="508.25" y="-682.82" font-family="Helvetica,sans-Serif" font-size="20.00" fill="#e6edf3">Same event, two outcomes (illustrative reconstruction from source&#45;verified turn_exit_reason formats)</text>
<g id="clust1" class="cluster">
<title>cluster_before</title>
<polygon fill="#0d1117" stroke="#f85149" stroke-dasharray="5,2" points="80.25,-129.45 80.25,-665.82 482.25,-665.82 482.25,-129.45 80.25,-129.45"/>
<text xml:space="preserve" text-anchor="middle" x="281.25" y="-642.82" font-family="Helvetica,sans-Serif" font-size="20.00" fill="#f85149">Before this fix</text>
</g>
<g id="clust2" class="cluster">
<title>cluster_after</title>
<polygon fill="#0d1117" stroke="#3fb950" stroke-dasharray="5,2" points="490.25,-8 490.25,-657.2 936.25,-657.2 936.25,-8 490.25,-8"/>
<text xml:space="preserve" text-anchor="middle" x="713.25" y="-634.2" font-family="Helvetica,sans-Serif" font-size="20.00" fill="#3fb950">After this fix</text>
</g>
<!-- b1 -->
<g id="node1" class="node">
<title>b1</title>
<path fill="#161b22" stroke="#adbac7" stroke-width="2" d="M407.25,-625.82C407.25,-625.82 155.25,-625.82 155.25,-625.82 149.25,-625.82 143.25,-619.82 143.25,-613.82 143.25,-613.82 143.25,-577.4 143.25,-577.4 143.25,-571.4 149.25,-565.4 155.25,-565.4 155.25,-565.4 407.25,-565.4 407.25,-565.4 413.25,-565.4 419.25,-571.4 419.25,-577.4 419.25,-577.4 419.25,-613.82 419.25,-613.82 419.25,-619.82 413.25,-625.82 407.25,-625.82"/>
<text xml:space="preserve" text-anchor="middle" x="281.25" y="-599.56" font-family="Helvetica,sans-Serif" font-size="14.00" fill="#e6edf3">t0: goal continuation turn running,</text>
<text xml:space="preserve" text-anchor="middle" x="281.25" y="-582.31" font-family="Helvetica,sans-Serif" font-size="14.00" fill="#e6edf3">review fork contending for GPU</text>
</g>
<!-- b2 -->
<g id="node2" class="node">
<title>b2</title>
<path fill="#161b22" stroke="#f0883e" stroke-width="2" d="M458.62,-529.4C458.62,-529.4 103.88,-529.4 103.88,-529.4 97.88,-529.4 91.88,-523.4 91.88,-517.4 91.88,-517.4 91.88,-463.73 91.88,-463.73 91.88,-457.73 97.88,-451.73 103.88,-451.73 103.88,-451.73 458.62,-451.73 458.62,-451.73 464.62,-451.73 470.62,-457.73 470.62,-463.73 470.62,-463.73 470.62,-517.4 470.62,-517.4 470.62,-523.4 464.62,-529.4 458.62,-529.4"/>
<text xml:space="preserve" text-anchor="middle" x="281.25" y="-503.14" font-family="Helvetica,sans-Serif" font-size="14.00" fill="#e6edf3">t1: turn&#45;liveness watchdog fires</text>
<text xml:space="preserve" text-anchor="middle" x="281.25" y="-485.89" font-family="Helvetica,sans-Serif" font-size="14.00" fill="#e6edf3">turn_exit_reason=</text>
<text xml:space="preserve" text-anchor="middle" x="281.25" y="-468.64" font-family="Helvetica,sans-Serif" font-size="14.00" fill="#e6edf3">&#39;interrupted_by_system(turn_liveness_watchdog)&#39;</text>
</g>
<!-- b1&#45;&gt;b2 -->
<g id="edge1" class="edge">
<title>b1&#45;&gt;b2</title>
<path fill="none" stroke="#8b949e" stroke-width="1.6" d="M281.25,-564.53C281.25,-557.35 281.25,-549.49 281.25,-541.67"/>
<polygon fill="#8b949e" stroke="#8b949e" stroke-width="1.6" points="284.4,-541.75 281.25,-532.75 278.1,-541.75 284.4,-541.75"/>
</g>
<!-- b3 -->
<g id="node3" class="node">
<title>b3</title>
<path fill="#161b22" stroke="#f85149" stroke-width="2" d="M400.12,-415.73C400.12,-415.73 162.38,-415.73 162.38,-415.73 156.38,-415.73 150.38,-409.73 150.38,-403.73 150.38,-403.73 150.38,-367.31 150.38,-367.31 150.38,-361.31 156.38,-355.31 162.38,-355.31 162.38,-355.31 400.12,-355.31 400.12,-355.31 406.12,-355.31 412.12,-361.31 412.12,-367.31 412.12,-367.31 412.12,-403.73 412.12,-403.73 412.12,-409.73 406.12,-415.73 400.12,-415.73"/>
<text xml:space="preserve" text-anchor="middle" x="281.25" y="-389.47" font-family="Helvetica,sans-Serif" font-size="14.00" fill="#e6edf3">t1: _last_turn_interrupted = True</text>
<text xml:space="preserve" text-anchor="middle" x="281.25" y="-372.22" font-family="Helvetica,sans-Serif" font-size="14.00" fill="#e6edf3">(collapsed — same as Ctrl+C)</text>
</g>
<!-- b2&#45;&gt;b3 -->
<g id="edge2" class="edge">
<title>b2&#45;&gt;b3</title>
<path fill="none" stroke="#8b949e" stroke-width="1.6" d="M281.25,-450.91C281.25,-443.4 281.25,-435.5 281.25,-427.91"/>
<polygon fill="#8b949e" stroke="#8b949e" stroke-width="1.6" points="284.4,-428.13 281.25,-419.13 278.1,-428.13 284.4,-428.13"/>
</g>
<!-- b4 -->
<g id="node4" class="node">
<title>b4</title>
<path fill="#161b22" stroke="#f85149" stroke-width="3" d="M431.62,-319.31C431.62,-319.31 130.88,-319.31 130.88,-319.31 124.88,-319.31 118.88,-313.31 118.88,-307.31 118.88,-307.31 118.88,-270.89 118.88,-270.89 118.88,-264.89 124.88,-258.89 130.88,-258.89 130.88,-258.89 431.62,-258.89 431.62,-258.89 437.62,-258.89 443.62,-264.89 443.62,-270.89 443.62,-270.89 443.62,-307.31 443.62,-307.31 443.62,-313.31 437.62,-319.31 431.62,-319.31"/>
<text xml:space="preserve" text-anchor="middle" x="281.25" y="-293.05" font-family="Helvetica,sans-Serif" font-size="14.00" fill="#e6edf3">t1: mgr.pause(&#39;user&#45;interrupted (Ctrl+C)&#39;)</text>
<text xml:space="preserve" text-anchor="middle" x="281.25" y="-275.8" font-family="Helvetica,sans-Serif" font-size="14.00" fill="#e6edf3">⏸ Goal paused — WRONG attribution</text>
</g>
<!-- b3&#45;&gt;b4 -->
<g id="edge3" class="edge">
<title>b3&#45;&gt;b4</title>
<path fill="none" stroke="#8b949e" stroke-width="1.6" d="M281.25,-354.39C281.25,-347.22 281.25,-339.45 281.25,-331.86"/>
<polygon fill="#8b949e" stroke="#8b949e" stroke-width="1.6" points="284.4,-332.02 281.25,-323.02 278.1,-332.02 284.4,-332.02"/>
</g>
<!-- b5 -->
<g id="node5" class="node">
<title>b5</title>
<ellipse fill="#1f2937" stroke="#f85149" stroke-width="3" cx="281.25" cy="-180.17" rx="192.51" ry="42.72"/>
<text xml:space="preserve" text-anchor="middle" x="281.25" y="-184.12" font-family="Helvetica,sans-Serif" font-size="14.00" fill="#e6edf3">loop stops. Silent unless someone</text>
<text xml:space="preserve" text-anchor="middle" x="281.25" y="-166.87" font-family="Helvetica,sans-Serif" font-size="14.00" fill="#e6edf3">notices the ⏸ line. Looks &#39;flaky&#39;.</text>
</g>
<!-- b4&#45;&gt;b5 -->
<g id="edge4" class="edge">
<title>b4&#45;&gt;b5</title>
<path fill="none" stroke="#8b949e" stroke-width="1.6" d="M281.25,-257.46C281.25,-250.58 281.25,-243.07 281.25,-235.54"/>
<polygon fill="#8b949e" stroke="#8b949e" stroke-width="1.6" points="284.4,-235.59 281.25,-226.59 278.1,-235.59 284.4,-235.59"/>
</g>
<!-- a1 -->
<g id="node6" class="node">
<title>a1</title>
<path fill="#161b22" stroke="#adbac7" stroke-width="2" d="M862.12,-617.2C862.12,-617.2 564.38,-617.2 564.38,-617.2 558.38,-617.2 552.38,-611.2 552.38,-605.2 552.38,-605.2 552.38,-586.03 552.38,-586.03 552.38,-580.03 558.38,-574.03 564.38,-574.03 564.38,-574.03 862.12,-574.03 862.12,-574.03 868.12,-574.03 874.12,-580.03 874.12,-586.03 874.12,-586.03 874.12,-605.2 874.12,-605.2 874.12,-611.2 868.12,-617.2 862.12,-617.2"/>
<text xml:space="preserve" text-anchor="middle" x="713.25" y="-590.94" font-family="Helvetica,sans-Serif" font-size="14.00" fill="#e6edf3">t0: same contention, same watchdog trip</text>
</g>
<!-- a2 -->
<g id="node7" class="node">
<title>a2</title>
<path fill="#161b22" stroke="#f0883e" stroke-width="2" d="M831.38,-512.15C831.38,-512.15 595.12,-512.15 595.12,-512.15 589.12,-512.15 583.12,-506.15 583.12,-500.15 583.12,-500.15 583.12,-480.98 583.12,-480.98 583.12,-474.98 589.12,-468.98 595.12,-468.98 595.12,-468.98 831.38,-468.98 831.38,-468.98 837.38,-468.98 843.38,-474.98 843.38,-480.98 843.38,-480.98 843.38,-500.15 843.38,-500.15 843.38,-506.15 837.38,-512.15 831.38,-512.15"/>
<text xml:space="preserve" text-anchor="middle" x="713.25" y="-485.89" font-family="Helvetica,sans-Serif" font-size="14.00" fill="#e6edf3">t1: same turn_exit_reason string</text>
</g>
<!-- a1&#45;&gt;a2 -->
<g id="edge5" class="edge">
<title>a1&#45;&gt;a2</title>
<path fill="none" stroke="#8b949e" stroke-width="1.6" d="M713.25,-573.26C713.25,-559.03 713.25,-540.06 713.25,-523.98"/>
<polygon fill="#8b949e" stroke="#8b949e" stroke-width="1.6" points="716.4,-524.31 713.25,-515.31 710.1,-524.31 716.4,-524.31"/>
</g>
<!-- a3 -->
<g id="node8" class="node">
<title>a3</title>
<path fill="#0d2e2e" stroke="#39c5cf" stroke-width="2" d="M832.88,-415.73C832.88,-415.73 593.62,-415.73 593.62,-415.73 587.62,-415.73 581.62,-409.73 581.62,-403.73 581.62,-403.73 581.62,-367.31 581.62,-367.31 581.62,-361.31 587.62,-355.31 593.62,-355.31 593.62,-355.31 832.88,-355.31 832.88,-355.31 838.88,-355.31 844.88,-361.31 844.88,-367.31 844.88,-367.31 844.88,-403.73 844.88,-403.73 844.88,-409.73 838.88,-415.73 832.88,-415.73"/>
<text xml:space="preserve" text-anchor="middle" x="713.25" y="-389.47" font-family="Helvetica,sans-Serif" font-size="14.00" fill="#e6edf3">t1: classify_interrupt_reason() &#45;&gt;</text>
<text xml:space="preserve" text-anchor="middle" x="713.25" y="-372.22" font-family="Helvetica,sans-Serif" font-size="14.00" fill="#e6edf3">(True, &#39;turn_liveness_watchdog&#39;)</text>
</g>
<!-- a2&#45;&gt;a3 -->
<g id="edge6" class="edge">
<title>a2&#45;&gt;a3</title>
<path fill="none" stroke="#8b949e" stroke-width="1.6" d="M713.25,-468.22C713.25,-456.52 713.25,-441.62 713.25,-427.75"/>
<polygon fill="#8b949e" stroke="#8b949e" stroke-width="1.6" points="716.4,-427.86 713.25,-418.86 710.1,-427.86 716.4,-427.86"/>
</g>
<!-- a4 -->
<g id="node9" class="node">
<title>a4</title>
<path fill="#1f2937" stroke="#3fb950" stroke-width="2" d="M843.38,-319.31C843.38,-319.31 583.12,-319.31 583.12,-319.31 577.12,-319.31 571.12,-313.31 571.12,-307.31 571.12,-307.31 571.12,-270.89 571.12,-270.89 571.12,-264.89 577.12,-258.89 583.12,-258.89 583.12,-258.89 843.38,-258.89 843.38,-258.89 849.38,-258.89 855.38,-264.89 855.38,-270.89 855.38,-270.89 855.38,-307.31 855.38,-307.31 855.38,-313.31 849.38,-319.31 843.38,-319.31"/>
<text xml:space="preserve" text-anchor="middle" x="713.25" y="-293.05" font-family="Helvetica,sans-Serif" font-size="14.00" fill="#e6edf3">t1: note_system_abort() — retry the</text>
<text xml:space="preserve" text-anchor="middle" x="713.25" y="-275.8" font-family="Helvetica,sans-Serif" font-size="14.00" fill="#e6edf3">SAME prompt. ↻ &#39;(1/3)&#39;. No pause.</text>
</g>
<!-- a3&#45;&gt;a4 -->
<g id="edge7" class="edge">
<title>a3&#45;&gt;a4</title>
<path fill="none" stroke="#8b949e" stroke-width="1.6" d="M713.25,-354.39C713.25,-347.15 713.25,-339.29 713.25,-331.63"/>
<polygon fill="#8b949e" stroke="#8b949e" stroke-width="1.6" points="716.4,-331.7 713.25,-322.7 710.1,-331.7 716.4,-331.7"/>
</g>
<!-- a5 -->
<g id="node10" class="node">
<title>a5</title>
<path fill="#1f2937" stroke="#3fb950" stroke-width="2" d="M847.5,-219.01C847.5,-219.01 579,-219.01 579,-219.01 573,-219.01 567,-213.01 567,-207.01 567,-207.01 567,-153.34 567,-153.34 567,-147.34 573,-141.34 579,-141.34 579,-141.34 847.5,-141.34 847.5,-141.34 853.5,-141.34 859.5,-147.34 859.5,-153.34 859.5,-153.34 859.5,-207.01 859.5,-207.01 859.5,-213.01 853.5,-219.01 847.5,-219.01"/>
<text xml:space="preserve" text-anchor="middle" x="713.25" y="-192.75" font-family="Helvetica,sans-Serif" font-size="14.00" fill="#e6edf3">t2: retried turn completes cleanly</text>
<text xml:space="preserve" text-anchor="middle" x="713.25" y="-175.5" font-family="Helvetica,sans-Serif" font-size="14.00" fill="#e6edf3">(review already deferred by fix #2 —</text>
<text xml:space="preserve" text-anchor="middle" x="713.25" y="-158.25" font-family="Helvetica,sans-Serif" font-size="14.00" fill="#e6edf3">less likely to contend again)</text>
</g>
<!-- a4&#45;&gt;a5 -->
<g id="edge8" class="edge">
<title>a4&#45;&gt;a5</title>
<path fill="none" stroke="#8b949e" stroke-width="1.6" d="M713.25,-258.03C713.25,-249.6 713.25,-240.2 713.25,-230.95"/>
<polygon fill="#8b949e" stroke="#8b949e" stroke-width="1.6" points="716.4,-231.24 713.25,-222.24 710.1,-231.24 716.4,-231.24"/>
</g>
<!-- a6 -->
<g id="node11" class="node">
<title>a6</title>
<ellipse fill="#12351f" stroke="#3fb950" stroke-width="3" cx="713.25" cy="-58.72" rx="215.31" ry="42.72"/>
<text xml:space="preserve" text-anchor="middle" x="713.25" y="-62.67" font-family="Helvetica,sans-Serif" font-size="14.00" fill="#e6edf3">judge runs, verdict recorded,</text>
<text xml:space="preserve" text-anchor="middle" x="713.25" y="-45.42" font-family="Helvetica,sans-Serif" font-size="14.00" fill="#e6edf3">consecutive_system_aborts resets to 0</text>
</g>
<!-- a5&#45;&gt;a6 -->
<g id="edge9" class="edge">
<title>a5&#45;&gt;a6</title>
<path fill="none" stroke="#8b949e" stroke-width="1.6" d="M713.25,-140.39C713.25,-131.96 713.25,-122.89 713.25,-113.99"/>
<polygon fill="#8b949e" stroke="#8b949e" stroke-width="1.6" points="716.4,-114.28 713.25,-105.28 710.1,-114.28 716.4,-114.28"/>
</g>
</g>
</svg>
