<?xml version="1.0" encoding="UTF-8" standalone="no"?>
<!DOCTYPE svg PUBLIC "-//W3C//DTD SVG 1.1//EN"
 "http://www.w3.org/Graphics/SVG/1.1/DTD/svg11.dtd">
<!-- Generated by graphviz version 14.1.2 (0)
 -->
<!-- Title: fix_vs_diagnosis_repo_relationship Pages: 1 -->
<svg width="623pt" height="978pt"
 viewBox="0.00 0.00 623.00 978.00" xmlns="http://www.w3.org/2000/svg" xmlns:xlink="http://www.w3.org/1999/xlink">
<g id="graph0" class="graph" transform="scale(1 1) rotate(0) translate(4 973.78)">
<title>fix_vs_diagnosis_repo_relationship</title>
<polygon fill="#0d1117" stroke="none" points="-4,4 -4,-973.78 618.5,-973.78 618.5,4 -4,4"/>
<text xml:space="preserve" text-anchor="middle" x="307.25" y="-946.78" font-family="Helvetica,sans-Serif" font-size="20.00" fill="#e6edf3">This addendum extends the diagnosis — it doesn&#39;t replace it</text>
<g id="clust1" class="cluster">
<title>cluster_original</title>
<path fill="#0d1117" stroke="#bc8cff" d="M55.25,-592.02C55.25,-592.02 426.25,-592.02 426.25,-592.02 432.25,-592.02 438.25,-598.02 438.25,-604.02 438.25,-604.02 438.25,-917.78 438.25,-917.78 438.25,-923.78 432.25,-929.78 426.25,-929.78 426.25,-929.78 55.25,-929.78 55.25,-929.78 49.25,-929.78 43.25,-923.78 43.25,-917.78 43.25,-917.78 43.25,-604.02 43.25,-604.02 43.25,-598.02 49.25,-592.02 55.25,-592.02"/>
<text xml:space="preserve" text-anchor="middle" x="240.75" y="-906.78" font-family="Helvetica,sans-Serif" font-size="20.00" fill="#bc8cff">Diagrams 01&#45;30 (original, unchanged)</text>
</g>
<g id="clust2" class="cluster">
<title>cluster_addendum</title>
<path fill="#0d1117" stroke="#f0883e" d="M90.25,-138.84C90.25,-138.84 559.25,-138.84 559.25,-138.84 565.25,-138.84 571.25,-144.84 571.25,-150.84 571.25,-150.84 571.25,-527.52 571.25,-527.52 571.25,-533.52 565.25,-539.52 559.25,-539.52 559.25,-539.52 90.25,-539.52 90.25,-539.52 84.25,-539.52 78.25,-533.52 78.25,-527.52 78.25,-527.52 78.25,-150.84 78.25,-150.84 78.25,-144.84 84.25,-138.84 90.25,-138.84"/>
<text xml:space="preserve" text-anchor="middle" x="324.75" y="-516.52" font-family="Helvetica,sans-Serif" font-size="20.00" fill="#f0883e">Diagrams 31&#45;42 (this addendum)</text>
</g>
<!-- symptom -->
<g id="node1" class="node">
<title>symptom</title>
<path fill="#161b22" stroke="#bc8cff" stroke-width="2" d="M316.38,-889.78C316.38,-889.78 164.12,-889.78 164.12,-889.78 158.12,-889.78 152.12,-883.78 152.12,-877.78 152.12,-877.78 152.12,-841.36 152.12,-841.36 152.12,-835.36 158.12,-829.36 164.12,-829.36 164.12,-829.36 316.38,-829.36 316.38,-829.36 322.38,-829.36 328.38,-835.36 328.38,-841.36 328.38,-841.36 328.38,-877.78 328.38,-877.78 328.38,-883.78 322.38,-889.78 316.38,-889.78"/>
<text xml:space="preserve" text-anchor="middle" x="240.25" y="-863.52" font-family="Helvetica,sans-Serif" font-size="14.00" fill="#e6edf3">The symptom +</text>
<text xml:space="preserve" text-anchor="middle" x="240.25" y="-846.27" font-family="Helvetica,sans-Serif" font-size="14.00" fill="#e6edf3">judge&#45;is&#45;fine finding</text>
</g>
<!-- four_causes -->
<g id="node2" class="node">
<title>four_causes</title>
<path fill="#161b22" stroke="#bc8cff" stroke-width="2" d="M401.12,-792.36C401.12,-792.36 79.38,-792.36 79.38,-792.36 73.38,-792.36 67.38,-786.36 67.38,-780.36 67.38,-780.36 67.38,-709.44 67.38,-709.44 67.38,-703.44 73.38,-697.44 79.38,-697.44 79.38,-697.44 401.12,-697.44 401.12,-697.44 407.12,-697.44 413.12,-703.44 413.12,-709.44 413.12,-709.44 413.12,-780.36 413.12,-780.36 413.12,-786.36 407.12,-792.36 401.12,-792.36"/>
<text xml:space="preserve" text-anchor="middle" x="240.25" y="-766.1" font-family="Helvetica,sans-Serif" font-size="14.00" fill="#e6edf3">Four silent deferral paths</text>
<text xml:space="preserve" text-anchor="middle" x="240.25" y="-748.85" font-family="Helvetica,sans-Serif" font-size="14.00" fill="#e6edf3">(cause #3&#39;s prose is superseded</text>
<text xml:space="preserve" text-anchor="middle" x="240.25" y="-731.6" font-family="Helvetica,sans-Serif" font-size="14.00" fill="#e6edf3">by diagram 31, kept as historical</text>
<text xml:space="preserve" text-anchor="middle" x="240.25" y="-714.35" font-family="Helvetica,sans-Serif" font-size="14.00" fill="#e6edf3">record — see docs/why_this_repo_exists.md)</text>
</g>
<!-- symptom&#45;&gt;four_causes -->
<g id="edge1" class="edge">
<title>symptom&#45;&gt;four_causes</title>
<path fill="none" stroke="#8b949e" stroke-width="1.6" d="M240.25,-828.38C240.25,-820.94 240.25,-812.72 240.25,-804.43"/>
<polygon fill="#8b949e" stroke="#8b949e" stroke-width="1.6" points="243.4,-804.59 240.25,-795.59 237.1,-804.59 243.4,-804.59"/>
</g>
<!-- rollouts -->
<g id="node3" class="node">
<title>rollouts</title>
<path fill="#161b22" stroke="#bc8cff" stroke-width="2" d="M333.62,-660.44C333.62,-660.44 146.88,-660.44 146.88,-660.44 140.88,-660.44 134.88,-654.44 134.88,-648.44 134.88,-648.44 134.88,-612.02 134.88,-612.02 134.88,-606.02 140.88,-600.02 146.88,-600.02 146.88,-600.02 333.62,-600.02 333.62,-600.02 339.62,-600.02 345.62,-606.02 345.62,-612.02 345.62,-612.02 345.62,-648.44 345.62,-648.44 345.62,-654.44 339.62,-660.44 333.62,-660.44"/>
<text xml:space="preserve" text-anchor="middle" x="240.25" y="-634.18" font-family="Helvetica,sans-Serif" font-size="14.00" fill="#e6edf3">15/15 rollouts complete</text>
<text xml:space="preserve" text-anchor="middle" x="240.25" y="-616.93" font-family="Helvetica,sans-Serif" font-size="14.00" fill="#e6edf3">(2 real corrections found)</text>
</g>
<!-- four_causes&#45;&gt;rollouts -->
<g id="edge2" class="edge">
<title>four_causes&#45;&gt;rollouts</title>
<path fill="none" stroke="#8b949e" stroke-width="1.6" d="M240.25,-696.45C240.25,-688.54 240.25,-680.39 240.25,-672.65"/>
<polygon fill="#8b949e" stroke="#8b949e" stroke-width="1.6" points="243.4,-672.72 240.25,-663.72 237.1,-672.72 243.4,-672.72"/>
</g>
<!-- correction -->
<g id="node4" class="node">
<title>correction</title>
<path fill="#161b22" stroke="#f0883e" stroke-width="2" d="M347.88,-499.52C347.88,-499.52 132.62,-499.52 132.62,-499.52 126.62,-499.52 120.63,-493.52 120.63,-487.52 120.63,-487.52 120.63,-468.35 120.63,-468.35 120.63,-462.35 126.63,-456.35 132.62,-456.35 132.62,-456.35 347.88,-456.35 347.88,-456.35 353.88,-456.35 359.88,-462.35 359.88,-468.35 359.88,-468.35 359.88,-487.52 359.88,-487.52 359.88,-493.52 353.88,-499.52 347.88,-499.52"/>
<text xml:space="preserve" text-anchor="middle" x="240.25" y="-473.26" font-family="Helvetica,sans-Serif" font-size="14.00" fill="#e6edf3">31: the corrected mechanism</text>
</g>
<!-- rollouts&#45;&gt;correction -->
<g id="edge3" class="edge">
<title>rollouts&#45;&gt;correction</title>
<path fill="none" stroke="#f0883e" stroke-width="1.6" d="M240.25,-599.18C240.25,-573.77 240.25,-537.45 240.25,-511.39"/>
<polygon fill="#f0883e" stroke="#f0883e" stroke-width="1.6" points="243.4,-511.63 240.25,-502.63 237.1,-511.63 243.4,-511.63"/>
<text xml:space="preserve" text-anchor="middle" x="320.5" y="-568.72" font-family="Helvetica,sans-Serif" font-size="14.00" fill="#8b949e"> &#160;builds on rollout 21,</text>
<text xml:space="preserve" text-anchor="middle" x="320.5" y="-551.47" font-family="Helvetica,sans-Serif" font-size="14.00" fill="#8b949e"> &#160;closes its flagged gap</text>
</g>
<!-- fix1 -->
<g id="node5" class="node">
<title>fix1</title>
<path fill="#161b22" stroke="#f0883e" stroke-width="2" d="M292.38,-419.35C292.38,-419.35 98.12,-419.35 98.12,-419.35 92.12,-419.35 86.12,-413.35 86.12,-407.35 86.12,-407.35 86.12,-370.93 86.12,-370.93 86.12,-364.93 92.12,-358.93 98.12,-358.93 98.12,-358.93 292.38,-358.93 292.38,-358.93 298.38,-358.93 304.38,-364.93 304.38,-370.93 304.38,-370.93 304.38,-407.35 304.38,-407.35 304.38,-413.35 298.38,-419.35 292.38,-419.35"/>
<text xml:space="preserve" text-anchor="middle" x="195.25" y="-393.09" font-family="Helvetica,sans-Serif" font-size="14.00" fill="#e6edf3">32&#45;35: fix #1</text>
<text xml:space="preserve" text-anchor="middle" x="195.25" y="-375.84" font-family="Helvetica,sans-Serif" font-size="14.00" fill="#e6edf3">(&#45;q/&#45;Q single&#45;query no&#45;op)</text>
</g>
<!-- correction&#45;&gt;fix1 -->
<g id="edge4" class="edge">
<title>correction&#45;&gt;fix1</title>
<path fill="none" stroke="#8b949e" stroke-width="1.6" d="M229.13,-455.48C225.16,-447.83 220.55,-438.95 216.04,-430.24"/>
<polygon fill="#8b949e" stroke="#8b949e" stroke-width="1.6" points="218.88,-428.88 211.94,-422.34 213.29,-431.78 218.88,-428.88"/>
</g>
<!-- fix2 -->
<g id="node6" class="node">
<title>fix2</title>
<path fill="#161b22" stroke="#f0883e" stroke-width="2" d="M551.62,-419.35C551.62,-419.35 334.88,-419.35 334.88,-419.35 328.88,-419.35 322.88,-413.35 322.88,-407.35 322.88,-407.35 322.88,-370.93 322.88,-370.93 322.88,-364.93 328.88,-358.93 334.88,-358.93 334.88,-358.93 551.62,-358.93 551.62,-358.93 557.62,-358.93 563.62,-364.93 563.62,-370.93 563.62,-370.93 563.62,-407.35 563.62,-407.35 563.62,-413.35 557.62,-419.35 551.62,-419.35"/>
<text xml:space="preserve" text-anchor="middle" x="443.25" y="-393.09" font-family="Helvetica,sans-Serif" font-size="14.00" fill="#e6edf3">33, 36&#45;37: fix #2</text>
<text xml:space="preserve" text-anchor="middle" x="443.25" y="-375.84" font-family="Helvetica,sans-Serif" font-size="14.00" fill="#e6edf3">(system&#45;abort misattribution)</text>
</g>
<!-- correction&#45;&gt;fix2 -->
<g id="edge5" class="edge">
<title>correction&#45;&gt;fix2</title>
<path fill="none" stroke="#8b949e" stroke-width="1.6" d="M290.69,-455.37C312.37,-446.1 338.25,-435.04 362.49,-424.67"/>
<polygon fill="#8b949e" stroke="#8b949e" stroke-width="1.6" points="363.49,-427.67 370.53,-421.24 361.01,-421.88 363.49,-427.67"/>
</g>
<!-- proof -->
<g id="node7" class="node">
<title>proof</title>
<path fill="#161b22" stroke="#f0883e" stroke-width="2" d="M402.25,-321.93C402.25,-321.93 234.25,-321.93 234.25,-321.93 228.25,-321.93 222.25,-315.93 222.25,-309.93 222.25,-309.93 222.25,-273.51 222.25,-273.51 222.25,-267.51 228.25,-261.51 234.25,-261.51 234.25,-261.51 402.25,-261.51 402.25,-261.51 408.25,-261.51 414.25,-267.51 414.25,-273.51 414.25,-273.51 414.25,-309.93 414.25,-309.93 414.25,-315.93 408.25,-321.93 402.25,-321.93"/>
<text xml:space="preserve" text-anchor="middle" x="318.25" y="-295.67" font-family="Helvetica,sans-Serif" font-size="14.00" fill="#e6edf3">38&#45;39: live verification</text>
<text xml:space="preserve" text-anchor="middle" x="318.25" y="-278.42" font-family="Helvetica,sans-Serif" font-size="14.00" fill="#e6edf3">+ commit/test map</text>
</g>
<!-- fix1&#45;&gt;proof -->
<g id="edge6" class="edge">
<title>fix1&#45;&gt;proof</title>
<path fill="none" stroke="#8b949e" stroke-width="1.6" d="M234.17,-357.95C245.83,-348.9 258.76,-338.87 270.91,-329.45"/>
<polygon fill="#8b949e" stroke="#8b949e" stroke-width="1.6" points="272.49,-332.21 277.67,-324.2 268.63,-327.23 272.49,-332.21"/>
</g>
<!-- fix2&#45;&gt;proof -->
<g id="edge7" class="edge">
<title>fix2&#45;&gt;proof</title>
<path fill="none" stroke="#8b949e" stroke-width="1.6" d="M403.7,-357.95C391.84,-348.9 378.71,-338.87 366.36,-329.45"/>
<polygon fill="#8b949e" stroke="#8b949e" stroke-width="1.6" points="368.53,-327.14 359.47,-324.19 364.71,-332.15 368.53,-327.14"/>
</g>
<!-- meta -->
<g id="node8" class="node">
<title>meta</title>
<path fill="#161b22" stroke="#f0883e" stroke-width="2" d="M400,-224.51C400,-224.51 236.5,-224.51 236.5,-224.51 230.5,-224.51 224.5,-218.51 224.5,-212.51 224.5,-212.51 224.5,-158.84 224.5,-158.84 224.5,-152.84 230.5,-146.84 236.5,-146.84 236.5,-146.84 400,-146.84 400,-146.84 406,-146.84 412,-152.84 412,-158.84 412,-158.84 412,-212.51 412,-212.51 412,-218.51 406,-224.51 400,-224.51"/>
<text xml:space="preserve" text-anchor="middle" x="318.25" y="-198.25" font-family="Helvetica,sans-Serif" font-size="14.00" fill="#e6edf3">40&#45;42: this diagram,</text>
<text xml:space="preserve" text-anchor="middle" x="318.25" y="-181" font-family="Helvetica,sans-Serif" font-size="14.00" fill="#e6edf3">fork/publish pathway,</text>
<text xml:space="preserve" text-anchor="middle" x="318.25" y="-163.75" font-family="Helvetica,sans-Serif" font-size="14.00" fill="#e6edf3">open items</text>
</g>
<!-- proof&#45;&gt;meta -->
<g id="edge8" class="edge">
<title>proof&#45;&gt;meta</title>
<path fill="none" stroke="#8b949e" stroke-width="1.6" d="M318.25,-260.63C318.25,-253.04 318.25,-244.68 318.25,-236.4"/>
<polygon fill="#8b949e" stroke="#8b949e" stroke-width="1.6" points="321.4,-236.67 318.25,-227.67 315.1,-236.67 321.4,-236.67"/>
</g>
<!-- outcome -->
<g id="node9" class="node">
<title>outcome</title>
<ellipse fill="#12351f" stroke="#3fb950" stroke-width="3" cx="318.25" cy="-54.92" rx="223.8" ry="54.92"/>
<text xml:space="preserve" text-anchor="middle" x="318.25" y="-67.5" font-family="Helvetica,sans-Serif" font-size="14.00" fill="#e6edf3">Diagnosis (why) + Fix (what changed) +</text>
<text xml:space="preserve" text-anchor="middle" x="318.25" y="-50.25" font-family="Helvetica,sans-Serif" font-size="14.00" fill="#e6edf3">Proof (it actually works now),</text>
<text xml:space="preserve" text-anchor="middle" x="318.25" y="-33" font-family="Helvetica,sans-Serif" font-size="14.00" fill="#e6edf3">all in one place, honestly dated</text>
</g>
<!-- meta&#45;&gt;outcome -->
<g id="edge9" class="edge">
<title>meta&#45;&gt;outcome</title>
<path fill="none" stroke="#8b949e" stroke-width="1.6" d="M318.25,-146.05C318.25,-138.59 318.25,-130.59 318.25,-122.54"/>
<polygon fill="#8b949e" stroke="#8b949e" stroke-width="1.6" points="321.4,-122.61 318.25,-113.61 315.1,-122.61 321.4,-122.61"/>
</g>
</g>
</svg>
